<?xml version="1.0" encoding="UTF-8" standalone="no"?>
<svg
   width="800"
   height="800"
   viewBox="0 0 211.66666 211.66667"
   version="1.1"
   id="svg1"
   xml:space="preserve"
   xmlns:xlink="http://www.w3.org/1999/xlink"
   xmlns="http://www.w3.org/2000/svg"
   >
    <defs
     id="defs1"><linearGradient
       id="linearGradient1"
       ><stop
         style="stop-color:#2c015a;stop-opacity:1;"
         offset="0.44579947"
         id="stop1" /><stop
         style="stop-color:#45018b;stop-opacity:1;"
         offset="1"
         id="stop2" /></linearGradient>
        <radialGradient
       xlink:href="#linearGradient1"
       id="radialGradient2"
       cx="523.77496"
       cy="-75.072395"
       fx="523.77496"
       fy="-75.072395"
       r="137.04875"
       gradientTransform="matrix(1,0,0,0.9996597,0,-0.02554737)"
       gradientUnits="userSpaceOnUse" /></defs><g
     id="layer1"><g
       id="g3"
       transform="matrix(0.66479176,0,0,0.66479176,-132.79731,-27.832075)"><g
         id="g38"
         transform="matrix(1.1426186,0,0,1.1426186,-199.60256,682.50894)"><g
           id="g1"
           transform="translate(0.69663544)">
    <path
             style="fill:#e2e2e2;fill-opacity:1;stroke-width:1.14262"
             d="m 388.78771,332.59429 c 0.009,-0.2348 0.0575,-0.28255 0.12177,-0.12177 0.0583,0.14549 0.0511,0.31933 -0.0159,0.3863 -0.067,0.067 -0.11461,-0.0521 -0.1058,-0.26453 z m -77.20773,-57.39892 c 0,-0.0418 0.15872,-0.20056 0.3527,-0.3527 0.31967,-0.2507 0.32679,-0.24357 0.0761,0.0761 -0.2633,0.33572 -0.4288,0.44248 -0.4288,0.2766 z m 77.64167,-0.93163 c 0,-0.38798 0.0415,-0.54669 0.0922,-0.35271 0.0507,0.194 0.0507,0.51143 0,0.70541 -0.0507,0.194 -0.0922,0.0353 -0.0922,-0.3527 z m 2.42217,-28.35526 c 0.19398,-0.0507 0.51142,-0.0507 0.70541,0 0.19398,0.0507 0.0353,0.0922 -0.35271,0.0922 -0.38797,0 -0.54668,-0.0415 -0.3527,-0.0922 z m -28.31711,-0.20485 c 0.24941,-0.048 0.65755,-0.048 0.90696,0 0.24941,0.048 0.0454,0.0873 -0.45347,0.0873 -0.49884,0 -0.7029,-0.0393 -0.45349,-0.0873 z m -27.81324,-0.20154 c 0.24941,-0.048 0.65754,-0.048 0.90695,0 0.24941,0.048 0.0454,0.0873 -0.45347,0.0873 -0.49882,0 -0.70289,-0.0393 -0.45348,-0.0873 z m -27.91124,-0.20394 c 0.30636,-0.0463 0.75983,-0.0451 1.00773,0.002 0.24789,0.0479 -0.002,0.0857 -0.55702,0.0842 -0.55425,-0.001 -0.75708,-0.0407 -0.45071,-0.087 z m -49.81892,-6.42239 c 0.009,-0.23479 0.0575,-0.28255 0.12177,-0.12177 0.0583,0.1455 0.0511,0.31932 -0.0159,0.38629 -0.067,0.067 -0.11462,-0.0521 -0.10581,-0.26452 z m 21.90449,-20.38104 c 0.2507,-0.0482 0.61348,-0.0464 0.80618,0.005 0.1927,0.0504 -0.0125,0.0899 -0.45583,0.0876 -0.44339,-0.002 -0.60106,-0.0435 -0.35035,-0.0917 z m 21.8653,-0.19794 c 0.19399,-0.0507 0.51142,-0.0507 0.70542,0 0.19398,0.0507 0.0353,0.0922 -0.35271,0.0922 -0.38797,0 -0.54669,-0.0415 -0.35271,-0.0922 z m 22.67619,-0.20515 c 0.2507,-0.0482 0.61348,-0.0464 0.80618,0.005 0.1927,0.0505 -0.0125,0.0899 -0.45582,0.0876 -0.4434,-0.002 -0.60106,-0.0435 -0.35036,-0.0918 z m -55.81778,-11.28167 c 0.14549,-0.0583 0.31932,-0.0511 0.3863,0.0159 0.067,0.067 -0.0521,0.11462 -0.26454,0.10581 -0.23478,-0.009 -0.28253,-0.0575 -0.12176,-0.12177 z m 101.5698,-4.84548 c 0.36226,-0.0448 0.90643,-0.0439 1.20928,0.002 0.30285,0.0461 0.007,0.0827 -0.65864,0.0816 -0.66509,-0.001 -0.91288,-0.0387 -0.55064,-0.0836 z m -24.13865,-28.3479 c 0,-0.0418 0.15872,-0.20057 0.35271,-0.3527 0.31967,-0.2507 0.3268,-0.24357 0.0761,0.0761 -0.26329,0.33572 -0.4288,0.44249 -0.4288,0.27661 z m 43.34814,-51.23396 c 0.009,-0.23479 0.0575,-0.28255 0.12177,-0.12176 0.0583,0.14549 0.0511,0.31931 -0.0159,0.38628 -0.067,0.067 -0.11461,-0.0521 -0.10581,-0.26452 z"
             id="path38"
             transform="matrix(0.87518268,0,0,0.87518268,174.6887,-597.32)" /><path
             style="fill:#dedede;fill-opacity:1;stroke-width:1.14262"
             d="m 388.80362,333.31649 c 0,-0.27713 0.0457,-0.3905 0.1017,-0.25193 0.0559,0.13856 0.0559,0.3653 0,0.50386 -0.0559,0.13856 -0.1017,0.0251 -0.1017,-0.25193 z m 0.4031,-58.04502 c 0,-0.27713 0.0457,-0.3905 0.10169,-0.25194 0.0559,0.13857 0.0559,0.36531 0,0.50386 -0.0559,0.13857 -0.10169,0.0251 -0.10169,-0.25192 z m -23.79826,-2.9392 c 0.009,-0.23479 0.0575,-0.28255 0.12177,-0.12177 0.0583,0.14549 0.0511,0.31933 -0.0159,0.38629 -0.067,0.067 -0.11461,-0.0521 -0.10581,-0.26452 z"
             id="path37"
             transform="matrix(0.87518268,0,0,0.87518268,174.6887,-597.32)" /><path
             style="fill:#dadada;fill-opacity:1;stroke-width:1.14262"
             d="m 388.78771,334.0051 c 0.009,-0.23478 0.0575,-0.28254 0.12177,-0.12176 0.0583,0.14548 0.0511,0.31932 -0.0159,0.38629 -0.067,0.067 -0.11461,-0.0521 -0.1058,-0.26453 z m 0.42647,-57.82668 c 0.005,-0.33254 0.0492,-0.44419 0.10043,-0.24809 0.0511,0.19609 0.0478,0.46817 -0.008,0.60463 -0.0552,0.13646 -0.097,-0.024 -0.0929,-0.35654 z m -83.42585,-30.88027 c 0.30636,-0.0463 0.75983,-0.0451 1.00772,0.002 0.24789,0.0479 -0.002,0.0857 -0.55702,0.0842 -0.55425,-0.001 -0.75707,-0.0407 -0.4507,-0.087 z m -27.81325,-0.20154 c 0.30636,-0.0463 0.75985,-0.0451 1.00772,0.002 0.2479,0.0479 -0.002,0.0857 -0.55701,0.0842 -0.55425,-10e-4 -0.75707,-0.0407 -0.45071,-0.087 z m 3.22196,-26.59828 c 0.19398,-0.0507 0.51141,-0.0507 0.70541,0 0.19398,0.0507 0.0353,0.0922 -0.35271,0.0922 -0.38797,0 -0.54669,-0.0415 -0.3527,-0.0922 z m -13.39016,-11.68837 c 0.14549,-0.0583 0.31932,-0.0511 0.38629,0.0159 0.067,0.067 -0.0521,0.11462 -0.26453,0.10581 -0.23478,-0.009 -0.28254,-0.0575 -0.12176,-0.12177 z m 100.35692,-4.84164 c 0.24941,-0.048 0.65754,-0.048 0.90695,0 0.24941,0.048 0.0454,0.0873 -0.45347,0.0873 -0.49882,0 -0.7029,-0.0393 -0.45348,-0.0873 z m 21.027,-80.59342 c 0.009,-0.23479 0.0575,-0.28255 0.12177,-0.12177 0.0583,0.14549 0.0511,0.31932 -0.0159,0.38629 -0.067,0.067 -0.11461,-0.0521 -0.10581,-0.26452 z"
             id="path36"
             transform="matrix(0.87518268,0,0,0.87518268,174.6887,-597.32)" /><path
             style="fill:#d7d7d7;fill-opacity:1;stroke-width:1.14262"
             d="m 388.78771,334.60974 c 0.009,-0.23479 0.0575,-0.28254 0.12177,-0.12177 0.0583,0.14549 0.0511,0.31932 -0.0159,0.3863 -0.067,0.067 -0.11461,-0.0521 -0.1058,-0.26453 z m 0.42647,-57.4236 c 0.005,-0.33254 0.0492,-0.44419 0.10043,-0.24809 0.0511,0.19609 0.0478,0.46819 -0.008,0.60464 -0.0552,0.13645 -0.097,-0.024 -0.0929,-0.35655 z m -27.89032,-31.47796 c 0.14549,-0.0583 0.31932,-0.0511 0.38629,0.0159 0.067,0.067 -0.0521,0.11461 -0.26453,0.10581 -0.23478,-0.009 -0.28255,-0.0575 -0.12176,-0.12177 z m 0.79359,0.005 c 0.13855,-0.0559 0.36529,-0.0559 0.50386,0 0.13856,0.0559 0.0251,0.10169 -0.25194,0.10169 -0.27712,0 -0.39049,-0.0457 -0.25192,-0.10169 z m -28.51589,-0.21269 c 0.30637,-0.0463 0.75984,-0.0451 1.00773,0.002 0.24789,0.0479 -0.002,0.0857 -0.55702,0.0842 -0.55425,-0.001 -0.75707,-0.0407 -0.45071,-0.087 z m -30.53452,-27.20652 c 0.25071,-0.0482 0.61349,-0.0464 0.80618,0.005 0.1927,0.0504 -0.0125,0.0899 -0.45583,0.0876 -0.44339,-0.002 -0.60105,-0.0435 -0.35035,-0.0917 z m 22.58331,-0.19668 c 0.14549,-0.0583 0.31933,-0.0511 0.3863,0.0159 0.067,0.067 -0.0521,0.11461 -0.26453,0.10581 -0.23478,-0.009 -0.28255,-0.0575 -0.12177,-0.12177 z m -29.22406,-11.89154 c 0.14549,-0.0583 0.31933,-0.0511 0.3863,0.0159 0.067,0.067 -0.0521,0.11461 -0.26453,0.10581 -0.23478,-0.009 -0.28254,-0.0575 -0.12177,-0.12177 z m 70.94392,-4.23244 c 0.14549,-0.0583 0.31933,-0.0511 0.3863,0.0159 0.067,0.067 -0.0521,0.1146 -0.26453,0.10581 -0.23478,-0.009 -0.28255,-0.0575 -0.12177,-0.12176 z"
             id="path35"
             transform="matrix(0.87518268,0,0,0.87518268,174.6887,-597.32)" /><path
             style="fill:#d3d3d3;fill-opacity:1;stroke-width:1.14262"
             d="m 388.80362,335.33195 c 0,-0.27713 0.0457,-0.3905 0.1017,-0.25194 0.0559,0.13857 0.0559,0.36531 0,0.50386 -0.0559,0.13857 -0.1017,0.0251 -0.1017,-0.25192 z m 0.41056,-57.13807 c 0.005,-0.33256 0.0492,-0.4442 0.10043,-0.2481 0.0511,0.1961 0.0478,0.46818 -0.008,0.60463 -0.0552,0.13645 -0.097,-0.024 -0.0929,-0.35653 z m 0.19408,-31.34029 c 0,-0.27712 0.0457,-0.39049 0.1017,-0.25193 0.0559,0.13856 0.0559,0.3653 0,0.50386 -0.0559,0.13857 -0.1017,0.0252 -0.1017,-0.25193 z M 366.24912,136.46942 c 0.19398,-0.0507 0.51143,-0.0507 0.70541,0 0.19398,0.0507 0.0353,0.0922 -0.35271,0.0922 -0.38797,0 -0.54669,-0.0415 -0.3527,-0.0922 z"
             id="path34"
             transform="matrix(0.87518268,0,0,0.87518268,174.6887,-597.32)" /><path
             style="fill:#cfcfcf;fill-opacity:1;stroke-width:1.14262"
             d="m 388.78771,336.02056 c 0.009,-0.23479 0.0575,-0.28255 0.12177,-0.12177 0.0583,0.14549 0.0511,0.31933 -0.0159,0.3863 -0.067,0.0669 -0.11461,-0.0521 -0.1058,-0.26453 z m 0.41901,-56.91973 c 0,-0.27713 0.0457,-0.3905 0.10169,-0.25194 0.0559,0.13857 0.0559,0.3653 0,0.50387 -0.0559,0.13856 -0.10169,0.0253 -0.10169,-0.25193 z m -85.2323,-33.80268 c 0.30636,-0.0463 0.75983,-0.0451 1.00772,0.002 0.24789,0.0479 -0.002,0.0857 -0.55701,0.0842 -0.55425,-0.001 -0.75708,-0.0407 -0.45071,-0.087 z m -27.91679,-0.19916 c 0.24941,-0.048 0.65755,-0.048 0.90696,0 0.24941,0.048 0.0454,0.0873 -0.45347,0.0873 -0.49884,0 -0.7029,-0.0393 -0.45349,-0.0873 z m 6.65334,-26.60427 c 0.25071,-0.0482 0.61349,-0.0464 0.80619,0.005 0.19269,0.0504 -0.0125,0.0899 -0.45584,0.0876 -0.44339,-0.002 -0.60105,-0.0435 -0.35035,-0.0917 z m -15.50873,-11.68476 c 0.14549,-0.0583 0.31932,-0.0511 0.38629,0.0159 0.067,0.067 -0.0521,0.11462 -0.26453,0.10581 -0.23478,-0.009 -0.28254,-0.0575 -0.12176,-0.12177 z M 389.1908,119.96408 c 0.009,-0.2348 0.0575,-0.28255 0.12177,-0.12177 0.0583,0.14549 0.0511,0.31932 -0.0159,0.3863 -0.067,0.067 -0.11461,-0.0521 -0.10581,-0.26453 z"
             id="path33"
             transform="matrix(0.87518268,0,0,0.87518268,174.6887,-597.32)" /><path
             style="fill:#cbcbcb;fill-opacity:1;stroke-width:1.14262"
             d="m 388.78771,336.6252 c 0.009,-0.2348 0.0575,-0.28255 0.12177,-0.12177 0.0583,0.14549 0.0511,0.31931 -0.0159,0.38629 -0.067,0.067 -0.11461,-0.0521 -0.1058,-0.26452 z m 0.42647,-56.61742 c 0.005,-0.33255 0.0492,-0.44419 0.10043,-0.24809 0.0511,0.19609 0.0478,0.46817 -0.008,0.60463 -0.0552,0.13645 -0.097,-0.024 -0.0929,-0.35654 z m 0.20902,-31.34029 c 0,-0.38797 0.0415,-0.54668 0.0922,-0.3527 0.0507,0.19399 0.0507,0.51142 0,0.70541 -0.0507,0.19399 -0.0922,0.0353 -0.0922,-0.35271 z m -29.8223,-2.96625 c 0.30636,-0.0464 0.75984,-0.0451 1.00773,0.002 0.24788,0.0479 -0.002,0.0857 -0.55703,0.0842 -0.55425,-0.001 -0.75706,-0.0407 -0.4507,-0.087 z m -27.81325,-0.20154 c 0.30637,-0.0463 0.75984,-0.0451 1.00774,0.002 0.24789,0.0479 -0.002,0.0857 -0.55703,0.0842 -0.55425,-0.001 -0.75707,-0.0407 -0.45071,-0.087 z m -27.21137,-27.20292 c 0.19399,-0.0507 0.51143,-0.0507 0.70541,0 0.19398,0.0507 0.0353,0.0922 -0.3527,0.0922 -0.38798,0 -0.5467,-0.0415 -0.35271,-0.0922 z m 22.67619,-0.20515 c 0.25071,-0.0482 0.61349,-0.0464 0.80618,0.005 0.19269,0.0505 -0.0125,0.0899 -0.45583,0.0876 -0.4434,-0.002 -0.60106,-0.0435 -0.35035,-0.0918 z m -50.57761,-11.48322 c 0.14549,-0.0583 0.31933,-0.0511 0.3863,0.0159 0.067,0.0669 -0.0521,0.1146 -0.26453,0.1058 -0.23478,-0.009 -0.28254,-0.0575 -0.12177,-0.12177 z m 19.14681,-0.40309 c 0.14549,-0.0583 0.31931,-0.0511 0.38628,0.0159 0.067,0.067 -0.0521,0.11461 -0.26453,0.10581 -0.23478,-0.009 -0.28254,-0.0575 -0.12175,-0.12177 z m 40.16119,-3.80925 c 0.009,-0.23479 0.0575,-0.28255 0.12177,-0.12176 0.0583,0.14549 0.0511,0.31932 -0.0159,0.38629 -0.0669,0.067 -0.11461,-0.0521 -0.1058,-0.26453 z m 30.37963,-0.42319 c 0.14549,-0.0583 0.31932,-0.0511 0.3863,0.0159 0.067,0.067 -0.0521,0.1146 -0.26453,0.10581 -0.2348,-0.009 -0.28255,-0.0575 -0.12177,-0.12176 z"
             id="path32"
             transform="matrix(0.87518268,0,0,0.87518268,174.6887,-597.32)" /><path
             style="fill:#c7c7c7;fill-opacity:1;stroke-width:1.14262"
             d="m 388.80362,337.3474 c 0,-0.27713 0.0457,-0.3905 0.1017,-0.25194 0.0559,0.13857 0.0559,0.3653 0,0.50386 -0.0559,0.13857 -0.1017,0.0251 -0.1017,-0.25192 z m 0.41056,-56.33189 c 0.005,-0.33255 0.0492,-0.4442 0.10043,-0.2481 0.0511,0.19609 0.0478,0.46819 -0.008,0.60464 -0.0552,0.13645 -0.097,-0.024 -0.0929,-0.35654 z m 0.20902,-31.13874 c 0,-0.38797 0.0415,-0.54669 0.0922,-0.3527 0.0507,0.19398 0.0507,0.51141 0,0.70541 -0.0507,0.19398 -0.0922,0.0353 -0.0922,-0.35271 z m -115.17947,-4.77778 c 0.24941,-0.048 0.65754,-0.048 0.90695,0 0.24941,0.048 0.0454,0.0873 -0.45347,0.0873 -0.49883,0 -0.7029,-0.0393 -0.45348,-0.0873 z m 158.31376,-56.42936 c 0.194,-0.0507 0.51143,-0.0507 0.70542,0 0.19398,0.0507 0.0353,0.0922 -0.35271,0.0922 -0.38797,0 -0.54669,-0.0415 -0.35271,-0.0922 z m 85.69763,-100.684061 -0.7967,-0.856567 0.85657,0.796698 c 0.47112,0.438184 0.85657,0.823638 0.85657,0.856566 0,0.152485 -0.17552,-9.8e-5 -0.91644,-0.796697 z"
             id="path31"
             transform="matrix(0.87518268,0,0,0.87518268,174.6887,-597.32)" /><path
             style="fill:#c4c4c4;fill-opacity:1;stroke-width:1.14262"
             d="m 388.78771,338.03601 c 0.009,-0.2348 0.0575,-0.28255 0.12177,-0.12177 0.0583,0.14549 0.0511,0.31933 -0.0159,0.3863 -0.067,0.067 -0.11461,-0.0521 -0.1058,-0.26453 z m 0.41901,-56.11355 c 0,-0.27712 0.0457,-0.39049 0.10169,-0.25194 0.0559,0.13857 0.0559,0.36531 0,0.50387 -0.0559,0.13856 -0.10169,0.0251 -0.10169,-0.25193 z m 0.20154,-31.03797 c 0,-0.27712 0.0457,-0.39049 0.1017,-0.25193 0.0559,0.13856 0.0559,0.3653 0,0.50387 -0.0559,0.13855 -0.1017,0.0252 -0.1017,-0.25194 z m -31.62127,-5.18325 c 0.30636,-0.0464 0.75984,-0.0451 1.00773,0.002 0.24788,0.0479 -0.002,0.0857 -0.55702,0.0842 -0.55425,-0.001 -0.75707,-0.0407 -0.45071,-0.087 z m -27.81324,-0.20154 c 0.30637,-0.0463 0.75984,-0.0451 1.00773,0.002 0.24789,0.0479 -0.002,0.0857 -0.55703,0.0842 -0.55425,-0.001 -0.75706,-0.0407 -0.4507,-0.087 z m -27.91678,-0.19916 c 0.24941,-0.048 0.65754,-0.048 0.90695,0 0.24941,0.048 0.0454,0.0873 -0.45348,0.0873 -0.49882,0 -0.70288,-0.0393 -0.45347,-0.0873 z m -17.83676,-26.80221 c 0.19399,-0.0507 0.51143,-0.0507 0.70541,0 0.19399,0.0507 0.0353,0.0922 -0.3527,0.0922 -0.38798,0 -0.54669,-0.0415 -0.35271,-0.0922 z m 44.44308,-0.4067 c 0.2507,-0.0482 0.61348,-0.0464 0.80617,0.005 0.19271,0.0505 -0.0125,0.0899 -0.45582,0.0876 -0.44339,-0.002 -0.60106,-0.0435 -0.35035,-0.0918 z m -52.59307,-11.48322 c 0.14551,-0.0583 0.31933,-0.0511 0.3863,0.0159 0.067,0.0669 -0.0521,0.1146 -0.26453,0.1058 -0.23478,-0.009 -0.28254,-0.0575 -0.12177,-0.12177 z m 19.14681,-0.40309 c 0.14549,-0.0583 0.31932,-0.0511 0.38629,0.0159 0.067,0.067 -0.0521,0.11461 -0.26452,0.10581 -0.2348,-0.009 -0.28255,-0.0575 -0.12177,-0.12177 z m 40.76583,-1.7938 c 0.009,-0.23478 0.0575,-0.28254 0.12177,-0.12177 0.0583,0.14549 0.0511,0.31933 -0.0159,0.3863 -0.0669,0.067 -0.11461,-0.0521 -0.1058,-0.26453 z m 29.35931,-67.93665 c 0.13856,-0.0559 0.36529,-0.0559 0.50386,0 0.13856,0.0559 0.0253,0.1017 -0.25193,0.1017 -0.27713,0 -0.3905,-0.0457 -0.25193,-0.1017 z m 2.22959,-0.005 c 0.14549,-0.0583 0.31933,-0.0511 0.3863,0.0159 0.067,0.067 -0.0521,0.1146 -0.26453,0.1058 -0.23479,-0.009 -0.28255,-0.0575 -0.12177,-0.12176 z m 0.87579,-13.76894 c 0,-0.27713 0.0457,-0.3905 0.1017,-0.25193 0.0559,0.13856 0.0559,0.36529 0,0.50386 -0.0559,0.13856 -0.1017,0.0251 -0.1017,-0.25193 z m 20.74325,-4.14848 c 0.009,-0.23479 0.0575,-0.28254 0.12177,-0.12176 0.0583,0.14549 0.0511,0.31932 -0.0159,0.3863 -0.067,0.067 -0.11461,-0.0521 -0.10581,-0.26454 z"
             id="path30"
             transform="matrix(0.87518268,0,0,0.87518268,174.6887,-597.32)" /><path
             style="fill:#c0c0c0;fill-opacity:1;stroke-width:1.14262"
             d="m 388.81108,338.85898 c 0.005,-0.33255 0.0492,-0.44419 0.10044,-0.24809 0.0511,0.19609 0.0478,0.46818 -0.008,0.60463 -0.0552,0.13646 -0.097,-0.024 -0.0929,-0.35654 z m 0.4031,-56.02957 c 0.005,-0.33255 0.0492,-0.44419 0.10043,-0.24809 0.0511,0.19609 0.0478,0.46818 -0.008,0.60463 -0.0552,0.13646 -0.097,-0.024 -0.0929,-0.35654 z m 0.19408,-31.13873 c 0,-0.27713 0.0457,-0.3905 0.1017,-0.25194 0.0559,0.13857 0.0559,0.36531 0,0.50386 -0.0559,0.13857 -0.1017,0.0253 -0.1017,-0.25192 z m -117.16738,-6.58713 c 0.14549,-0.0583 0.31931,-0.0511 0.38628,0.0159 0.067,0.067 -0.0521,0.11462 -0.26453,0.10581 -0.23478,-0.009 -0.28254,-0.0575 -0.12175,-0.12177 z m 33.94776,-26.80677 c 0.19399,-0.0507 0.51143,-0.0507 0.70541,0 0.19398,0.0507 0.0353,0.0922 -0.3527,0.0922 -0.38798,0 -0.54669,-0.0415 -0.35271,-0.0922 z m 29.79422,-14.48989 c 0.009,-0.23479 0.0575,-0.28254 0.12177,-0.12176 0.0583,0.14549 0.0511,0.31931 -0.0159,0.38629 -0.0669,0.067 -0.11461,-0.0521 -0.1058,-0.26453 z m 32.46469,-81.91134 c 0,-0.27712 0.0457,-0.39049 0.1017,-0.25193 0.0559,0.13856 0.0559,0.3653 0,0.50387 -0.0559,0.13855 -0.1017,0.0251 -0.1017,-0.25194 z m -130.44,-33.708436 c 0.83519,-0.88986 1.01615,-1.049868 1.01615,-0.89853 0,0.03235 -0.4308,0.463148 -0.95735,0.957339 l -0.95733,0.898532 z"
             id="path29"
             transform="matrix(0.87518268,0,0,0.87518268,174.6887,-597.32)" /><path
             style="fill:#bcbcbc;fill-opacity:1;stroke-width:1.14262"
             d="m 389.20672,283.73637 c 0,-0.27712 0.0457,-0.39049 0.10169,-0.25194 0.0559,0.13857 0.0559,0.36531 0,0.50387 -0.0559,0.13856 -0.10169,0.0251 -0.10169,-0.25193 z m 0.20154,-31.23952 c 0,-0.27712 0.0457,-0.39049 0.1017,-0.25192 0.0559,0.13855 0.0559,0.36529 0,0.50386 -0.0559,0.13857 -0.1017,0.0251 -0.1017,-0.25194 z m -116.47074,-7.39529 c 0.19609,-0.0511 0.46818,-0.0478 0.60464,0.008 0.13645,0.0552 -0.024,0.097 -0.35654,0.0929 -0.33255,-0.005 -0.4442,-0.0493 -0.2481,-0.10044 z m 158.2404,-20.26678 -0.38394,-0.45348 0.45348,0.38394 c 0.42615,0.3608 0.54522,0.52301 0.38394,0.52301 -0.0383,0 -0.24231,-0.20406 -0.45348,-0.45347 z m -3.65628,-36.37238 c 0.30636,-0.0463 0.75983,-0.0451 1.00772,0.002 0.24789,0.0479 -0.002,0.0857 -0.55701,0.0842 -0.55425,-0.001 -0.75707,-0.0407 -0.45071,-0.087 z m -59.06661,-67.4738 c 0.005,-0.33255 0.0492,-0.44419 0.10043,-0.2481 0.0511,0.1961 0.0478,0.46819 -0.008,0.60464 -0.0552,0.13645 -0.097,-0.024 -0.0929,-0.35654 z m 0.0115,-4.83708 c 0.002,-0.44341 0.0435,-0.60107 0.0917,-0.35036 0.0482,0.25071 0.0464,0.61349 -0.005,0.80618 -0.0505,0.19269 -0.0899,-0.0124 -0.0876,-0.45582 z"
             id="path28"
             transform="matrix(0.87518268,0,0,0.87518268,174.6887,-597.32)" /><path
             style="fill:#b8b8b8;fill-opacity:1;stroke-width:1.14262"
             d="m 388.80362,340.16903 c 0,-0.27712 0.0457,-0.39049 0.1017,-0.25194 0.0559,0.13857 0.0559,0.36531 0,0.50387 -0.0559,0.13856 -0.1017,0.0251 -0.1017,-0.25193 z m 0.38718,-55.74405 c 0.009,-0.23479 0.0575,-0.28255 0.12177,-0.12177 0.0583,0.14549 0.0511,0.31932 -0.0159,0.38629 -0.067,0.067 -0.11461,-0.0521 -0.10581,-0.26452 z m 0.21746,-31.12194 c 0,-0.27713 0.0457,-0.3905 0.1017,-0.25194 0.0559,0.13857 0.0559,0.36531 0,0.50386 -0.0559,0.13857 -0.1017,0.0253 -0.1017,-0.25192 z m -33.63566,-7.59685 c 0.1961,-0.0511 0.46819,-0.0478 0.60464,0.008 0.13645,0.0552 -0.024,0.097 -0.35654,0.0929 -0.33255,-0.005 -0.4442,-0.0493 -0.2481,-0.10044 z m -27.61276,-0.20649 c 0.30637,-0.0463 0.75984,-0.0451 1.00773,0.002 0.24789,0.0479 -0.002,0.0857 -0.55702,0.0842 -0.55425,-0.001 -0.75707,-0.0407 -0.45071,-0.087 z m -27.91678,-0.19916 c 0.24941,-0.048 0.65755,-0.048 0.90696,0 0.24941,0.048 0.0454,0.0873 -0.45349,0.0873 -0.49882,0 -0.70288,-0.0393 -0.45347,-0.0873 z m -14.50891,-26.80582 c 0.25071,-0.0482 0.61349,-0.0464 0.80619,0.005 0.19269,0.0504 -0.0125,0.0899 -0.45583,0.0876 -0.4434,-0.002 -0.60106,-0.0435 -0.35036,-0.0917 z m 44.5415,-0.40309 c 0.2507,-0.0482 0.61348,-0.0464 0.80617,0.005 0.19271,0.0505 -0.0125,0.0899 -0.45582,0.0876 -0.44339,-0.002 -0.60105,-0.0435 -0.35035,-0.0918 z M 275.4656,206.60841 c 0.14549,-0.0583 0.31931,-0.0511 0.38629,0.0159 0.067,0.0669 -0.0521,0.1146 -0.26452,0.1058 -0.2348,-0.009 -0.28255,-0.0575 -0.12177,-0.12177 z m 9.87571,-0.20154 c 0.14549,-0.0583 0.31932,-0.0511 0.38629,0.0159 0.067,0.067 -0.0521,0.1146 -0.26453,0.10581 -0.23478,-0.009 -0.28254,-0.0575 -0.12176,-0.12177 z m 9.27108,-0.20155 c 0.14549,-0.0583 0.31932,-0.0511 0.38629,0.0159 0.067,0.067 -0.0521,0.11461 -0.26452,0.10581 -0.23479,-0.009 -0.28255,-0.0575 -0.12177,-0.12177 z m 73.83516,-88.9453 c 0,-0.27713 0.0457,-0.3905 0.1017,-0.25194 0.0559,0.13857 0.0559,0.3653 0,0.50386 -0.0559,0.13857 -0.1017,0.0251 -0.1017,-0.25192 z"
             id="path27"
             transform="matrix(0.87518268,0,0,0.87518268,174.6887,-597.32)" /><path
             style="fill:#b4b4b4;fill-opacity:1;stroke-width:1.14262"
             d="m 388.78771,340.85764 c 0.009,-0.23479 0.0575,-0.28255 0.12177,-0.12177 0.0583,0.14549 0.0511,0.31933 -0.0159,0.3863 -0.067,0.067 -0.11461,-0.0521 -0.1058,-0.26453 z m 0.42647,-55.60968 c 0.005,-0.33255 0.0492,-0.44419 0.10043,-0.2481 0.0511,0.1961 0.0478,0.46818 -0.008,0.60463 -0.0552,0.13646 -0.097,-0.024 -0.0929,-0.35653 z m 0.19408,-31.13875 c 0,-0.27711 0.0457,-0.39049 0.1017,-0.25192 0.0559,0.13855 0.0559,0.3653 0,0.50386 -0.0559,0.13857 -0.1017,0.0252 -0.1017,-0.25194 z m -23.79825,-4.14847 c 0.009,-0.23478 0.0575,-0.28254 0.12177,-0.12177 0.0583,0.14549 0.0511,0.31933 -0.0159,0.3863 -0.067,0.067 -0.11461,-0.0521 -0.10581,-0.26453 z m -94.9941,-4.86175 c 0.24941,-0.048 0.65754,-0.048 0.90696,0 0.24941,0.048 0.0454,0.0873 -0.45348,0.0873 -0.49883,0 -0.70289,-0.0393 -0.45348,-0.0873 z m 36.98739,-26.80295 c 0.19609,-0.0511 0.46817,-0.0478 0.60464,0.008 0.13645,0.0552 -0.024,0.097 -0.35655,0.0929 -0.33254,-0.005 -0.44419,-0.0492 -0.24809,-0.10043 z m 60.86326,-99.32289 c 0.002,-0.4434 0.0435,-0.60106 0.0917,-0.35035 0.0482,0.2507 0.0464,0.61348 -0.005,0.80617 -0.0505,0.1927 -0.0899,-0.0125 -0.0876,-0.45582 z"
             id="path26"
             transform="matrix(0.87518268,0,0,0.87518268,174.6887,-597.32)" /><path
             style="fill:#b1b1b1;fill-opacity:1;stroke-width:1.14262"
             d="m 389.1908,286.03734 c 0.009,-0.23479 0.0575,-0.28255 0.12177,-0.12176 0.0583,0.14549 0.0511,0.31932 -0.0159,0.38628 -0.067,0.067 -0.11461,-0.0521 -0.10581,-0.26452 z m 0.21746,-31.12194 c 0,-0.27713 0.0457,-0.39049 0.1017,-0.25194 0.0559,0.13857 0.0559,0.36531 0,0.50387 -0.0559,0.13856 -0.1017,0.0251 -0.1017,-0.25193 z m 37.01471,-66.44606 c 0.14549,-0.0583 0.31931,-0.0511 0.38629,0.0159 0.067,0.0669 -0.0521,0.1146 -0.26452,0.1058 -0.2348,-0.009 -0.28255,-0.0575 -0.12177,-0.12177 z M 405.2728,173.13843 c -0.2507,-0.31967 -0.24357,-0.3268 0.0761,-0.0761 0.19399,0.15214 0.3527,0.31085 0.3527,0.3527 0,0.16588 -0.16549,0.0591 -0.42879,-0.2766 z"
             id="path25"
             transform="matrix(0.87518268,0,0,0.87518268,174.6887,-597.32)" /><path
             style="fill:#adadad;fill-opacity:1;stroke-width:1.14262"
             d="m 388.78771,342.26845 c 0.009,-0.23478 0.0575,-0.28254 0.12177,-0.12175 0.0583,0.14549 0.0511,0.31931 -0.0159,0.38628 -0.067,0.067 -0.11461,-0.0521 -0.1058,-0.26453 z m -22.15406,-16.81222 c 0,-0.27712 0.0457,-0.39049 0.10169,-0.25194 0.0559,0.13857 0.0559,0.36531 0,0.50387 -0.0559,0.13856 -0.10169,0.0252 -0.10169,-0.25193 z m -0.0159,-4.55157 c 0.009,-0.23478 0.0575,-0.28254 0.12176,-0.12177 0.0583,0.14549 0.0511,0.31933 -0.0159,0.3863 -0.067,0.067 -0.11461,-0.0521 -0.10581,-0.26453 z m 22.58898,-34.14512 c 0,-0.27712 0.0457,-0.39049 0.10169,-0.25192 0.0559,0.13855 0.0559,0.36529 0,0.50386 -0.0559,0.13856 -0.10169,0.0252 -0.10169,-0.25194 z m -35.04754,-41.0583 c 0.30636,-0.0464 0.75984,-0.0451 1.00773,0.002 0.24788,0.0479 -0.002,0.0857 -0.55702,0.0842 -0.55425,-0.001 -0.75707,-0.0407 -0.45071,-0.087 z m -55.82802,-0.40309 c 0.30636,-0.0463 0.75984,-0.0451 1.00772,0.002 0.24789,0.0479 -0.002,0.0857 -0.55702,0.0842 -0.55425,-0.001 -0.75706,-0.0407 -0.4507,-0.087 z m -29.82764,-0.19659 c 0.1961,-0.0511 0.46819,-0.0478 0.60464,0.008 0.13645,0.0552 -0.024,0.097 -0.35654,0.0929 -0.33255,-0.005 -0.44419,-0.0493 -0.2481,-0.10044 z m 25.50424,-38.89624 c 0.14549,-0.0583 0.31932,-0.0511 0.38629,0.0159 0.067,0.067 -0.0521,0.11461 -0.26453,0.10581 -0.23479,-0.009 -0.28255,-0.0575 -0.12176,-0.12177 z"
             id="path24"
             transform="matrix(0.87518268,0,0,0.87518268,174.6887,-597.32)" /><path
             style="fill:#a9a9a9;fill-opacity:1;stroke-width:1.14262"
             d="m 388.81108,343.09144 c 0.005,-0.33255 0.0492,-0.4442 0.10044,-0.2481 0.0511,0.19609 0.0478,0.46819 -0.008,0.60464 -0.0552,0.13645 -0.097,-0.024 -0.0929,-0.35654 z m -22.17743,-21.46457 c 0,-0.27712 0.0457,-0.39049 0.10169,-0.25193 0.0559,0.13856 0.0559,0.3653 0,0.50386 -0.0559,0.13857 -0.10169,0.0251 -0.10169,-0.25193 z m 22.55715,-34.17871 c 0.009,-0.23479 0.0575,-0.28254 0.12177,-0.12177 0.0583,0.14549 0.0511,0.31932 -0.0159,0.3863 -0.067,0.067 -0.11461,-0.0521 -0.10581,-0.26453 z m 0.21746,-31.52504 c 0,-0.27712 0.0457,-0.39049 0.1017,-0.25192 0.0559,0.13855 0.0559,0.36529 0,0.50386 -0.0559,0.13856 -0.1017,0.0253 -0.1017,-0.25194 z m -62.86355,-10.41773 c 0.19399,-0.0507 0.51142,-0.0507 0.70541,0 0.19398,0.0507 0.0353,0.0922 -0.3527,0.0922 -0.38798,0 -0.5467,-0.0415 -0.35271,-0.0922 z m -57.12547,-0.40184 c 0.14549,-0.0583 0.31932,-0.0511 0.38629,0.0159 0.067,0.067 -0.0521,0.11462 -0.26453,0.10581 -0.23478,-0.009 -0.28254,-0.0575 -0.12176,-0.12177 z m 17.93752,-26.60397 c 0.14549,-0.0583 0.31933,-0.0511 0.3863,0.0159 0.0669,0.067 -0.0521,0.1146 -0.26453,0.1058 -0.23479,-0.009 -0.28255,-0.0575 -0.12177,-0.12176 z m 21.75663,-0.20641 c 0.25072,-0.0482 0.6135,-0.0464 0.80619,0.005 0.19269,0.0504 -0.0125,0.0899 -0.45583,0.0876 -0.4434,-0.002 -0.60106,-0.0435 -0.35036,-0.0917 z M 275.0625,71.77466 c 0.14549,-0.05822 0.31933,-0.05106 0.3863,0.01592 0.067,0.06697 -0.0521,0.114607 -0.26453,0.105853 -0.23478,-0.0097 -0.28254,-0.05743 -0.12177,-0.121767 z"
             id="path23"
             transform="matrix(0.87518268,0,0,0.87518268,174.6887,-597.32)" /><path
             style="fill:#a5a5a5;fill-opacity:1;stroke-width:1.14262"
             d="m 388.78771,343.88082 c 0.009,-0.23479 0.0575,-0.28254 0.12177,-0.12176 0.0583,0.14549 0.0511,0.31931 -0.0159,0.38629 -0.067,0.067 -0.11461,-0.0521 -0.1058,-0.26453 z m -22.15406,-16.40914 c 0,-0.27712 0.0457,-0.39049 0.10169,-0.25194 0.0559,0.13857 0.0559,0.36531 0,0.50388 -0.0559,0.13855 -0.10169,0.0251 -0.10169,-0.25194 z m 0,-5.03863 c 0,-0.27713 0.0457,-0.3905 0.10169,-0.25193 0.0559,0.13856 0.0559,0.3653 0,0.50386 -0.0559,0.13856 -0.10169,0.0251 -0.10169,-0.25193 z m 22.55715,-34.38026 c 0.009,-0.23479 0.0575,-0.28255 0.12177,-0.12177 0.0583,0.14549 0.0511,0.31933 -0.0159,0.3863 -0.067,0.067 -0.11461,-0.0521 -0.10581,-0.26453 z m 0.22492,-31.22271 c 0.005,-0.33255 0.0492,-0.4442 0.10044,-0.2481 0.0511,0.19609 0.0478,0.46819 -0.008,0.60464 -0.0552,0.13645 -0.097,-0.024 -0.0929,-0.35654 z m -124.14076,-38.1302 c 0.19399,-0.0507 0.51142,-0.0507 0.70542,0 0.19398,0.0507 0.0353,0.0922 -0.35272,0.0922 -0.38796,0 -0.54668,-0.0415 -0.3527,-0.0922 z M 480.63863,71.77466 c 0.14549,-0.05822 0.31933,-0.05106 0.3863,0.01592 0.067,0.06697 -0.0521,0.114607 -0.26453,0.105853 -0.2348,-0.0097 -0.28255,-0.05743 -0.12177,-0.121767 z"
             id="path22"
             transform="matrix(0.87518268,0,0,0.87518268,174.6887,-597.32)" /><path
             style="fill:#a1a1a1;fill-opacity:1;stroke-width:1.14262"
             d="m 388.80362,344.60303 c 0,-0.27713 0.0457,-0.3905 0.1017,-0.25194 0.0559,0.13857 0.0559,0.3653 0,0.50386 -0.0559,0.13857 -0.1017,0.0251 -0.1017,-0.25192 z m -22.16997,-16.32516 c 0,-0.27714 0.0457,-0.39051 0.10169,-0.25194 0.0559,0.13856 0.0559,0.36529 0,0.50386 -0.0559,0.13857 -0.10169,0.0251 -0.10169,-0.25192 z m -41.3743,-20.3057 c -0.2507,-0.31966 -0.24357,-0.32679 0.0761,-0.0761 0.33572,0.26329 0.44249,0.4288 0.27661,0.4288 -0.0418,0 -0.20057,-0.15872 -0.3527,-0.35272 z m 104.62767,-2.56969 c 0.26035,-0.27713 0.51871,-0.50387 0.57413,-0.50387 0.0554,0 -0.1122,0.22674 -0.37258,0.50387 -0.26035,0.27712 -0.5187,0.50386 -0.57413,0.50386 -0.0554,0 0.1122,-0.22674 0.37258,-0.50386 z m -40.6803,-16.62749 c 0,-0.27712 0.0457,-0.39049 0.10169,-0.25192 0.0559,0.13855 0.0559,0.36529 0,0.50386 -0.0559,0.13857 -0.10169,0.0253 -0.10169,-0.25194 z m 56.64914,-25.79779 c 0,-0.38796 0.0415,-0.54668 0.0922,-0.3527 0.0507,0.19399 0.0507,0.51142 0,0.70542 -0.0507,0.19398 -0.0922,0.0353 -0.0922,-0.35272 z m -56.46351,-5.35774 c 0.009,-0.23478 0.0575,-0.28254 0.12176,-0.12176 0.0583,0.14549 0.0511,0.31932 -0.0159,0.38629 -0.067,0.067 -0.1146,-0.0521 -0.1058,-0.26453 z m -92.8751,-12.32131 c 0.30636,-0.0463 0.75984,-0.0451 1.00772,0.002 0.24789,0.0479 -0.002,0.0857 -0.55702,0.0842 -0.55425,-0.001 -0.75706,-0.0407 -0.4507,-0.087 z m -29.82764,-0.19659 c 0.1961,-0.0511 0.46819,-0.0478 0.60464,0.008 0.13645,0.0552 -0.024,0.097 -0.35654,0.0929 -0.33255,-0.005 -0.44419,-0.0493 -0.2481,-0.10044 z"
             id="path21"
             transform="matrix(0.87518268,0,0,0.87518268,174.6887,-597.32)" /><path
             style="fill:#9d9d9d;fill-opacity:1;stroke-width:1.14262"
             d="m 517.5592,369.31699 c 0,-0.0418 0.15872,-0.20057 0.3527,-0.35271 0.31966,-0.25069 0.32679,-0.24356 0.0761,0.0761 -0.2633,0.33573 -0.4288,0.44249 -0.4288,0.27661 z M 388.78771,345.29164 c 0.009,-0.2348 0.0575,-0.28255 0.12177,-0.12177 0.0583,0.14549 0.0511,0.31933 -0.0159,0.3863 -0.067,0.0669 -0.11461,-0.0521 -0.1058,-0.26453 z m -22.16997,-21.96843 c 0.009,-0.23479 0.0575,-0.28255 0.12176,-0.12177 0.0583,0.14549 0.0511,0.31933 -0.0159,0.3863 -0.067,0.067 -0.11461,-0.0521 -0.10581,-0.26453 z M 389.1908,289.4636 c 0.009,-0.23478 0.0575,-0.28253 0.12177,-0.12175 0.0583,0.14549 0.0511,0.31931 -0.0159,0.38629 -0.067,0.067 -0.11461,-0.0521 -0.10581,-0.26454 z m 0.20155,-31.2395 c 0.009,-0.23479 0.0575,-0.28254 0.12176,-0.12176 0.0583,0.14548 0.0511,0.31931 -0.0159,0.38629 -0.067,0.067 -0.1146,-0.0521 -0.1058,-0.26453 z m -37.15062,-12.52047 c 0.24941,-0.048 0.65754,-0.048 0.90695,0 0.24941,0.048 0.0454,0.0873 -0.45347,0.0873 -0.49883,0 -0.7029,-0.0393 -0.45348,-0.0873 z m -27.91125,-0.20393 c 0.30637,-0.0463 0.75984,-0.0451 1.00773,0.002 0.24789,0.0479 -0.002,0.0857 -0.55702,0.0842 -0.55424,-0.001 -0.75707,-0.0407 -0.45071,-0.087 z m -57.64087,-26.80057 c 0.1961,-0.0511 0.46819,-0.0478 0.60464,0.008 0.13645,0.0552 -0.024,0.097 -0.35654,0.0929 -0.33255,-0.005 -0.44419,-0.0493 -0.2481,-0.10044 z m 22.06773,-0.20441 c 0.2507,-0.0482 0.61348,-0.0464 0.80617,0.005 0.1927,0.0504 -0.0125,0.0899 -0.45582,0.0876 -0.4434,-0.002 -0.60107,-0.0435 -0.35035,-0.0917 z m 21.8653,-0.19794 c 0.19399,-0.0507 0.51142,-0.0507 0.70541,0 0.19398,0.0507 0.0353,0.0922 -0.3527,0.0922 -0.38798,0 -0.5467,-0.0415 -0.35271,-0.0922 z m -6.13453,-12.29301 c 0.14549,-0.0583 0.31931,-0.0511 0.38629,0.0159 0.067,0.067 -0.0521,0.1146 -0.26452,0.1058 -0.2348,-0.009 -0.28255,-0.0575 -0.12177,-0.12177 z"
             id="path20"
             transform="matrix(0.87518268,0,0,0.87518268,174.6887,-597.32)" /><path
             style="fill:#9a9a9a;fill-opacity:1;stroke-width:1.14262"
             d="m 518.16384,368.72539 c 0,-0.0347 0.29475,-0.32946 0.65501,-0.65503 l 0.65502,-0.59196 -0.59196,0.65503 c -0.55178,0.61057 -0.71807,0.74766 -0.71807,0.59196 z M 388.78771,345.89627 c 0.009,-0.23479 0.0575,-0.28255 0.12177,-0.12176 0.0583,0.14549 0.0511,0.31932 -0.0159,0.38628 -0.067,0.067 -0.11461,-0.0521 -0.1058,-0.26452 z m -22.15406,-16.00604 c 0,-0.27713 0.0457,-0.39051 0.10169,-0.25194 0.0559,0.13857 0.0559,0.36531 0,0.50386 -0.0559,0.13857 -0.10169,0.0251 -0.10169,-0.25192 z m 0.008,-5.74405 c 0.005,-0.33255 0.0493,-0.44419 0.10044,-0.2481 0.0511,0.1961 0.0478,0.46819 -0.008,0.60464 -0.0552,0.13645 -0.097,-0.024 -0.0929,-0.35654 z m 22.54968,-34.07794 c 0.009,-0.23478 0.0575,-0.28254 0.12177,-0.12177 0.0583,0.14549 0.0511,0.31933 -0.0159,0.3863 -0.067,0.067 -0.1146,-0.0521 -0.10581,-0.26453 z M 365.409,265.47973 c 0.009,-0.23479 0.0575,-0.28254 0.12177,-0.12177 0.0583,0.14549 0.0511,0.31932 -0.0159,0.3863 -0.0669,0.067 -0.1146,-0.0521 -0.1058,-0.26453 z m 23.98388,-6.651 c 0.009,-0.23478 0.0575,-0.28254 0.12177,-0.12177 0.0583,0.1455 0.0511,0.31933 -0.0159,0.3863 -0.067,0.067 -0.11461,-0.0521 -0.10581,-0.26453 z M 265.37574,245.10775 c 0.13856,-0.0559 0.36529,-0.0559 0.50386,0 0.13856,0.0559 0.0251,0.10169 -0.25194,0.10169 -0.27712,0 -0.39049,-0.0457 -0.25192,-0.10169 z M 389.39235,133.8707 c 0.009,-0.23479 0.0575,-0.28255 0.12176,-0.12177 0.0583,0.14549 0.0511,0.31933 -0.0159,0.3863 -0.067,0.0669 -0.1146,-0.0521 -0.1058,-0.26453 z m -167.68563,-7.86027 c 0.009,-0.23479 0.0575,-0.28255 0.12177,-0.12176 0.0583,0.14549 0.0511,0.31932 -0.0159,0.38629 -0.0669,0.067 -0.1146,-0.0521 -0.1058,-0.26453 z"
             id="path19"
             transform="matrix(0.87518268,0,0,0.87518268,174.6887,-597.32)" /><path
             style="fill:#969696;fill-opacity:1;stroke-width:1.14262"
             d="m 238.59489,369.04038 c -0.25069,-0.31966 -0.24356,-0.32679 0.0761,-0.0761 0.33573,0.2633 0.44249,0.42881 0.27661,0.42881 -0.0418,0 -0.20057,-0.15872 -0.35271,-0.35271 z m -1.20926,-1.20926 c -0.25069,-0.31967 -0.24357,-0.3268 0.0761,-0.0761 0.33572,0.26329 0.44249,0.4288 0.2766,0.4288 -0.0418,0 -0.20056,-0.15872 -0.3527,-0.3527 z m 151.40208,-21.33021 c 0.009,-0.23479 0.0575,-0.28255 0.12177,-0.12177 0.0583,0.14549 0.0511,0.31933 -0.0159,0.38629 -0.067,0.067 -0.11461,-0.0521 -0.1058,-0.26452 z M 366.63365,330.6964 c 0,-0.27712 0.0457,-0.39049 0.10169,-0.25192 0.0559,0.13855 0.0559,0.36529 0,0.50386 -0.0559,0.13856 -0.10169,0.0251 -0.10169,-0.25194 z m 22.55715,-40.02352 c 0.009,-0.23479 0.0575,-0.28254 0.12177,-0.12177 0.0583,0.14549 0.0511,0.31933 -0.0159,0.3863 -0.067,0.067 -0.11461,-0.0521 -0.10581,-0.26453 z m -23.98388,-7.25562 c 0.009,-0.2348 0.0575,-0.28255 0.12176,-0.12177 0.0583,0.14549 0.0511,0.31932 -0.0159,0.38629 -0.067,0.067 -0.11461,-0.0521 -0.1058,-0.26452 z m 24.18543,-23.98389 c 0.009,-0.23478 0.0575,-0.28255 0.12176,-0.12177 0.0583,0.14549 0.0511,0.31933 -0.0159,0.3863 -0.067,0.067 -0.1146,-0.0521 -0.1058,-0.26453 z m -94.68901,-14.13522 c 0.30636,-0.0463 0.75984,-0.0451 1.00772,0.002 0.24789,0.0479 -0.002,0.0857 -0.55701,0.0842 -0.55425,-0.001 -0.75707,-0.0407 -0.45071,-0.087 z m -30.72582,-38.48819 c 0.14548,-0.0583 0.31932,-0.0511 0.38629,0.0159 0.067,0.067 -0.0521,0.11462 -0.26453,0.10581 -0.23478,-0.009 -0.28254,-0.0575 -0.12176,-0.12177 z"
             id="path18"
             transform="matrix(0.87518268,0,0,0.87518268,174.6887,-597.32)" /><path
             style="fill:#929292;fill-opacity:1;stroke-width:1.14262"
             d="m 388.78771,347.50864 c 0.009,-0.2348 0.0575,-0.28255 0.12177,-0.12177 0.0583,0.14549 0.0511,0.31932 -0.0159,0.3863 -0.067,0.067 -0.11461,-0.0521 -0.1058,-0.26453 z m 7.80656,-53.83269 c 0.14549,-0.0583 0.31933,-0.0511 0.3863,0.0159 0.067,0.067 -0.0521,0.1146 -0.26453,0.10581 -0.23479,-0.009 -0.28255,-0.0575 -0.12177,-0.12177 z m -7.40347,-2.39844 c 0.009,-0.23478 0.0575,-0.28253 0.12177,-0.12176 0.0583,0.14549 0.0511,0.31932 -0.0159,0.3863 -0.067,0.067 -0.11461,-0.0521 -0.10581,-0.26454 z m 0.20155,-31.2395 c 0.009,-0.2348 0.0575,-0.28255 0.12176,-0.12177 0.0583,0.14549 0.0511,0.31932 -0.0159,0.3863 -0.067,0.067 -0.1146,-0.0521 -0.1058,-0.26453 z m -39.06253,-14.33677 c 0.30636,-0.0464 0.75984,-0.0451 1.00773,0.002 0.24788,0.0479 -0.002,0.0857 -0.55703,0.0842 -0.55425,-0.001 -0.75706,-0.0407 -0.4507,-0.087 z m -27.81325,-0.20154 c 0.30637,-0.0463 0.75984,-0.0451 1.00773,0.002 0.2479,0.0479 -0.002,0.0857 -0.55702,0.0842 -0.55424,-0.001 -0.75707,-0.0407 -0.45071,-0.087 z m -58.75085,-26.80345 c 0.25071,-0.0482 0.61349,-0.0464 0.80619,0.005 0.19269,0.0505 -0.0125,0.0899 -0.45583,0.0876 -0.4434,-0.002 -0.60106,-0.0435 -0.35036,-0.0917 z m 4.63555,0 c 0.2507,-0.0482 0.61348,-0.0464 0.80617,0.005 0.1927,0.0505 -0.0125,0.0899 -0.45582,0.0876 -0.4434,-0.002 -0.60106,-0.0435 -0.35035,-0.0917 z m 43.73531,-0.40308 c 0.2507,-0.0482 0.61348,-0.0464 0.80617,0.005 0.19271,0.0504 -0.0125,0.0899 -0.45582,0.0876 -0.44339,-0.002 -0.60105,-0.0435 -0.35035,-0.0917 z"
             id="path17"
             transform="matrix(0.87518268,0,0,0.87518268,174.6887,-597.32)" /><path
             style="fill:#8e8e8e;fill-opacity:1;stroke-width:1.14262"
             d="m 366.64112,332.20799 c 0.005,-0.33254 0.0492,-0.44419 0.10044,-0.24809 0.0511,0.19609 0.0478,0.46818 -0.008,0.60464 -0.0552,0.13645 -0.097,-0.024 -0.0929,-0.35655 z m 22.54968,-40.32584 c 0.009,-0.23478 0.0575,-0.28255 0.12177,-0.12177 0.0583,0.14549 0.0511,0.31933 -0.0159,0.3863 -0.067,0.067 -0.11461,-0.0521 -0.10581,-0.26453 z M 263.15874,245.09899 c 0.24941,-0.048 0.65754,-0.048 0.90695,0 0.24941,0.048 0.0454,0.0873 -0.45347,0.0873 -0.49883,0 -0.70289,-0.0393 -0.45348,-0.0873 z m 27.62429,-26.59941 c 0.14549,-0.0583 0.31932,-0.0511 0.38629,0.0159 0.067,0.067 -0.0521,0.1146 -0.26452,0.1058 -0.23479,-0.009 -0.28255,-0.0575 -0.12177,-0.12176 z m 75.26092,-17.5983 c 0,-0.38797 0.0415,-0.54669 0.0922,-0.3527 0.0507,0.19398 0.0507,0.51141 0,0.70541 -0.0507,0.19398 -0.0922,0.0353 -0.0922,-0.35271 z m -0.0308,-35.38798 c 0.009,-0.23479 0.0575,-0.28254 0.12177,-0.12177 0.0583,0.14549 0.0511,0.31932 -0.0159,0.3863 -0.067,0.067 -0.11461,-0.0521 -0.10581,-0.26453 z m 23.37925,-32.85187 c 0.009,-0.2348 0.0575,-0.28255 0.12176,-0.12177 0.0583,0.14549 0.0511,0.31932 -0.0159,0.3863 -0.067,0.067 -0.1146,-0.0521 -0.1058,-0.26453 z M 221.70672,125.4058 c 0.009,-0.23479 0.0575,-0.28254 0.12177,-0.12177 0.0583,0.14549 0.0511,0.31932 -0.0159,0.3863 -0.0669,0.067 -0.1146,-0.0521 -0.1058,-0.26453 z"
             id="path16"
             transform="matrix(0.87518268,0,0,0.87518268,174.6887,-597.32)" /><path
             style="fill:#8a8a8a;fill-opacity:1;stroke-width:1.14262"
             d="m 366.64112,333.21571 c 0.005,-0.33254 0.0492,-0.44419 0.10044,-0.24809 0.0511,0.19609 0.0478,0.46819 -0.008,0.60464 -0.0552,0.13645 -0.097,-0.024 -0.0929,-0.35655 z m -73.85523,-87.91517 c 0.24941,-0.048 0.65754,-0.048 0.90695,0 0.24941,0.048 0.0454,0.0873 -0.45348,0.0873 -0.49882,0 -0.70288,-0.0393 -0.45347,-0.0873 z m 73.26213,-45.7093 c 0.002,-0.44341 0.0435,-0.60107 0.0917,-0.35036 0.0482,0.25071 0.0464,0.61349 -0.005,0.80618 -0.0505,0.19269 -0.0899,-0.0125 -0.0876,-0.45582 z m -0.019,-33.35573 c 0,-0.27714 0.0457,-0.39051 0.1017,-0.25194 0.0559,0.13856 0.0559,0.36531 0,0.50386 -0.0559,0.13857 -0.1017,0.0251 -0.1017,-0.25192 z"
             id="path15"
             transform="matrix(0.87518268,0,0,0.87518268,174.6887,-597.32)" /><path
             style="fill:#878787;fill-opacity:1;stroke-width:1.14262"
             d="m 221.70672,330.57884 c 0.009,-0.23479 0.0575,-0.28255 0.12177,-0.12177 0.0583,0.14549 0.0511,0.31933 -0.0159,0.38629 -0.0669,0.067 -0.1146,-0.0521 -0.1058,-0.26452 z m 173.66803,-36.90776 c 0.25071,-0.0482 0.61349,-0.0464 0.80619,0.005 0.19269,0.0505 -0.0125,0.0899 -0.45584,0.0876 -0.44339,-0.002 -0.60105,-0.0435 -0.35035,-0.0917 z m -5.96649,-32.10469 c 0,-0.27712 0.0457,-0.39049 0.1017,-0.25193 0.0559,0.13856 0.0559,0.3653 0,0.50387 -0.0559,0.13856 -0.1017,0.0251 -0.1017,-0.25194 z m -40.89235,-15.86515 c 0.30636,-0.0464 0.75984,-0.0451 1.00773,0.002 0.24788,0.0479 -0.002,0.0857 -0.55702,0.0842 -0.55425,-0.001 -0.75707,-0.0407 -0.45071,-0.087 z m -27.81324,-0.20154 c 0.30637,-0.0463 0.75984,-0.0451 1.00773,0.002 0.24789,0.0479 -0.002,0.0857 -0.55703,0.0842 -0.55424,-0.001 -0.75706,-0.0407 -0.4507,-0.087 z m -51.08189,-26.79858 c 0.14549,-0.0583 0.31933,-0.0511 0.3863,0.0159 0.067,0.067 -0.0521,0.11461 -0.26453,0.10581 -0.23478,-0.009 -0.28255,-0.0575 -0.12177,-0.12177 z m 0.80619,0 c 0.14549,-0.0583 0.31931,-0.0511 0.38628,0.0159 0.067,0.067 -0.0521,0.11461 -0.26452,0.10581 -0.23479,-0.009 -0.28255,-0.0575 -0.12176,-0.12177 z m 43.12042,-0.40795 c 0.25071,-0.0482 0.61349,-0.0464 0.80619,0.005 0.19269,0.0504 -0.0125,0.0899 -0.45584,0.0876 -0.44339,-0.002 -0.60105,-0.0435 -0.35035,-0.0917 z M 272.8455,206.60841 c 0.14549,-0.0583 0.31933,-0.0511 0.3863,0.0159 0.067,0.0669 -0.0521,0.1146 -0.26453,0.1058 -0.23478,-0.009 -0.28254,-0.0575 -0.12177,-0.12177 z m 93.19845,-8.32722 c 0,-0.38797 0.0415,-0.54668 0.0922,-0.3527 0.0507,0.19398 0.0507,0.51142 0,0.70541 -0.0507,0.19399 -0.0922,0.0353 -0.0922,-0.35271 z m -0.0308,-31.35707 c 0.009,-0.23479 0.0575,-0.28255 0.12177,-0.12177 0.0583,0.14549 0.0511,0.31932 -0.0159,0.38629 -0.067,0.067 -0.11461,-0.0521 -0.10581,-0.26452 z M 389.3924,131.6537 c 0.009,-0.23479 0.0575,-0.28255 0.12176,-0.12177 0.0583,0.14549 0.0511,0.31933 -0.0159,0.3863 -0.067,0.067 -0.1146,-0.0521 -0.1058,-0.26453 z"
             id="path14"
             transform="matrix(0.87518268,0,0,0.87518268,174.6887,-597.32)" /><path
             style="fill:#838383;fill-opacity:1;stroke-width:1.14262"
             d="m 366.64112,335.02962 c 0.005,-0.33255 0.0492,-0.44419 0.10044,-0.2481 0.0511,0.1961 0.0478,0.46819 -0.008,0.60464 -0.0552,0.13646 -0.097,-0.024 -0.0929,-0.35654 z m -1.23266,-71.96843 c 0.009,-0.23479 0.0575,-0.28255 0.12177,-0.12177 0.0583,0.14549 0.0511,0.31932 -0.0159,0.38629 -0.067,0.067 -0.11461,-0.0521 -0.10581,-0.26452 z m -73.62795,-44.56647 c 0.2507,-0.0482 0.61348,-0.0464 0.80619,0.005 0.19269,0.0504 -0.0125,0.0899 -0.45584,0.0876 -0.44339,-0.002 -0.60105,-0.0435 -0.35035,-0.0917 z M 383.582,202.16774 c 0.30484,-0.0462 0.80367,-0.0462 1.1085,0 0.30484,0.0462 0.0554,0.084 -0.55425,0.084 -0.60966,0 -0.85907,-0.0378 -0.55425,-0.084 z m -17.53805,-5.09582 c 0,-0.38797 0.0415,-0.54669 0.0922,-0.3527 0.0507,0.19398 0.0507,0.51141 0,0.70541 -0.0507,0.19398 -0.0922,0.0353 -0.0922,-0.35271 z m -0.008,-29.32483 c 0.005,-0.33255 0.0492,-0.4442 0.10044,-0.2481 0.0511,0.1961 0.0478,0.46819 -0.008,0.60464 -0.0552,0.13645 -0.097,-0.024 -0.0929,-0.35654 z"
             id="path13"
             transform="matrix(0.87518268,0,0,0.87518268,174.6887,-597.32)" /><path
             style="fill:#7f7f7f;fill-opacity:1;stroke-width:1.14262"
             d="m 366.61774,335.81901 c 0.009,-0.23478 0.0575,-0.28255 0.12176,-0.12177 0.0583,0.14549 0.0511,0.31933 -0.0159,0.3863 -0.067,0.067 -0.11461,-0.0521 -0.10581,-0.26453 z m -1.39491,-54.90427 c 0,-0.27713 0.0457,-0.3905 0.1017,-0.25194 0.0559,0.13857 0.0559,0.3653 0,0.50386 -0.0559,0.13857 -0.1017,0.0253 -0.1017,-0.25192 z m -35.85371,-9.8188 c 0.30636,-0.0463 0.75983,-0.0451 1.00772,0.002 0.24789,0.0479 -0.002,0.0857 -0.55702,0.0842 -0.55425,-10e-4 -0.75706,-0.0407 -0.4507,-0.087 z m -38.39714,-25.7954 c 0.24941,-0.048 0.65754,-0.048 0.90695,0 0.24942,0.048 0.0454,0.0873 -0.45348,0.0873 -0.49882,0 -0.70288,-0.0393 -0.45347,-0.0873 z m -29.72515,-0.20393 c 0.30636,-0.0463 0.75984,-0.0451 1.00773,0.002 0.24788,0.0479 -0.002,0.0857 -0.55703,0.0842 -0.55425,-10e-4 -0.75706,-0.0407 -0.4507,-0.087 z m 104.79712,-49.23396 c 0,-0.38798 0.0415,-0.54669 0.0922,-0.35271 0.0507,0.194 0.0507,0.51143 0,0.70541 -0.0507,0.19399 -0.0922,0.0353 -0.0922,-0.3527 z"
             id="path12"
             transform="matrix(0.87518268,0,0,0.87518268,174.6887,-597.32)" /><path
             style="fill:#7b7b7b;fill-opacity:1;stroke-width:1.14262"
             d="m 237.99027,368.43574 c -0.25071,-0.31966 -0.24358,-0.32679 0.0761,-0.0761 0.33572,0.26328 0.44249,0.42879 0.27661,0.42879 -0.0418,0 -0.20057,-0.15871 -0.3527,-0.35271 z m 128.62747,-31.40746 c 0.009,-0.23479 0.0575,-0.28255 0.12176,-0.12177 0.0583,0.1455 0.0511,0.31933 -0.0159,0.3863 -0.067,0.067 -0.11461,-0.0521 -0.10581,-0.26453 z m 27.14465,-43.3572 c 0.25071,-0.0482 0.61349,-0.0464 0.80618,0.005 0.1927,0.0505 -0.0125,0.0899 -0.45583,0.0876 -0.44339,-0.002 -0.60105,-0.0435 -0.35035,-0.0917 z M 346.702,245.70124 c 0.30636,-0.0464 0.75984,-0.0451 1.00773,0.002 0.24788,0.0479 -0.002,0.0857 -0.55702,0.0842 -0.55425,-0.001 -0.75707,-0.0407 -0.45071,-0.087 z m -75.27756,-27.00499 c 0.2507,-0.0482 0.61348,-0.0464 0.80619,0.005 0.19269,0.0505 -0.0125,0.0899 -0.45583,0.0876 -0.4434,-0.002 -0.60106,-0.0435 -0.35036,-0.0917 z m 43.73531,-0.40308 c 0.25071,-0.0482 0.61349,-0.0464 0.80619,0.005 0.19269,0.0504 -0.0125,0.0899 -0.45582,0.0876 -0.44341,-0.002 -0.60107,-0.0435 -0.35037,-0.0917 z m -42.91887,-11.68476 c 0.14549,-0.0583 0.31931,-0.0511 0.38628,0.0159 0.067,0.0669 -0.0521,0.1146 -0.26453,0.1058 -0.23478,-0.009 -0.28254,-0.0575 -0.12175,-0.12177 z m 19.14679,-0.40309 c 0.14549,-0.0583 0.31932,-0.0511 0.38629,0.0159 0.067,0.067 -0.0521,0.11461 -0.26453,0.10581 -0.23478,-0.009 -0.28254,-0.0575 -0.12176,-0.12177 z m 74.66035,-11.65271 c 0.002,-0.4434 0.0435,-0.60106 0.0917,-0.35036 0.0482,0.2507 0.0464,0.61348 -0.005,0.80618 -0.0505,0.1927 -0.0899,-0.0125 -0.0876,-0.45582 z m -0.019,-25.29393 c 0,-0.27712 0.0457,-0.39049 0.1017,-0.25194 0.0559,0.13857 0.0559,0.36531 0,0.50388 -0.0559,0.13855 -0.1017,0.0251 -0.1017,-0.25194 z"
             id="path11"
             transform="matrix(0.87518268,0,0,0.87518268,174.6887,-597.32)" /><path
             style="fill:#777777;fill-opacity:1;stroke-width:1.14262"
             d="m 366.64112,337.85126 c 0.005,-0.33255 0.0492,-0.44419 0.10044,-0.2481 0.0511,0.1961 0.0478,0.46818 -0.008,0.60464 -0.0552,0.13646 -0.097,-0.024 -0.0929,-0.35654 z m 22.75123,-74.38698 c 0.009,-0.2348 0.0575,-0.28255 0.12176,-0.12177 0.0583,0.14549 0.0511,0.31933 -0.0159,0.3863 -0.067,0.0669 -0.1146,-0.0521 -0.1058,-0.26453 z m -70.40324,-17.9625 c 0.25071,-0.0482 0.61349,-0.0464 0.80619,0.005 0.19269,0.0505 -0.0125,0.0899 -0.45584,0.0876 -0.44339,-0.002 -0.60105,-0.0435 -0.35035,-0.0918 z m -25.69936,-27.00345 c 0.19398,-0.0507 0.51142,-0.0507 0.70541,0 0.19399,0.0507 0.0353,0.0922 -0.35271,0.0922 -0.38797,0 -0.54668,-0.0415 -0.3527,-0.0922 z m 89.19636,-16.32392 c 0.14549,-0.0583 0.31933,-0.0511 0.38629,0.0159 0.067,0.0669 -0.0521,0.1146 -0.26452,0.1058 -0.2348,-0.009 -0.28255,-0.0575 -0.12177,-0.12177 z m 5.33219,-0.002 c 0.19609,-0.0511 0.46817,-0.0478 0.60463,0.008 0.13646,0.0552 -0.024,0.097 -0.35654,0.0929 -0.33256,-0.005 -0.44419,-0.0493 -0.24809,-0.10044 z m -21.78182,-8.8291 c 0.005,-0.33254 0.0493,-0.44419 0.10044,-0.24809 0.0511,0.19609 0.0478,0.46819 -0.008,0.60464 -0.0552,0.13645 -0.097,-0.024 -0.0929,-0.35655 z m 74.93553,-7.23094 c 0,-0.0418 0.15872,-0.20057 0.3527,-0.35271 0.31966,-0.2507 0.32679,-0.24357 0.0761,0.0761 -0.26329,0.33573 -0.4288,0.44248 -0.4288,0.27661 z m -74.93553,-15.94675 c 0.005,-0.33255 0.0493,-0.4442 0.10044,-0.2481 0.0511,0.1961 0.0478,0.46819 -0.008,0.60464 -0.0552,0.13645 -0.097,-0.024 -0.0929,-0.35654 z m 23.35587,-40.32585 c 0.009,-0.23478 0.0575,-0.28254 0.12176,-0.12177 0.0583,0.14549 0.0511,0.31933 -0.0159,0.3863 -0.067,0.067 -0.1146,-0.0521 -0.1058,-0.26453 z"
             id="path10"
             transform="matrix(0.87518268,0,0,0.87518268,174.6887,-597.32)" /><path
             style="fill:#747474;fill-opacity:1;stroke-width:1.14262"
             d="m 259.16297,347.87813 -0.48861,-0.55424 0.55425,0.48861 c 0.51803,0.45667 0.64668,0.61988 0.48861,0.61988 -0.0361,0 -0.28552,-0.24941 -0.55425,-0.55425 z m 27.92926,-0.0504 c 0.20063,-0.2217 0.41014,-0.4031 0.46557,-0.4031 0.0554,0 -0.0634,0.1814 -0.26402,0.4031 -0.20063,0.2217 -0.41014,0.40309 -0.46556,0.40309 -0.0554,0 0.0634,-0.18139 0.26401,-0.40309 z m 181.27468,-0.55425 -0.48861,-0.55425 0.55425,0.4886 c 0.51803,0.45669 0.64668,0.6199 0.48861,0.6199 -0.0361,0 -0.28552,-0.24941 -0.55425,-0.55425 z m 27.92926,-0.0504 c 0.20064,-0.2217 0.41015,-0.40309 0.46557,-0.40309 0.0554,0 -0.0634,0.18139 -0.26402,0.40309 -0.20063,0.2217 -0.41014,0.40309 -0.46556,0.40309 -0.0554,0 0.0634,-0.18139 0.26401,-0.40309 z m -129.65505,-8.36413 c 0.005,-0.33255 0.0492,-0.44419 0.10044,-0.2481 0.0511,0.1961 0.0478,0.46819 -0.008,0.60464 -0.0552,0.13645 -0.097,-0.024 -0.0929,-0.35654 z m 22.36405,-18.44138 c 0,-0.27713 0.0457,-0.39049 0.10169,-0.25194 0.0559,0.13857 0.0559,0.36531 0,0.50386 -0.0559,0.13857 -0.10169,0.0251 -0.10169,-0.25192 z m -129.82695,-3.93013 c 0.26035,-0.27713 0.5187,-0.50387 0.57413,-0.50387 0.0554,0 -0.1122,0.22674 -0.37258,0.50387 -0.26035,0.27712 -0.51871,0.50386 -0.57414,0.50386 -0.0554,0 0.11221,-0.22674 0.37259,-0.50386 z m 209.20394,-0.60464 c 0.26035,-0.27713 0.5187,-0.50386 0.57413,-0.50386 0.0554,0 -0.1122,0.22673 -0.37258,0.50386 -0.26035,0.27712 -0.51871,0.50386 -0.57413,0.50386 -0.0554,0 0.1122,-0.22674 0.37258,-0.50386 z M 365.20692,279.58788 c 0.009,-0.23478 0.0575,-0.28254 0.12176,-0.12177 0.0583,0.14549 0.0511,0.31933 -0.0159,0.3863 -0.067,0.067 -0.11461,-0.0521 -0.1058,-0.26453 z m -37.4491,-8.487 c 0.1961,-0.0511 0.46818,-0.0478 0.60463,0.008 0.13646,0.0552 -0.024,0.097 -0.35653,0.0929 -0.33255,-0.005 -0.4442,-0.0493 -0.2481,-0.10043 z m 37.65064,-9.85361 c 0.009,-0.23479 0.0575,-0.28255 0.12177,-0.12177 0.0583,0.14549 0.0511,0.31933 -0.0159,0.38629 -0.067,0.067 -0.11461,-0.0521 -0.10581,-0.26452 z m -76.34839,-15.94913 c 0.30636,-0.0463 0.75984,-0.0451 1.00772,0.002 0.24789,0.0479 -0.002,0.0857 -0.55701,0.0842 -0.55425,-0.001 -0.75707,-0.0407 -0.45071,-0.087 z m 92.00262,-43.1283 c 0.24941,-0.048 0.65754,-0.048 0.90695,0 0.24941,0.048 0.0454,0.0873 -0.45347,0.0873 -0.49882,0 -0.70289,-0.0393 -0.45348,-0.0873 z m 4.73909,-0.002 c 0.30636,-0.0463 0.75983,-0.0451 1.00772,0.002 0.24789,0.0479 -0.002,0.0857 -0.55701,0.0842 -0.55425,-0.001 -0.75708,-0.0407 -0.45071,-0.087 z m -19.74695,-10.23495 c 0.001,-0.55425 0.0407,-0.75707 0.087,-0.45071 0.0463,0.30636 0.0451,0.75984 -0.002,1.00772 -0.0479,0.24789 -0.0857,-0.002 -0.0842,-0.55701 z m 47.88441,-6.70138 c -0.2507,-0.31966 -0.24357,-0.32679 0.0761,-0.0761 0.19398,0.15214 0.35271,0.31086 0.35271,0.35271 0,0.16588 -0.16551,0.0591 -0.42881,-0.27661 z m -155.38091,-44.74303 -0.48861,-0.55425 0.55425,0.4886 c 0.51803,0.45668 0.64668,0.6199 0.48861,0.6199 -0.0361,0 -0.28551,-0.24943 -0.55425,-0.55425 z m 209.80858,0 -0.48861,-0.55425 0.55425,0.4886 c 0.30484,0.26873 0.55425,0.51815 0.55425,0.55425 0,0.15806 -0.16321,0.0295 -0.61989,-0.4886 z m -181.87931,-0.0504 c 0.20064,-0.22171 0.41014,-0.4031 0.46556,-0.4031 0.0554,0 -0.0634,0.18139 -0.26402,0.4031 -0.20063,0.2217 -0.41013,0.40309 -0.46556,0.40309 -0.0554,0 0.0634,-0.18139 0.26402,-0.40309 z m 209.80857,0 c 0.20064,-0.22171 0.41015,-0.4031 0.46557,-0.4031 0.0554,0 -0.0634,0.18139 -0.26402,0.4031 -0.20063,0.2217 -0.41014,0.40309 -0.46556,0.40309 -0.0554,0 0.0634,-0.18139 0.26401,-0.40309 z M 258.57358,109.09753 c 0.26035,-0.27713 0.5187,-0.50387 0.57413,-0.50387 0.0554,0 -0.1122,0.22674 -0.37258,0.50387 -0.26035,0.27712 -0.51871,0.50386 -0.57412,0.50386 -0.0554,0 0.1122,-0.22674 0.37257,-0.50386 z m 209.80858,0 c 0.26035,-0.27713 0.5187,-0.50387 0.57413,-0.50387 0.0554,0 -0.1122,0.22674 -0.37258,0.50387 -0.26035,0.27712 -0.51871,0.50386 -0.57413,0.50386 -0.0554,0 0.1122,-0.22674 0.37258,-0.50386 z"
             id="path9"
             transform="matrix(0.87518268,0,0,0.87518268,174.6887,-597.32)" /><path
             style="fill:#707070;fill-opacity:1;stroke-width:1.14262"
             d="m 366.64858,339.96748 c 0,-0.38797 0.0415,-0.54668 0.0922,-0.3527 0.0507,0.19398 0.0507,0.51142 0,0.70541 -0.0507,0.19399 -0.0922,0.0353 -0.0922,-0.35271 z m -1.44166,-60.98422 c 0.009,-0.23479 0.0575,-0.28255 0.12176,-0.12177 0.0583,0.14549 0.0511,0.31932 -0.0159,0.38629 -0.067,0.067 -0.11461,-0.0521 -0.1058,-0.26452 z m -20.42237,-33.27963 c 0.24941,-0.048 0.65754,-0.048 0.90695,0 0.24942,0.048 0.0454,0.0873 -0.45347,0.0873 -0.49883,0 -0.70289,-0.0393 -0.45348,-0.0873 z m -27.81323,-0.20154 c 0.24941,-0.048 0.65753,-0.048 0.90695,0 0.24941,0.048 0.0454,0.0873 -0.45348,0.0873 -0.49882,0 -0.70289,-0.0393 -0.45347,-0.0873 z m -57.0373,-0.39434 c 0.13856,-0.0559 0.36529,-0.0559 0.50386,0 0.13856,0.0559 0.0252,0.10169 -0.25194,0.10169 -0.27712,0 -0.39049,-0.0457 -0.25192,-0.10169 z m 12.90123,-26.4115 c 0.25072,-0.0482 0.6135,-0.0464 0.80619,0.005 0.19269,0.0505 -0.0125,0.0899 -0.45582,0.0876 -0.44341,-0.002 -0.60107,-0.0435 -0.35037,-0.0917 z m 43.73532,-0.40308 c 0.25071,-0.0482 0.61349,-0.0464 0.80618,0.005 0.1927,0.0504 -0.0125,0.0899 -0.45582,0.0876 -0.44341,-0.002 -0.60106,-0.0435 -0.35036,-0.0917 z m -44.93433,-11.68476 c 0.14549,-0.0583 0.31931,-0.0511 0.38629,0.0159 0.067,0.0669 -0.0521,0.1146 -0.26453,0.1058 -0.23479,-0.009 -0.28254,-0.0575 -0.12176,-0.12177 z m 9.87571,-0.20154 c 0.1455,-0.0583 0.31932,-0.0511 0.38629,0.0159 0.067,0.067 -0.0521,0.1146 -0.26453,0.10581 -0.23478,-0.009 -0.28254,-0.0575 -0.12176,-0.12177 z m 9.27108,-0.20155 c 0.14549,-0.0583 0.31932,-0.0511 0.38629,0.0159 0.067,0.067 -0.0521,0.11461 -0.26452,0.10581 -0.23479,-0.009 -0.28255,-0.0575 -0.12177,-0.12177 z m 75.26905,-15.98594 c 0,-0.49882 0.0393,-0.70288 0.0874,-0.45347 0.048,0.24941 0.048,0.65754 0,0.90695 -0.0481,0.24941 -0.0874,0.0454 -0.0874,-0.45348 z m -0.0155,-18.03829 c 0.005,-0.33255 0.0492,-0.4442 0.10043,-0.2481 0.0511,0.1961 0.0478,0.46819 -0.008,0.60464 -0.0552,0.13645 -0.097,-0.024 -0.0929,-0.35654 z"
             id="path8"
             transform="matrix(0.87518268,0,0,0.87518268,174.6887,-597.32)" /><path
             style="fill:#6c6c6c;fill-opacity:1;stroke-width:1.14262"
             d="m 366.65265,341.27753 c 0.002,-0.44341 0.0435,-0.60106 0.0917,-0.35036 0.0482,0.25071 0.0464,0.61349 -0.005,0.80618 -0.0505,0.19269 -0.0899,-0.0125 -0.0876,-0.45582 z m 22.35998,-19.1468 c 0.005,-0.33255 0.0492,-0.4442 0.10044,-0.24809 0.0511,0.1961 0.0478,0.46818 -0.008,0.60463 -0.0552,0.13645 -0.097,-0.024 -0.0929,-0.35654 z m -30.32145,-2.05691 c 0.24941,-0.048 0.65753,-0.048 0.90695,0 0.24941,0.048 0.0454,0.0873 -0.45348,0.0873 -0.49882,0 -0.70289,-0.0393 -0.45347,-0.0873 z m 6.53165,-41.77918 c 0,-0.27711 0.0457,-0.39049 0.1017,-0.25193 0.0559,0.13856 0.0559,0.36531 0,0.50387 -0.0559,0.13855 -0.1017,0.0251 -0.1017,-0.25194 z m -53.54208,-3.42626 c 0.20064,-0.2217 0.41014,-0.4031 0.46556,-0.4031 0.0554,0 -0.0634,0.1814 -0.26401,0.4031 -0.20064,0.2217 -0.41014,0.40309 -0.46557,0.40309 -0.0554,0 0.0634,-0.18139 0.26402,-0.40309 z m 15.06934,-3.76749 c 0.19609,-0.0511 0.46819,-0.0478 0.60464,0.008 0.13645,0.0552 -0.024,0.097 -0.35655,0.0929 -0.33254,-0.005 -0.44419,-0.0492 -0.24809,-0.10043 z m -39.70441,-25.79778 c 0.1961,-0.0511 0.46819,-0.0478 0.60464,0.008 0.13645,0.0552 -0.024,0.097 -0.35654,0.0929 -0.33255,-0.005 -0.44419,-0.0492 -0.2481,-0.10032 z m 1.11727,0.002 c 0.14548,-0.0583 0.31931,-0.0511 0.38629,0.0159 0.067,0.067 -0.0521,0.1146 -0.26453,0.1058 -0.23479,-0.009 -0.28254,-0.0575 -0.12176,-0.12176 z m 6.54145,-26.80752 c 0.1961,-0.0511 0.46819,-0.0478 0.60464,0.008 0.13645,0.0552 -0.024,0.097 -0.35654,0.0929 -0.33255,-0.005 -0.44419,-0.0493 -0.2481,-0.10044 z m 84.04436,-16.32516 c 0.1961,-0.0511 0.46818,-0.0478 0.60463,0.008 0.13646,0.0552 -0.024,0.097 -0.35653,0.0929 -0.33256,-0.005 -0.44419,-0.0493 -0.2481,-0.10044 z m 1.20927,0 c 0.1961,-0.0511 0.46819,-0.0478 0.60464,0.008 0.13645,0.0552 -0.024,0.097 -0.35654,0.0929 -0.33255,-0.005 -0.4442,-0.0493 -0.2481,-0.10044 z m -13.90595,-13.56541 c 0,-0.49882 0.0393,-0.70288 0.0874,-0.45347 0.048,0.24941 0.048,0.65755 0,0.90696 -0.0481,0.24941 -0.0874,0.0454 -0.0874,-0.45349 z m -0.0155,-15.4182 c 0.005,-0.33255 0.0492,-0.4442 0.10043,-0.2481 0.0511,0.19609 0.0478,0.46819 -0.008,0.60464 -0.0552,0.13645 -0.097,-0.024 -0.0929,-0.35654 z m 23.35586,-44.75984 c 0.009,-0.23478 0.0575,-0.28254 0.12177,-0.12177 0.0583,0.14549 0.0511,0.31933 -0.0159,0.3863 -0.067,0.067 -0.11461,-0.0521 -0.10581,-0.26453 z"
             id="path7"
             transform="matrix(0.87518268,0,0,0.87518268,174.6887,-597.32)" /><path
             style="fill:#686868;fill-opacity:1;stroke-width:1.14262"
             d="m 366.65672,342.78912 c 0,-0.49883 0.0393,-0.70289 0.0873,-0.45348 0.048,0.24941 0.048,0.65754 0,0.90695 -0.048,0.24941 -0.0873,0.0454 -0.0873,-0.45347 z m -1.24826,-83.35575 c 0.009,-0.23478 0.0575,-0.28255 0.12177,-0.12177 0.0583,0.14549 0.0511,0.31933 -0.0159,0.3863 -0.067,0.067 -0.11461,-0.0521 -0.10581,-0.26453 z m -22.43782,-13.72974 c 0.24942,-0.048 0.65755,-0.048 0.90696,0 0.24941,0.048 0.0454,0.0873 -0.45347,0.0873 -0.49884,0 -0.7029,-0.0393 -0.45349,-0.0873 z m -83.83021,-0.60008 c 0.14549,-0.0583 0.31932,-0.0511 0.3863,0.0159 0.067,0.067 -0.0521,0.11462 -0.26453,0.10581 -0.23479,-0.009 -0.28254,-0.0575 -0.12177,-0.12177 z m 59.0425,-26.81038 c 0.25071,-0.0482 0.61349,-0.0464 0.80618,0.005 0.1927,0.0504 -0.0125,0.0899 -0.45582,0.0876 -0.4434,-0.002 -0.60106,-0.0435 -0.35036,-0.0917 z M 271.0316,206.60841 c 0.14549,-0.0583 0.31932,-0.0511 0.38629,0.0159 0.067,0.0669 -0.0521,0.1146 -0.26452,0.1058 -0.23479,-0.009 -0.28255,-0.0575 -0.12177,-0.12177 z m 19.1468,-0.40309 c 0.14549,-0.0583 0.31931,-0.0511 0.3863,0.0159 0.0669,0.067 -0.0521,0.11461 -0.26453,0.10581 -0.2348,-0.009 -0.28255,-0.0575 -0.12177,-0.12177 z m 75.86555,-19.00912 c 0,-0.38797 0.0415,-0.54668 0.0922,-0.3527 0.0507,0.19398 0.0507,0.51142 0,0.70541 -0.0507,0.19399 -0.0922,0.0353 -0.0922,-0.35271 z m 0.0334,-3.62781 c 0,-1.60732 0.0313,-2.26486 0.0696,-1.4612 0.0383,0.80366 0.0383,2.11874 0,2.9224 -0.0383,0.80366 -0.0696,0.14612 -0.0696,-1.4612 z m -0.0483,-9.47263 c 0,-0.27712 0.0457,-0.39049 0.1017,-0.25192 0.0559,0.13855 0.0559,0.36529 0,0.50386 -0.0559,0.13856 -0.1017,0.0252 -0.1017,-0.25194 z m -40.44163,-22.37151 c 0.20063,-0.2217 0.41014,-0.40309 0.46556,-0.40309 0.0554,0 -0.0634,0.18139 -0.26402,0.40309 -0.20063,0.22169 -0.41014,0.40308 -0.46556,0.40308 -0.0554,0 0.0634,-0.18139 0.26402,-0.40308 z"
             id="path6"
             transform="matrix(0.87518268,0,0,0.87518268,174.6887,-597.32)" /><path
             style="fill:#515151;fill-opacity:1;stroke-width:1.14262"
             d="m 314.85509,245.50539 c 0.19399,-0.0507 0.51142,-0.0507 0.7054,0 0.194,0.0507 0.0353,0.0922 -0.3527,0.0922 -0.38798,0 -0.54669,-0.0415 -0.3527,-0.0922 z m 51.19974,-65.66558 c 0.001,-0.55425 0.0407,-0.75708 0.087,-0.45071 0.0463,0.30636 0.0451,0.75983 -0.002,1.00772 -0.0479,0.24789 -0.0857,-0.002 -0.0842,-0.55701 z m 0.002,-2.11623 c 0,-0.60967 0.0378,-0.85908 0.084,-0.55425 0.0462,0.30483 0.0462,0.80366 0,1.1085 -0.0462,0.30483 -0.084,0.0554 -0.084,-0.55425 z"
             id="path5"
             transform="matrix(0.87518268,0,0,0.87518268,174.6887,-597.32)" /><path
             style="fill:#4a4a4a;fill-opacity:1;stroke-width:1.14262"
             d="m 357.4819,320.08257 c 0.13857,-0.0559 0.36531,-0.0559 0.50386,0 0.13857,0.0559 0.0252,0.10169 -0.25192,0.10169 -0.27713,0 -0.39051,-0.0457 -0.25194,-0.10169 z m 34.66813,-26.41149 c 0.2507,-0.0482 0.61349,-0.0464 0.80618,0.005 0.1927,0.0505 -0.0125,0.0899 -0.45583,0.0876 -0.44339,-0.002 -0.60105,-0.0435 -0.35035,-0.0917 z M 366.04395,175.50659 c 0,-0.38798 0.0415,-0.5467 0.0922,-0.35272 0.0507,0.194 0.0507,0.51143 0,0.70542 -0.0507,0.19398 -0.0922,0.0353 -0.0922,-0.3527 z"
             id="path4"
             transform="matrix(0.87518268,0,0,0.87518268,174.6887,-597.32)" /><g
             id="g39"
             transform="translate(-35.164922,-346.3212)"><path
               style="fill:url(#radialGradient2);fill-opacity:1;fill-rule:nonzero"
               d="m 431.88734,61.812369 c -7.18783,-0.58896 -15.69586,-3.26952 -20.85757,-6.57142 -0.54873,-0.35103 -1.04675,-0.63823 -1.10669,-0.63823 -0.31207,0 -3.89204,-2.63168 -5.90518,-4.34097 -2.6352,-2.23745 -6.28775,-6.15245 -7.7164,-8.27084 -0.26171,-0.38805 -0.65116,-0.92341 -0.86546,-1.18969 -4.34268,-5.39603 -7.98357,-16.07522 -8.52471,-25.00406 -0.25245,-4.16538 -0.24406,-177.655589 0.009,-181.731469 1.45153,-23.39891 18.39086,-41.85295 41.84369,-45.58535 l 3.03534,-0.48306 89.69375,-0.0571 c 62.62909,-0.0398 90.63191,2.4e-4 92.80286,0.13282 24.35115,1.48715 42.76451,18.77382 46.22626,43.39773 0.2953,2.10051 0.4306,180.216209 0.14015,184.502779 -0.45146,6.66285 -1.94302,12.39606 -4.7587,18.2913 -1.75783,3.68043 -3.7453,6.75576 -6.70029,10.36781 -7.58944,9.277 -18.63151,15.12172 -32.37208,17.13501 -1.2564,0.18408 -182.70741,0.22795 -184.94376,0.0447 z m 95.66082,-26.86511 c 11.38223,-3.143321 3.19113,-27.9483776 5.73486,-29.6640705 59.32208,0.9169847 59.42168,-95.8326095 1.69973,-99.5440435 -16.00353,-1.029003 -32.07679,-0.198382 -48.11409,-0.21193 -4.07966,-15.812255 -2.41968,-40.682505 26.43163,-40.734535 l -0.35846,40.444953 c 9.27991,0.05731 9.05968,-0.132091 19.69585,0.371483 l 0.4182,-40.442296 c 4.47178,0 21.04274,7.1503 22.8032,18.50811 1.49423,9.64022 24.00435,13.09302 22.02951,-2.04031 -3.50578,-26.86501 -30.84768,-36.64284 -44.16866,-37.15852 -0.089,-4.95219 -0.21734,-9.9042 -0.23488,-14.85739 -0.0157,-15.39557 -15.71223,-12.04728 -17.84656,-6.62302 -0.49228,1.25108 -0.57763,9.56819 -0.67193,21.47432 -40.71648,0.43856 -54.92676,34.0243 -48.04448,60.852325 -14.532,0.495667 -20.48888,0.931623 -32.0728,1.088427 -4.57048,0.06187 -3.84212,8.78887 0.38312,9.92661 21.18299,0.13242 29.35449,-0.03861 50.54338,-0.112127 22.83186,3.721499 -8.9415,8.70182 -53.12769,9.174435 -4.09988,0.04385 -2.35972,9.405145 2.54811,9.472091 34.34226,0.46845 46.40198,-3.566561 76.99163,-7.567265 -0.18581,13.945704 0.21546,40.889735 0.0762,54.835963 -29.2089,1.410987 -22.60166,-27.421995 -44.45645,-18.007324 -7.78125,3.35203 3.38685,40.7585366 45.74108,40.9038835 0.8271,6.9127115 -1.73276,19.8422565 0.81591,25.5160705 1.85657,3.87154 7.8062,5.85435 13.18388,4.39375 z m 5.90315,-107.508803 c 36.39729,0.08092 23.89322,54.153274 0.036,54.833993 -0.0376,-13.945884 -0.16996,-40.888963 -0.036,-54.833993 z M 436.29707,34.155849 c 19.99814,-5.7362 16.19815,-36.9677105 -4.49792,-36.9677105 -21.3333,0 -24.34152,32.5512505 -3.43958,37.2189005 1.73906,0.38835 6.20002,0.24718 7.9375,-0.25119 z m -6.10505,-7.8615 c -7.15894,-1.5573 -10.25762,-10.87775 -5.64227,-16.9712903 4.58145,-6.0488002 12.5858,-4.9587702 15.80698,2.1525803 3.31803,7.32517 -2.90527,16.39787 -10.16471,14.81871 z m 189.19671,7.33234 c 19.99815,-5.73621 16.19816,-36.9677205 -4.49791,-36.9677205 -21.3333,0 -24.34152,32.5512505 -3.43959,37.2189005 1.73907,0.38836 6.20003,0.24719 7.9375,-0.25118 z m -6.10504,-7.86151 c -8.36469,-1.81958 -10.62744,-13.43921 -3.69181,-18.9580605 4.77129,-3.79663 11.12101,-1.89978 13.85652,4.1393505 3.31803,7.32517 -2.90527,16.39787 -10.16471,14.81871 z m 14.21893,-98.691634 h -30.1625 v 12.34722 h 30.1625 z m 0.17639,-20.46111 h -30.1625 v 12.34722 h 30.1625 z M 435.7679,-147.34832 c 19.99814,-5.7362 16.19816,-36.96771 -4.49792,-36.96771 -21.33329,0 -24.34151,32.55125 -3.43958,37.2189 1.73907,0.38835 6.20002,0.24719 7.9375,-0.25119 z m -6.10504,-7.8615 c -7.15895,-1.5573 -10.25762,-10.87775 -5.64228,-16.97129 4.58146,-6.04879 12.5858,-4.95877 15.80698,2.15258 3.31804,7.32517 -2.90527,16.39787 -10.1647,14.81871 z m 189.72587,7.8615 c 19.99815,-5.7362 16.19816,-36.96771 -4.49791,-36.96771 -21.3333,0 -24.34152,32.55125 -3.43959,37.2189 1.73907,0.38835 6.20003,0.24719 7.9375,-0.25119 z m -6.10504,-7.8615 c -8.36469,-1.81959 -10.62744,-13.43922 -3.69181,-18.95807 4.77129,-3.79663 11.12101,-1.89978 13.85652,4.13936 3.31803,7.32517 -2.90527,16.39787 -10.16471,14.81871 z m -19.17446,-56.56776 c -0.0563,-0.14071 -0.0981,-0.0989 -0.10657,0.10657 -0.008,0.18595 0.034,0.29013 0.0926,0.23151 0.0586,-0.0586 0.0649,-0.21074 0.0139,-0.33808 z m 2.29305,0 c -0.0563,-0.14071 -0.0981,-0.0989 -0.10656,0.10657 -0.008,0.18595 0.034,0.29013 0.0926,0.23151 0.0586,-0.0586 0.0649,-0.21074 0.0139,-0.33808 z m 2.11667,0 c -0.0563,-0.14071 -0.0981,-0.0989 -0.10657,0.10657 -0.008,0.18595 0.034,0.29013 0.0926,0.23151 0.0586,-0.0586 0.0649,-0.21074 0.0139,-0.33808 z m 2.29306,0 c -0.0563,-0.14071 -0.0981,-0.0989 -0.10657,0.10657 -0.008,0.18595 0.034,0.29013 0.0926,0.23151 0.0586,-0.0586 0.0649,-0.21074 0.0139,-0.33808 z"
               id="path3"
                /><path
               style="fill:#ffffff;fill-opacity:1"
               d="m 527.64501,35.053803 c 11.38223,-3.14332 3.19113,-27.9483805 5.73486,-29.6640705 59.32208,0.91698 59.42168,-95.8326115 1.69973,-99.5440455 -16.00353,-1.029003 -32.07679,-0.198382 -48.11409,-0.21193 -4.07966,-15.812257 -2.41968,-40.682507 26.43163,-40.734537 l -0.35846,40.444955 c 9.27991,0.05731 9.05968,-0.132091 19.69585,0.371483 l 0.4182,-40.442298 c 4.47178,0 21.04274,7.1503 22.8032,18.50811 1.49423,9.64022 24.00435,13.09302 22.02951,-2.04031 -3.50578,-26.86501 -30.84768,-36.64284 -44.16866,-37.15852 -0.089,-4.95219 -0.21734,-9.9042 -0.23488,-14.85739 -0.0157,-15.39557 -15.71223,-12.04728 -17.84656,-6.62302 -0.49228,1.25108 -0.57763,9.56819 -0.67193,21.47432 -40.71648,0.43856 -54.92676,34.0243 -48.04448,60.852327 -14.532,0.495667 -20.48888,0.931623 -32.0728,1.088427 -4.57048,0.06187 -3.84212,8.78887 0.38312,9.92661 21.18299,0.13242 29.35449,-0.03861 50.54338,-0.112127 22.83186,3.721499 -8.9415,8.70182 -53.12769,9.174435 -4.09989,0.04385 -2.35972,9.405141 2.54811,9.472091 34.34226,0.46845 46.40198,-3.56656 76.99163,-7.567265 -0.18581,13.945705 0.21546,40.889735 0.0762,54.835965 -29.2089,1.41098 -22.60166,-27.422 -44.45645,-18.00733 -7.78125,3.35203 3.38685,40.7585395 45.74108,40.9038895 0.8271,6.9127105 -1.73276,19.8422505 0.81591,25.5160705 1.85657,3.87154 7.8062,5.85435 13.18388,4.39375 z m 5.90315,-107.508805 c 36.39729,0.08092 23.89322,54.153275 0.036,54.833995 -0.0376,-13.94589 -0.16996,-40.88897 -0.036,-54.833995 z M 436.39392,34.262393 c 19.99814,-5.7362 16.19815,-36.9677105 -4.49792,-36.9677105 -21.33331,0 -24.34153,32.5512505 -3.43959,37.2189005 1.73907,0.38835 6.20003,0.24718 7.93751,-0.25119 z m -6.10505,-7.8615 c -7.15895,-1.5573 -10.25763,-10.87775 -5.64228,-16.9712905 4.58145,-6.0488 12.58581,-4.95877 15.80699,2.1525805 3.31803,7.32517 -2.90527,16.39787 -10.16471,14.81871 z m 189.19671,7.33234 c 19.99815,-5.73621 16.19816,-36.9677205 -4.49791,-36.9677205 -21.3333,0 -24.34152,32.5512505 -3.43959,37.2189005 1.73907,0.38836 6.20003,0.24719 7.9375,-0.25118 z m -6.10504,-7.86151 c -8.36469,-1.81958 -10.62744,-13.43921 -3.69181,-18.9580605 4.77129,-3.79663 11.12101,-1.89978 13.85652,4.1393505 3.31803,7.32517 -2.90527,16.39787 -10.16471,14.81871 z m 14.21893,-98.691636 h -30.1625 v 12.347216 h 30.1625 z m 0.17639,-20.46111 h -30.1625 v 12.34722 h 30.1625 z M 435.86475,-147.24178 c 19.99814,-5.7362 16.19816,-36.96771 -4.49792,-36.96771 -21.3333,0 -24.34152,32.55125 -3.43959,37.2189 1.73907,0.38835 6.20003,0.24719 7.93751,-0.25119 z m -6.10505,-7.8615 c -7.15895,-1.5573 -10.25762,-10.87775 -5.64228,-16.97129 4.58146,-6.04879 12.58581,-4.95877 15.80699,2.15258 3.31804,7.32517 -2.90527,16.39787 -10.16471,14.81871 z m 189.72588,7.8615 c 19.99815,-5.7362 16.19816,-36.96771 -4.49791,-36.96771 -21.3333,0 -24.34152,32.55125 -3.43959,37.2189 1.73907,0.38835 6.20003,0.24719 7.9375,-0.25119 z m -6.10504,-7.8615 c -8.36469,-1.81959 -10.62744,-13.43922 -3.69181,-18.95807 4.77129,-3.79663 11.12101,-1.89978 13.85652,4.13936 3.31803,7.32517 -2.90527,16.39787 -10.16471,14.81871 z"
               id="path3-9"
                /></g></g></g></g></g></svg>
