<svg width="22" height="18" viewBox="0 0 22 18" fill="none" xmlns="http://www.w3.org/2000/svg">
<path d="M1.26099 6.82743H3.88599V13.5774H2.01099C1.91153 13.5774 1.81615 13.6169 1.74582 13.6873C1.6755 13.7576 1.63599 13.853 1.63599 13.9524C1.63599 14.0519 1.6755 14.1473 1.74582 14.2176C1.81615 14.2879 1.91153 14.3274 2.01099 14.3274H20.011C20.1104 14.3274 20.2058 14.2879 20.2762 14.2176C20.3465 14.1473 20.386 14.0519 20.386 13.9524C20.386 13.853 20.3465 13.7576 20.2762 13.6873C20.2058 13.6169 20.1104 13.5774 20.011 13.5774H18.136V6.82743H20.761C20.8428 6.82761 20.9224 6.80107 20.9876 6.75183C21.0529 6.70259 21.1003 6.63335 21.1226 6.55468C21.1449 6.476 21.1409 6.39219 21.1111 6.31602C21.0814 6.23985 21.0276 6.17549 20.9579 6.13274L11.2079 0.132741C11.1487 0.0962364 11.0805 0.0769043 11.011 0.0769043C10.9415 0.0769043 10.8733 0.0962364 10.8141 0.132741L1.06411 6.13274C0.994398 6.17549 0.940568 6.23985 0.910822 6.31602C0.881076 6.39219 0.877044 6.476 0.899341 6.55468C0.921638 6.63335 0.969042 6.70259 1.03433 6.75183C1.09962 6.80107 1.17921 6.82761 1.26099 6.82743ZM4.63599 6.82743H8.38599V13.5774H4.63599V6.82743ZM12.886 6.82743V13.5774H9.13599V6.82743H12.886ZM17.386 13.5774H13.636V6.82743H17.386V13.5774ZM11.011 0.893053L19.4363 6.07743H2.58567L11.011 0.893053ZM21.886 16.9524C21.886 17.0519 21.8465 17.1473 21.7762 17.2176C21.7058 17.2879 21.6104 17.3274 21.511 17.3274H0.510986C0.41153 17.3274 0.316147 17.2879 0.245821 17.2176C0.175495 17.1473 0.135986 17.0519 0.135986 16.9524C0.135986 16.853 0.175495 16.7576 0.245821 16.6873C0.316147 16.6169 0.41153 16.5774 0.510986 16.5774H21.511C21.6104 16.5774 21.7058 16.6169 21.7762 16.6873C21.8465 16.7576 21.886 16.853 21.886 16.9524Z" fill="black"/>
</svg>
