<svg width="25" height="16" viewBox="0 0 25 16" fill="none" xmlns="http://www.w3.org/2000/svg">
    <title>Mastercard</title>
    <path d="M15.3478 8.18886C15.3478 12.1605 12.1355 15.3777 8.17388 15.3777C4.21226 15.3777 1 12.1605 1 8.18886C1 4.21725 4.21226 1 8.17388 1C12.1355 1 15.3478 4.21725 15.3478 8.18886ZM15.3478 8.18886C15.3478 10.4869 14.2737 12.5351 12.6001 13.849C10.9265 12.5351 9.85245 10.4869 9.85245 8.18886C9.85245 5.89083 10.9265 3.84257 12.6001 2.52869C14.2737 3.84757 15.3478 5.89083 15.3478 8.18886ZM24.2052 8.18886C24.2052 12.1605 20.9929 15.3777 17.0313 15.3777C13.0697 15.3777 9.85744 12.1605 9.85744 8.18886C9.85744 4.21725 13.0647 1 17.0263 1C20.9879 1 24.2052 4.21725 24.2052 8.18886Z" stroke="#616161" stroke-width="0.676554"/>
</svg>
