<svg width="24" height="20" viewBox="0 0 24 20" fill="none" xmlns="http://www.w3.org/2000/svg">
    <title>NuBank</title>
    <path d="M22.8433 13.7081C22.8433 14.5089 21.967 15.4933 21.2543 15.4933H20.6054C20.6061 10.5922 20.6061 5.09749 20.6054 4.12218C20.6051 4.0933 20.6101 4.06465 20.62 4.03786C20.6299 4.01107 20.6445 3.98668 20.6631 3.96607C20.6816 3.94547 20.7037 3.92905 20.7281 3.91778C20.7525 3.9065 20.7787 3.90058 20.8052 3.90035H22.6427C22.7531 3.90035 22.8434 4.00133 22.8434 4.12393L22.8433 13.7081ZM19.849 17.2132C19.849 17.7201 19.6216 18.5694 18.0977 18.5694C15.1447 18.5694 13.3319 16.0466 13.3319 14.2373C13.3319 14.2373 13.3287 8.38698 13.3287 4.12403C13.3283 4.09511 13.3333 4.06641 13.3432 4.03958C13.3531 4.01274 13.3678 3.98832 13.3864 3.9677C13.405 3.94708 13.4272 3.93067 13.4516 3.91943C13.476 3.90818 13.5023 3.90232 13.5288 3.90218H15.3685C15.4789 3.90218 15.5697 4.00245 15.5697 4.12588V13.5259C15.5697 15.079 16.6969 16.3388 18.0866 16.3388H19.85L19.849 17.2132ZM22.7821 3.05731H20.6654C20.2153 3.05731 19.8488 3.4672 19.8488 3.97002V15.4943H18.0853C17.1123 15.4943 16.3237 14.6128 16.3237 13.5257V3.97002C16.3237 3.46599 15.9577 3.05689 15.5068 3.05689H13.3891C12.9382 3.05689 12.5723 3.466 12.5716 3.97002C12.5705 8.13667 12.5748 14.2375 12.5748 14.2375C12.5751 17.4443 15.7913 19.4134 18.0971 19.4134C19.6437 19.4134 20.6044 18.5685 20.6044 17.2074V16.3385H21.254C22.3934 16.3385 23.5987 14.9867 23.5987 13.7081V3.97002C23.5998 3.466 23.2338 3.05731 22.7821 3.05731ZM10.272 15.2894C10.2723 15.3183 10.2673 15.347 10.2574 15.3738C10.2475 15.4005 10.2328 15.4249 10.2142 15.4455C10.1956 15.4661 10.1735 15.4824 10.1491 15.4937C10.1247 15.5049 10.0985 15.5107 10.072 15.5109H8.23228C8.12041 15.5109 8.03063 15.4097 8.03113 15.2877V5.88758C8.03113 4.33457 6.90354 3.07482 5.5142 3.07482H3.75067V2.20017C3.75067 1.6943 3.97813 0.843998 5.50195 0.843998C8.45508 0.843998 10.2684 3.36666 10.2684 5.17608C10.2684 5.17608 10.272 11.0549 10.272 15.2894ZM0.956135 15.5128C0.844258 15.5092 0.754674 15.4109 0.755965 15.2888V5.70638C0.755965 4.90543 1.63236 3.91969 2.34477 3.91969H2.99428C2.99328 10.9383 2.99328 14.5298 2.99428 15.2883C2.99479 15.347 2.97398 15.4034 2.93642 15.4453C2.89885 15.4873 2.84758 15.5112 2.79383 15.512L0.956135 15.5128ZM11.0234 5.17619C11.0238 1.96908 7.80754 0 5.50205 0C3.95501 0 2.99428 0.844764 2.99428 2.20592V3.07482H2.34507C1.20522 3.07482 0 4.42663 0 5.70541V15.4434C0 15.9474 0.365929 16.3565 0.816673 16.3565H2.93299C2.94606 16.3565 2.95732 16.3529 2.97055 16.3529C3.40307 16.3301 3.74955 15.933 3.74955 15.4437V3.91937H5.51338C6.48597 3.91937 7.27494 4.80087 7.27494 5.88802V15.4438C7.27494 15.9478 7.64096 16.3569 8.09161 16.3569H10.2096C10.6606 16.3569 11.0263 15.9489 11.0263 15.4438C11.0279 11.1994 11.0234 5.17619 11.0234 5.17619Z" stroke="#616161" stroke-width="0.45"/>
</svg>
