
<svg viewBox="0 0 25 25" width="25" height="25" xmlns="http://www.w3.org/2000/svg">
  <title>NuBank</title>
  <path d="m 8.1266367,6.5287729 c -1.3535406,0 -2.2921533,0.7623361 -2.8606139,1.4448069 h -0.025894 c -1.6208017,0 -3.0285551,0.868301 -3.6736413,2.2661202 -0.2487015,0.5385 -0.2726138,1.089005 -0.2962113,1.620876 l -0.012428,0.254783 c -0.019886,0.371462 -7.955e-4,7.150989 0,7.439461 5.303e-4,0.146092 0.1190479,0.264105 0.2651402,0.264105 h 2.650366 c 0.070527,0 0.1378811,-0.02783 0.1874623,-0.07768 0.049581,-0.04985 0.077678,-0.117453 0.077678,-0.18798 -0.00265,-2.85609 -0.00582,-8.303126 -5.303e-4,-8.473612 0.050642,-1.2628619 0.5553443,-2.0096666 1.0657392,-2.5669913 2.1415373,0.049846 3.6174112,1.4515182 3.6855522,3.5182863 0.017234,0.538764 -2.527e-4,7.452067 -5.303e-4,7.521799 -2.651e-4,0.07053 0.027831,0.138134 0.077678,0.18798 0.049581,0.05011 0.1169353,0.0782 0.1874626,0.0782 h 2.6736695 c 0.146622,0 0.26514,-0.118518 0.26514,-0.265141 0,-0.07928 -1.16e-4,-7.939527 -0.0062,-8.731501 C 12.386211,8.4148122 10.515274,6.5287749 8.1266261,6.5287749 Z m 13.0068863,0.024857 c -0.146622,0 -0.26514,0.1185177 -0.26514,0.2651402 l 5.3e-4,0.5214769 c 0.004,5.3104931 0.004,8.0657801 0,8.1882741 -0.04136,1.034577 -0.368379,1.841556 -1.056418,2.600653 -1.930485,-0.05117 -3.077382,-1.373211 -3.152682,-3.643606 -0.01617,-0.49157 -0.02378,-6.4161691 -0.02537,-7.5989595 C 16.634178,6.594424 16.433442,6.5707189 16.370339,6.5707189 h -0.001 l -2.654509,5.303e-4 c -0.143175,0 -0.260632,0.1141967 -0.26514,0.2573723 -0.0037,0.115336 -0.0041,6.0819725 -0.0041,8.6424305 0,2.108925 1.504178,4.366528 3.743552,4.366528 1.095029,0 2.076677,-0.403838 2.846114,-1.169828 0.01379,2.65e-4 0.02687,5.3e-4 0.04039,5.3e-4 1.528799,0 2.968746,-0.886023 3.668981,-2.256798 0.313396,-0.613535 0.313818,-1.231663 0.313818,-1.885499 V 6.81877 h 5.31e-4 c 0,-0.1466225 -0.118518,-0.2651402 -0.26514,-0.2651402 z M 8.1266367,7.0590533 c 2.0911603,0 3.7290513,1.6529295 3.7290513,3.7653017 0.0056,0.708454 0.0062,7.077076 0.0062,8.464289 H 9.7200677 c 0.00318,-1.299717 0.015137,-6.781875 -0.00103,-7.275301 C 9.645855,9.787756 8.1562889,8.2359939 5.9521786,8.0098296 6.4519678,7.515608 7.171869,7.0590533 8.1266388,7.0590533 Z m 13.2725443,0.024857 h 2.12889 v 7.4410147 h 5.3e-4 c 0,0.614064 2.9e-5,1.144643 -0.255301,1.644697 -0.542742,1.062682 -1.595187,1.790877 -2.757562,1.939355 0.560242,-0.74849 0.843697,-1.575276 0.882938,-2.559741 0.0042,-0.110564 0.0048,-2.718984 5.3e-4,-8.2095068 z m -5.294518,0.016571 c 0.0024,1.8726852 0.01025,6.9342027 0.02589,7.4021757 0.07742,2.349937 1.243056,3.845481 3.156307,4.114333 -0.601072,0.453125 -1.315667,0.689779 -2.0973,0.689779 -1.922266,0 -3.213789,-1.9837 -3.213789,-3.836765 0,-3.55553 9.81e-4,-7.3572299 0.0031,-8.3690048 z m -7.9769904,0.6214223 -0.039357,5.303e-4 c -0.072914,0.00159 -0.1310537,0.062233 -0.1294629,0.1356773 0.00159,0.072118 0.060717,0.1294629 0.1325701,0.1294629 h 0.0026 l 0.034178,-5.303e-4 c 0.3017295,0 0.5969631,0.042054 0.8782769,0.125838 0.012727,0.00371 0.025859,0.0057 0.038321,0.0057 0.05727,0 0.1099046,-0.037497 0.1268739,-0.094767 0.02068,-0.070797 -0.019327,-0.1445185 -0.08959,-0.1651995 C 8.7761111,7.7679374 8.45513,7.7219024 8.1276819,7.7219024 Z m 14.7339224,0.024857 c -0.07318,0 -0.13257,0.059391 -0.13257,0.1325701 v 0.7586531 c 0,0.073179 0.05939,0.1325701 0.13257,0.1325701 0.07318,0 0.13257,-0.059391 0.13257,-0.1325701 V 7.8793307 c 0,-0.073179 -0.05939,-0.1325701 -0.13257,-0.1325701 z m -8.250417,0.017088 c -0.07318,0 -0.13257,0.059391 -0.13257,0.1325701 -0.0013,1.6035679 -0.0021,4.7779333 -0.0021,7.5741023 0,0.223248 0.024,0.452412 0.07146,0.681493 0.01299,0.06257 0.06822,0.105642 0.129462,0.105642 0.009,0 0.01817,-9.81e-4 0.02745,-0.0031 0.07185,-0.01485 0.117382,-0.08454 0.102534,-0.156392 -0.04375,-0.211316 -0.06577,-0.422683 -0.06577,-0.627637 0,-2.796433 7.43e-4,-5.9707991 0.0021,-7.5741018 0,-0.072914 -0.05939,-0.1325701 -0.13257,-0.1325701 z m -4.508936,0.6571545 c -0.03381,0.00318 -0.06664,0.019273 -0.09011,0.047642 -0.046665,0.056475 -0.03835,0.1402798 0.01812,0.1869445 0.645085,0.5324015 1.014989,1.3219312 1.014989,2.1677284 0.0053,0.658078 0.006,6.037172 0.0062,7.669905 0,0.07318 0.05939,0.13257 0.13257,0.13257 0.07318,0 0.13257,-0.05939 0.13257,-0.13257 -2.65e-4,-1.632999 -0.0012,-7.012863 -0.0062,-7.670941 2.65e-4,-0.9237483 -0.404977,-1.7882005 -1.11131,-2.3712438 -0.02797,-0.023332 -0.06303,-0.033217 -0.09684,-0.030035 z M 4.7978847,8.5276804 C 4.3561611,9.1040952 3.9546145,9.8955058 3.908215,11.058941 c -0.00689,0.16969 -0.00186,6.650793 -5.303e-4,8.229702 H 1.7870936 c -0.00689,-2.49656 -0.01433,-6.869069 5.171e-4,-7.144284 0.00504,-0.08723 0.00872,-0.174309 0.012428,-0.26048 0.022008,-0.50297 0.042834,-0.977393 0.2480523,-1.421503 C 2.5545088,9.3646957 3.5639224,8.6626376 4.7978847,8.5276812 Z M 22.861595,9.3344946 c -0.07318,0 -0.13257,0.059391 -0.13257,0.1325701 V 14.51146 c 0,0.539295 1.7e-4,0.929304 -0.183837,1.226792 -0.14132,0.229081 -0.324739,0.440928 -0.543745,0.629707 -0.05541,0.04799 -0.06144,0.131531 -0.01398,0.186945 0.02625,0.03076 0.06308,0.04609 0.100463,0.04609 0.03076,0 0.06156,-0.01063 0.08648,-0.03211 0.239686,-0.206544 0.44041,-0.439184 0.596047,-0.691332 0.223779,-0.361649 0.223712,-0.80479 0.223712,-1.366092 V 9.4670647 c 0,-0.073179 -0.05939,-0.1325701 -0.13257,-0.1325701 z M 2.4623725,12.050628 c -0.071853,-0.0042 -0.1355903,0.05214 -0.1393022,0.12532 -0.00345,0.06363 -0.00566,0.279247 -0.00725,0.605369 -2.651e-4,0.07291 0.058873,0.132823 0.1320521,0.133088 h 5.302e-4 c 0.072914,0 0.132305,-0.05914 0.1325701,-0.132052 0.00159,-0.318964 0.00355,-0.52985 0.00673,-0.592423 0.00371,-0.07318 -0.052141,-0.135325 -0.1253201,-0.139302 z m -0.015535,1.383183 c -0.072914,0 -0.132305,0.05914 -0.1325701,0.132052 -0.00265,1.266574 0.00117,3.110343 0.00621,4.927878 2.651e-4,0.07318 0.059657,0.132053 0.1325701,0.132053 0.073179,-2.65e-4 0.1328352,-0.06018 0.1325701,-0.133088 -0.00503,-1.817271 -0.00886,-3.660281 -0.00621,-4.926325 2.651e-4,-0.07318 -0.059391,-0.132305 -0.1325706,-0.13257 z m 12.5724095,3.528642 c -0.01708,0.0017 -0.03432,0.0063 -0.05023,0.01502 -0.06443,0.035 -0.08834,0.116048 -0.05334,0.180212 0.116132,0.214234 0.252264,0.411697 0.403925,0.58828 0.02625,0.03049 0.06308,0.04609 0.100463,0.04609 0.03049,0 0.06129,-0.01063 0.08648,-0.03211 0.05541,-0.04772 0.06171,-0.131265 0.01398,-0.186944 -0.139198,-0.162266 -0.264701,-0.344927 -0.371817,-0.542191 -0.02645,-0.04832 -0.07822,-0.07335 -0.129463,-0.06836 z m 0.873098,1.019133 c -0.03344,0.0058 -0.06489,0.02441 -0.08596,0.05438 -0.04216,0.05992 -0.0273,0.142197 0.03262,0.184355 0.351576,0.24711 0.734671,0.387428 1.139275,0.417388 0.0034,2.66e-4 0.0064,5.31e-4 0.0098,5.31e-4 0.06867,0 0.127015,-0.05352 0.132052,-0.123249 0.005,-0.07265 -0.0493,-0.136071 -0.122213,-0.141374 -0.356083,-0.02625 -0.694634,-0.150993 -1.006704,-0.370264 -0.0297,-0.02095 -0.06547,-0.02758 -0.09891,-0.02175 z" fill="#616161" stroke="#616161" stroke-width="0.05" />
</svg>
