<svg width="26" height="26" viewBox="0 0 1.56 1.56" xmlns="http://www.w3.org/2000/svg">
<title>Santander</title>
<path class="a" d="m 0.46507981,0.71048339 c 0,0.26755772 0.29327206,0.46695391 0.32017741,0.69752651 0,0 0.0532481,-0.053244 0.0532481,-0.1825594 0,-0.1293152 -0.27472737,-0.51528734 -0.27472737,-0.6389632 0,-0.0953946 0.00891,-0.13354027 0.0560275,-0.18916647 0,0.21578994 0.35054798,0.45624583 0.35054798,0.69120877 0,0 0.0532481,-0.053248 0.0532481,-0.18255944 0,-0.12931126 -0.27472353,-0.5152871 -0.27472353,-0.63896316 0,-0.0953986 0.00891,-0.13354027 0.0560235,-0.18916647 0,0.17163871 0.22177993,0.3600536 0.31252953,0.63836952 v 0 c 0.2458487,0.0675402 0.4145505,0.20663149 0.4145505,0.36725025 0,0.2268605 -0.3365094,0.4107612 -0.75165332,0.4107612 -0.415144,0 -0.75165344,-0.1839009 -0.75165344,-0.4107612 0,-0.16533263 0.17874738,-0.30783485 0.43640507,-0.37297691 z" fill="none" stroke="#616161" stroke-width="0.04"/>
</svg>
