<svg
   width="25"
   height="25"
   viewBox="0 0 1 1"
   xmlns="http://www.w3.org/2000/svg">
  <title>Visa</title>
  <path
     d="m 0.49826324,0.36607568 -0.0594638,0.27808171 h -0.0719623 l 0.0595529,-0.27808171 z m 0.30272225,0.17954929 0.0378517,-0.10444019 0.0218204,0.10444019 z m 0.080245,0.0985324 h 0.0665592 L 0.88972105,0.36607568 h -0.0614231 c -8.907e-5,0 -2.0786e-4,0 -2.9692e-4,0 -0.0136263,0 -0.0253233,0.008342 -0.0302514,0.0201874 l -8.907e-5,2.0781e-4 -0.1079136,0.25768647 h 0.0755246 l 0.0150218,-0.0415624 h 0.0922982 z M 0.69345781,0.55337337 C 0.69375466,0.47995645 0.5919566,0.47591901 0.59266907,0.44311438 c 2.3755e-4,-0.009974 0.009708,-0.0206031 0.0304889,-0.0233046 0.003857,-3.8596e-4 0.008312,-6.2337e-4 0.0128252,-6.2337e-4 0.0211075,0 0.0411172,0.00481 0.0589294,0.0134186 l -8.0018e-4,-3.5636e-4 0.0126172,-0.0589889 c -0.0199795,-0.007748 -0.0431061,-0.012261 -0.0672716,-0.01235 h -2.968e-5 c -0.071131,0 -0.1211542,0.0378515 -0.12159958,0.0919716 -4.4535e-4,0.0400186 0.0357139,0.0623137 0.0629965,0.0756731 0.0280544,0.0136265 0.0374655,0.0223842 0.0373173,0.0345264 -1.7812e-4,0.018703 -0.0223251,0.0268968 -0.0430465,0.0272234 -9.4761e-4,2.968e-5 -0.002109,2.968e-5 -0.003235,2.968e-5 -0.0258578,0 -0.0502014,-0.006501 -0.0714575,-0.0179905 l 8.0167e-4,3.8594e-4 -0.0130328,0.0609185 c 0.0233343,0.009351 0.0503795,0.0147546 0.0787012,0.0147546 4.4534e-4,0 8.891e-4,0 0.001333,0 h -5.937e-5 c 0.075584,0 0.12501353,-0.037317 0.12528076,-0.0951184 z M 0.39545583,0.36607568 0.27890318,0.64415739 H 0.20284412 L 0.1454881,0.42218484 c -0.001098,-0.010806 -0.007719,-0.0198311 -0.0169219,-0.0243436 l -1.781e-4,-8.911e-5 C 0.10796326,0.38771736 0.08421332,0.37955366 0.05936504,0.37441775 l -0.0019589,-3.2655e-4 0.0017224,-0.008045 h 0.12243081 c 0,0 2.968e-5,0 2.968e-5,0 0.0166843,0 0.0305186,0.0122019 0.0331013,0.0281437 l 2.969e-5,1.7812e-4 0.0303109,0.16093528 0.0748716,-0.18928673 z"  fill="none" stroke="#616161" stroke-width="0.02"/>
  <rect
     style="fill:none;stroke:#616161;stroke-width:0.02"
     width="0.95"
     height="0.65"
     x="0.02210726"
     y="0.16538803"
     rx="0.061366819"
     ry="0.059650525" />
</svg>
