<svg width="26" height="25" viewBox="0 0 26 25" fill="none" xmlns="http://www.w3.org/2000/svg">
<path fill-rule="evenodd" clip-rule="evenodd" d="M12.7996 1L1.19 8.6941L6.02215 11.7966L11.7956 7.94944L9.50546 6.46201L12.6423 4.38395L19.4492 8.85031L8.28208 16.2631L10.6975 17.8449L24.5935 8.69526L24.5621 8.66427L12.7996 1ZM24.3769 1.00314L19.5464 4.16682L21.9616 5.7796L24.3769 4.16682V1.00314ZM1.11035 24.1342L5.94102 20.9707L3.52576 19.3578L1.11035 20.9707V24.1342Z" stroke="#616161" stroke-width="0.7"/>
<path fill-rule="evenodd" clip-rule="evenodd" d="M12.7941 24.1277L24.4035 16.4335L19.5715 13.3309L13.7982 17.1781L16.088 18.6656L12.9513 20.7438L6.14443 16.2773L17.3114 8.86457L14.8961 7.28265L1 16.4323L1.03135 16.4637L12.7941 24.1277Z" stroke="#616161" stroke-width="0.7"/>
</svg>
