<svg width="14" height="15" viewBox="0 0 14 15" fill="none" xmlns="http://www.w3.org/2000/svg">
<path d="M12.949 1.90645C12.2752 1.23266 11.3613 0.854126 10.4084 0.854126C9.45548 0.854126 8.54159 1.23266 7.86776 1.90645L1.02031 8.75304C0.360588 9.42972 -0.00596086 10.3391 7.33377e-05 11.2841C0.00610753 12.2291 0.384239 13.1337 1.05255 13.8019C1.72086 14.4701 2.62554 14.8481 3.57059 14.8541C4.51565 14.86 5.42498 14.4933 6.10159 13.8335L12.9497 6.98692C13.6224 6.31261 14.0001 5.399 14 4.44654C13.9999 3.49408 13.6219 2.58057 12.949 1.90645ZM5.33859 13.0705C4.86722 13.542 4.22787 13.8069 3.56119 13.8069C2.89451 13.807 2.25511 13.5422 1.78365 13.0709C1.31219 12.5995 1.04729 11.9602 1.04723 11.2935C1.04717 10.6268 1.31194 9.98747 1.78331 9.51602L4.8252 6.47421L8.38048 10.0287L5.33859 13.0705ZM12.186 6.22393L9.14281 9.26574L5.58888 5.71123L8.63144 2.66943C9.10468 2.20713 9.7411 1.95004 10.4027 1.9539C11.0642 1.95777 11.6976 2.22228 12.1654 2.69007C12.6332 3.15787 12.8977 3.79122 12.9016 4.45276C12.9055 5.11431 12.6483 5.75071 12.186 6.22393ZM11.1451 4.78972C11.1953 4.83984 11.2351 4.89936 11.2622 4.96488C11.2894 5.0304 11.3034 5.10062 11.3034 5.17155C11.3034 5.24247 11.2894 5.3127 11.2622 5.37821C11.2351 5.44373 11.1953 5.50325 11.1451 5.55337L9.52599 7.17243C9.47585 7.22253 9.41633 7.26226 9.35083 7.28936C9.28533 7.31645 9.21514 7.33038 9.14426 7.33035C9.07337 7.33032 9.00319 7.31633 8.93771 7.28918C8.87224 7.26202 8.81275 7.22224 8.76266 7.17209C8.71256 7.12195 8.67282 7.06243 8.64573 6.99694C8.61863 6.93144 8.6047 6.86125 8.60473 6.79037C8.60476 6.71949 8.61876 6.6493 8.64591 6.58383C8.67306 6.51836 8.71285 6.45887 8.76299 6.40878L10.3821 4.78972C10.4833 4.68858 10.6205 4.63177 10.7636 4.63177C10.9067 4.63177 11.0439 4.68858 11.1451 4.78972Z" fill="#565656"/>
</svg>
