<?xml version="1.0" encoding="UTF-8" standalone="no"?>
<svg
        width="20"
        height="12"
        viewBox="0 0 20 12"
        fill="none"
        version="1.1"
        id="svg1"
        xmlns="http://www.w3.org/2000/svg"
>
  <defs
          id="defs1"/>
  <path
          d="M 4.0280755,0.88135598 V 10.949154 c 0,0.121361 -0.06115,0.237782 -0.1699782,0.323633 -0.1088365,0.08576 -0.2564488,0.133993 -0.4103608,0.133993 -0.1539197,0 -0.301532,-0.04824 -0.4103608,-0.133993 C 2.928537,11.186936 2.8673944,11.070515 2.8673944,10.949154 V 0.88135598 c 0,-0.12137011 0.061143,-0.23776937 0.1699813,-0.32359092 0.1088288,-0.0858221 0.2564411,-0.13403624 0.4103608,-0.13403624 0.153912,0 0.3015243,0.0482142 0.4103608,0.13403624 0.1088288,0.0858216 0.1699782,0.20222081 0.1699782,0.32359092 z M 5.1887535,4.5423729 V 2.2542373 c 0,-0.2427438 0.1222836,-0.4755387 0.3399488,-0.6471854 0.217673,-0.1716377 0.5128976,-0.2680688 0.8207293,-0.2680688 h 6.9640674 c 0.307809,0 0.603019,0.096431 0.820722,0.2680688 0.217704,0.1716467 0.339956,0.4044416 0.339956,0.6471854 v 2.2881356 c 0,0.2427438 -0.122252,0.4755387 -0.339956,0.6471854 -0.217703,0.1716377 -0.512913,0.2680689 -0.820722,0.2680689 H 6.3494316 c -0.3078317,0 -0.6030563,-0.096431 -0.8207293,-0.2680689 C 5.3110371,5.0179116 5.1887535,4.7851167 5.1887535,4.5423729 Z m 1.1606781,0 H 13.313499 V 2.2542373 H 6.3494316 Z M 17.375873,7.2881356 v 2.288136 c 0,0.2427254 -0.122253,0.4755664 -0.339957,0.6471764 -0.217703,0.17161 -0.512912,0.268078 -0.820722,0.268078 H 6.3494316 c -0.3078317,0 -0.6030563,-0.09647 -0.8207293,-0.268078 C 5.3110371,10.051838 5.1887535,9.818997 5.1887535,9.5762716 v -2.288136 c 0,-0.2427437 0.1222836,-0.4755386 0.3399488,-0.6471854 0.217673,-0.1716376 0.5128976,-0.2680688 0.8207293,-0.2680688 h 9.8657624 c 0.30781,0 0.603019,0.096431 0.820722,0.2680688 0.217704,0.1716468 0.339957,0.4044417 0.339957,0.6471854 z m -1.160679,2.288136 V 7.2881356 H 6.3494316 v 2.288136 z"
          fill="#616161"
          id="path1"
          style="fill:#616161;fill-opacity:1;stroke:none;stroke-width:0;stroke-linecap:butt;stroke-linejoin:miter;stroke-dasharray:none;stroke-opacity:1;paint-order:markers fill stroke"/>
</svg>
