<svg width="12" height="13" viewBox="0 0 12 13" fill="none" xmlns="http://www.w3.org/2000/svg">
<path d="M0 10.9648V2.03496C0 1.61252 0.108562 1.25104 0.325687 0.950522C0.542812 0.650174 0.799625 0.5 1.09613 0.5H10.9039C11.2004 0.5 11.4572 0.650174 11.6743 0.950522C11.8914 1.25104 12 1.61252 12 2.03496V10.9648C12 11.3872 11.8914 11.7487 11.6743 12.0492C11.4572 12.3497 11.2004 12.5 10.9039 12.5H1.09613C0.799625 12.5 0.542812 12.3497 0.325687 12.0492C0.108562 11.7487 0 11.3872 0 10.9648ZM0.634688 4.20696H2.66156V1.38278H1.09613C0.9615 1.38278 0.850938 1.44296 0.764438 1.5633C0.677938 1.68383 0.634688 1.83774 0.634688 2.02504V4.20696ZM3.29606 4.20696H11.3653V2.02504C11.3653 1.83774 11.3221 1.68383 11.2356 1.5633C11.1491 1.44296 11.0385 1.38278 10.9039 1.38278H3.29606V4.20696ZM3.29606 7.91H11.3653V5.08974H3.29606V7.91ZM3.29606 11.617H10.9039C11.0385 11.617 11.1491 11.5568 11.2356 11.4364C11.3221 11.3159 11.3653 11.162 11.3653 10.9747V8.79278H3.29606V11.617ZM1.09613 11.617H2.66156V8.79278H0.634688V10.9747C0.634688 11.162 0.677938 11.3159 0.764438 11.4364C0.850938 11.5568 0.9615 11.617 1.09613 11.617ZM0.634688 7.91H2.66156V5.08974H0.634688V7.91Z" fill="#646464"/>
</svg>
