<svg width="12" height="7" viewBox="0 0 12 7" fill="none" xmlns="http://www.w3.org/2000/svg">
<path d="M11.8402 1.15867L6.38589 6.61294C6.33523 6.66365 6.27508 6.70388 6.20887 6.73133C6.14265 6.75878 6.07168 6.77291 6 6.77291C5.92832 6.77291 5.85735 6.75878 5.79113 6.73133C5.72492 6.70388 5.66476 6.66365 5.61411 6.61294L0.159841 1.15867C0.0574964 1.05633 0 0.917518 0 0.772781C0 0.628044 0.0574964 0.489235 0.159841 0.386891C0.262185 0.284547 0.400994 0.227051 0.54573 0.227051C0.690467 0.227051 0.829275 0.284547 0.93162 0.386891L6 5.45595L11.0684 0.386891C11.1191 0.336215 11.1792 0.296017 11.2454 0.268592C11.3116 0.241166 11.3826 0.227051 11.4543 0.227051C11.5259 0.227051 11.5969 0.241166 11.6631 0.268592C11.7293 0.296017 11.7895 0.336215 11.8402 0.386891C11.8908 0.437567 11.931 0.497728 11.9585 0.563939C11.9859 0.63015 12 0.701115 12 0.772781C12 0.844447 11.9859 0.915412 11.9585 0.981623C11.931 1.04783 11.8908 1.10799 11.8402 1.15867Z" fill="#616161"/>
</svg>
