<svg width="20" height="13" viewBox="0 0 20 13" fill="none" xmlns="http://www.w3.org/2000/svg">
<path d="M6 3C6 3.0663 5.97366 3.12989 5.92678 3.17678C5.87989 3.22366 5.8163 3.25 5.75 3.25H3.25V5.75C3.25 5.8163 3.22366 5.87989 3.17678 5.92678C3.12989 5.97366 3.0663 6 3 6C2.9337 6 2.87011 5.97366 2.82322 5.92678C2.77634 5.87989 2.75 5.8163 2.75 5.75V3.25H0.25C0.183696 3.25 0.120107 3.22366 0.0732234 3.17678C0.0263393 3.12989 0 3.0663 0 3C0 2.9337 0.0263393 2.87011 0.0732234 2.82322C0.120107 2.77634 0.183696 2.75 0.25 2.75H2.75V0.25C2.75 0.183696 2.77634 0.120107 2.82322 0.0732234C2.87011 0.0263393 2.9337 0 3 0C3.0663 0 3.12989 0.0263393 3.17678 0.0732234C3.22366 0.120107 3.25 0.183696 3.25 0.25V2.75H5.75C5.8163 2.75 5.87989 2.77634 5.92678 2.82322C5.97366 2.87011 6 2.9337 6 3Z" fill="#616161"/>
<path d="M10.2654 10.2104H18.3017C18.4103 10.2104 18.5098 10.1689 18.6003 10.086C18.6907 10.0031 18.736 9.91182 18.736 9.81228V3.24204H9.8311V9.81228C9.8311 9.91182 9.87633 10.0031 9.9668 10.086C10.0573 10.1689 10.1568 10.2104 10.2654 10.2104ZM10.2654 10.758C9.97633 10.758 9.7321 10.6666 9.53269 10.4839C9.33339 10.3011 9.23374 10.0773 9.23374 9.81228V2.44568C9.23374 2.1806 9.33339 1.95672 9.53269 1.77403C9.7321 1.59134 9.97633 1.5 10.2654 1.5H18.3017C18.5909 1.5 18.8351 1.59134 19.0344 1.77403C19.2337 1.95672 19.3333 2.1806 19.3333 2.44568V9.81228C19.3333 10.0773 19.2337 10.3011 19.0344 10.4839C18.8351 10.6666 18.5909 10.758 18.3017 10.758H10.2654ZM8.36498 12.5C8.0758 12.5 7.83157 12.4087 7.63227 12.226C7.43298 12.0433 7.33333 11.8194 7.33333 11.5543V3.64031H7.93069V11.5543C7.93069 11.6539 7.97592 11.7451 8.06639 11.828C8.15686 11.911 8.25639 11.9524 8.36498 11.9524H16.9985V12.5H8.36498Z" fill="#616161"/>
</svg>
