<svg width="14" height="9" viewBox="0 0 14 9" fill="none" xmlns="http://www.w3.org/2000/svg">
<path d="M13.125 3.39588H11.556L9.1875 1.02736C9.10654 0.945758 9.01017 0.881059 8.90399 0.837028C8.79781 0.792997 8.68393 0.770511 8.56898 0.770878H2.42156C2.27784 0.771145 2.1364 0.806809 2.00973 0.87472C1.88307 0.942631 1.77508 1.0407 1.69531 1.16025L0.0732813 3.59057C0.0256221 3.66259 0.000142657 3.74701 0 3.83338L0 6.45838C0 6.69044 0.0921872 6.913 0.256282 7.0771C0.420376 7.24119 0.642936 7.33338 0.875 7.33338H1.80469C1.90107 7.70981 2.11999 8.04346 2.42695 8.28172C2.7339 8.51998 3.11143 8.64931 3.5 8.64931C3.88857 8.64931 4.2661 8.51998 4.57305 8.28172C4.88001 8.04346 5.09893 7.70981 5.19531 7.33338H8.80469C8.90107 7.70981 9.11999 8.04346 9.42695 8.28172C9.7339 8.51998 10.1114 8.64931 10.5 8.64931C10.8886 8.64931 11.2661 8.51998 11.5731 8.28172C11.88 8.04346 12.0989 7.70981 12.1953 7.33338H13.125C13.3571 7.33338 13.5796 7.24119 13.7437 7.0771C13.9078 6.913 14 6.69044 14 6.45838V4.27088C14 4.03881 13.9078 3.81625 13.7437 3.65216C13.5796 3.48807 13.3571 3.39588 13.125 3.39588ZM2.42156 1.64588H8.56898L10.319 3.39588H1.25781L2.42156 1.64588ZM3.5 7.77088C3.32694 7.77088 3.15777 7.71956 3.01388 7.62341C2.86998 7.52727 2.75783 7.39061 2.69161 7.23073C2.62538 7.07084 2.60805 6.89491 2.64181 6.72517C2.67557 6.55544 2.75891 6.39953 2.88128 6.27716C3.00365 6.15479 3.15956 6.07145 3.3293 6.03769C3.49903 6.00393 3.67496 6.02126 3.83485 6.08748C3.99473 6.15371 4.13139 6.26586 4.22754 6.40975C4.32368 6.55365 4.375 6.72282 4.375 6.89588C4.375 7.12794 4.28281 7.3505 4.11872 7.5146C3.95462 7.67869 3.73206 7.77088 3.5 7.77088ZM10.5 7.77088C10.3269 7.77088 10.1578 7.71956 10.0139 7.62341C9.86998 7.52727 9.75783 7.39061 9.69161 7.23073C9.62538 7.07084 9.60805 6.89491 9.64181 6.72517C9.67558 6.55544 9.75891 6.39953 9.88128 6.27716C10.0037 6.15479 10.1596 6.07145 10.3293 6.03769C10.499 6.00393 10.675 6.02126 10.8348 6.08748C10.9947 6.15371 11.1314 6.26586 11.2275 6.40975C11.3237 6.55365 11.375 6.72282 11.375 6.89588C11.375 7.12794 11.2828 7.3505 11.1187 7.5146C10.9546 7.67869 10.7321 7.77088 10.5 7.77088ZM13.125 6.45838H12.1953C12.0989 6.08195 11.88 5.7483 11.5731 5.51004C11.2661 5.27177 10.8886 5.14245 10.5 5.14245C10.1114 5.14245 9.7339 5.27177 9.42695 5.51004C9.11999 5.7483 8.90107 6.08195 8.80469 6.45838H5.19531C5.09893 6.08195 4.88001 5.7483 4.57305 5.51004C4.2661 5.27177 3.88857 5.14245 3.5 5.14245C3.11143 5.14245 2.7339 5.27177 2.42695 5.51004C2.11999 5.7483 1.90107 6.08195 1.80469 6.45838H0.875V4.27088H13.125V6.45838Z" fill="#565656"/>
</svg>
