<svg width="14" height="12" viewBox="0 0 14 12" fill="none" xmlns="http://www.w3.org/2000/svg">
<path d="M13.5403 2.32722L10.7095 0.783818C10.6453 0.748328 10.5733 0.729522 10.5 0.729126H8.74986C8.63382 0.729126 8.52253 0.775223 8.44048 0.857277C8.35842 0.93933 8.31233 1.05062 8.31233 1.16666C8.31233 1.51478 8.17403 1.84865 7.92787 2.09481C7.68171 2.34097 7.34785 2.47926 6.99973 2.47926C6.6516 2.47926 6.31774 2.34097 6.07158 2.09481C5.82542 1.84865 5.68713 1.51478 5.68713 1.16666C5.68713 1.05062 5.64103 0.93933 5.55898 0.857277C5.47692 0.775223 5.36563 0.729126 5.24959 0.729126H3.49946C3.42597 0.72943 3.35374 0.748239 3.28944 0.783818L0.459149 2.32722C0.257392 2.43384 0.10615 2.61612 0.0385863 2.83409C-0.0289773 3.05205 -0.00734837 3.28792 0.0987305 3.48996L1.15264 5.50316C1.22927 5.6479 1.34414 5.76885 1.48473 5.85284C1.62533 5.93683 1.78627 5.98065 1.95004 5.97953H3.06193V10.3549C3.06193 10.5869 3.15412 10.8095 3.31823 10.9736C3.48233 11.1377 3.70491 11.2299 3.93699 11.2299H10.0625C10.2945 11.2299 10.5171 11.1377 10.6812 10.9736C10.8453 10.8095 10.9375 10.5869 10.9375 10.3549V5.97953H12.05C12.2137 5.98065 12.3747 5.93683 12.5153 5.85284C12.6559 5.76885 12.7707 5.6479 12.8474 5.50316L13.9013 3.48996C14.0073 3.28785 14.0289 3.05193 13.9612 2.83396C13.8935 2.61598 13.7422 2.43375 13.5403 2.32722ZM1.95004 5.10446C1.94196 5.10484 1.93401 5.10232 1.92762 5.09735L0.879181 3.09509L3.06193 1.9039V5.10446H1.95004ZM10.0625 10.3549H3.93699V1.60419H4.85581C4.95676 2.09814 5.22521 2.54207 5.61577 2.86089C6.00633 3.1797 6.49502 3.35383 6.99918 3.35383C7.50334 3.35383 7.99203 3.1797 8.38259 2.86089C8.77314 2.54207 9.0416 2.09814 9.14254 1.60419H10.0625V10.3549ZM12.0724 5.0968C12.0694 5.09953 12.0658 5.10162 12.062 5.10293C12.0581 5.10425 12.054 5.10477 12.05 5.10446H10.9375V1.9039L13.1208 3.09509L12.0724 5.0968Z" fill="#565656"/>
</svg>
