<svg width="14" height="15" viewBox="0 0 14 15" fill="none" xmlns="http://www.w3.org/2000/svg">
<path d="M13.7682 4.12125L7.20562 0.121228C7.14232 0.0827079 7.0717 0.062561 6.99999 0.062561C6.92828 0.062561 6.85766 0.0827079 6.79436 0.121228L0.231733 4.12125C0.161734 4.16389 0.103194 4.22747 0.0623737 4.30519C0.0215538 4.38291 -9.53674e-06 4.47186 -9.53674e-06 4.5625C-9.53674e-06 4.65315 0.0215538 4.7421 0.0623737 4.81982C0.103194 4.89754 0.161734 4.96112 0.231733 5.00376L1.74989 5.92939V8.95566C1.74943 9.20125 1.82852 9.43836 1.97192 9.62129C2.68834 10.5332 4.29345 12.0625 6.99999 12.0625C7.8974 12.071 8.7881 11.8853 9.62504 11.515V13.5626C9.62504 13.6952 9.67114 13.8223 9.75318 13.9161C9.83523 14.0099 9.94652 14.0626 10.0626 14.0626C10.1786 14.0626 10.2899 14.0099 10.3719 13.9161C10.454 13.8223 10.5001 13.6952 10.5001 13.5626V11.0319C11.0706 10.6555 11.5861 10.1796 12.0281 9.62129C12.1715 9.43836 12.2505 9.20125 12.2501 8.95566V5.92939L13.7682 5.00376C13.8382 4.96112 13.8968 4.89754 13.9376 4.81982C13.9784 4.7421 14 4.65315 14 4.5625C14 4.47186 13.9784 4.38291 13.9376 4.30519C13.8968 4.22747 13.8382 4.16389 13.7682 4.12125ZM6.99999 11.0625C4.63362 11.0625 3.24179 9.74129 2.62491 8.95566V6.46252L6.79436 9.00378C6.85766 9.0423 6.92828 9.06245 6.99999 9.06245C7.0717 9.06245 7.14232 9.0423 7.20562 9.00378L9.62504 7.5294V10.4257C8.93597 10.7932 8.06751 11.0625 6.99999 11.0625ZM11.3751 8.95316C11.1128 9.28575 10.8194 9.58442 10.5001 9.84379V6.99564L11.3751 6.46252V8.95316ZM10.2813 5.99626L10.2693 5.98814L7.20671 4.12125C7.10453 4.06161 6.98594 4.05022 6.87649 4.08955C6.76704 4.12887 6.67548 4.21576 6.62154 4.3315C6.56761 4.44723 6.55562 4.58255 6.58815 4.70829C6.62068 4.83404 6.69513 4.94015 6.79546 5.00376L9.3516 6.56252L6.99999 7.99565L1.36707 4.5625L6.99999 1.12936L12.6329 4.5625L10.2813 5.99626Z" fill="#565656"/>
</svg>
