<svg width="14" height="14" viewBox="0 0 14 14" fill="none" xmlns="http://www.w3.org/2000/svg">
<path d="M13.9702 2.58257C13.9394 2.45458 13.8834 2.33398 13.8057 2.22777C13.7279 2.12155 13.6298 2.03185 13.5171 1.96384C11.551 0.774523 9.29703 0.145813 6.99924 0.145813C4.70145 0.145813 2.44746 0.774523 0.481413 1.96384C0.369016 2.03201 0.271161 2.12167 0.193449 2.22769C0.115737 2.33372 0.0596919 2.45402 0.0285205 2.58173C-0.00265092 2.70943 -0.00833685 2.84203 0.0117878 2.97193C0.0319125 3.10183 0.077453 3.22649 0.145804 3.33878L6.14553 13.1677C6.23466 13.3146 6.36016 13.4361 6.50991 13.5204C6.65967 13.6048 6.82863 13.6491 7.00049 13.6491C7.17235 13.6491 7.34131 13.6048 7.49106 13.5204C7.64082 13.4361 7.76632 13.3146 7.85545 13.1677L13.8552 3.33878C13.9236 3.22669 13.969 3.10208 13.9888 2.97224C14.0085 2.84241 14.0022 2.70993 13.9702 2.58257ZM2.9738 6.05116C3.13625 5.89806 3.33083 5.78315 3.54334 5.71482C3.75585 5.64648 3.98094 5.62644 4.20218 5.65615C4.42342 5.68587 4.63524 5.76459 4.82218 5.88658C5.00913 6.00857 5.16649 6.17074 5.28279 6.36128C5.39909 6.55182 5.4714 6.76591 5.49443 6.98795C5.51747 7.20998 5.49066 7.43436 5.41595 7.64472C5.34124 7.85507 5.22052 8.0461 5.0626 8.20387C4.90468 8.36164 4.71353 8.48217 4.5031 8.55667L2.9738 6.05116ZM8.46855 10.2353C8.21817 9.99925 8.05659 9.68424 8.01091 9.34315C7.96523 9.00207 8.03823 8.65564 8.21766 8.36199C8.39709 8.06834 8.67204 7.84531 8.99639 7.73033C9.32075 7.61534 9.67478 7.61539 9.9991 7.73045L8.46855 10.2353ZM10.5266 6.86487C9.97086 6.61263 9.34206 6.57239 8.75872 6.75174C8.17538 6.93108 7.67779 7.31761 7.35976 7.83848C7.04172 8.35935 6.9252 8.97856 7.03217 9.5794C7.13913 10.1802 7.46219 10.7212 7.94045 11.1003L6.99924 12.6446L5.03058 9.42163C5.35379 9.27598 5.64232 9.06326 5.87703 8.79758C6.11175 8.5319 6.28727 8.21934 6.39195 7.88064C6.49663 7.54194 6.52807 7.18485 6.4842 6.83307C6.44032 6.48128 6.32213 6.14286 6.13747 5.84024C5.9528 5.53763 5.70588 5.27776 5.4131 5.07787C5.12033 4.87798 4.78838 4.74264 4.4393 4.68085C4.09022 4.61905 3.73199 4.63221 3.38838 4.71944C3.04478 4.80668 2.72365 4.96599 2.44632 5.18682L2.04947 4.53623C3.54004 3.62635 5.25259 3.14496 6.99893 3.14496C8.74527 3.14496 10.4578 3.62635 11.9484 4.53623L10.5266 6.86487ZM12.4702 3.68189C10.8223 2.67683 8.92944 2.14513 6.99924 2.14513C5.06904 2.14513 3.17613 2.67683 1.52824 3.68189L0.999514 2.81818C2.80958 1.72424 4.88428 1.146 6.99924 1.146C9.11419 1.146 11.1889 1.72424 12.999 2.81818L12.4702 3.68189Z" fill="#565656"/>
</svg>
