<svg width="15" height="16" viewBox="0 0 15 16" fill="none" xmlns="http://www.w3.org/2000/svg">
<path d="M13.1058 13.1277L11.9371 13.4409L11.2472 10.8659C11.7929 10.5926 12.2277 10.1394 12.4782 9.58291C12.7287 9.02637 12.7797 8.40046 12.6224 7.81073C11.7881 4.69865 10.0547 1.9693 9.98116 1.85474C9.92136 1.76126 9.83371 1.68892 9.73059 1.64794C9.62746 1.60695 9.51407 1.59938 9.40641 1.62631L7.95897 1.9885C7.95897 1.44223 7.94705 1.09924 7.94506 1.0562C7.93978 0.942405 7.89796 0.833345 7.8258 0.745199C7.75363 0.657054 7.65498 0.59452 7.54447 0.566875L5.42561 0.0371598C5.31795 0.0102368 5.20456 0.0178035 5.10144 0.0587915C4.99831 0.0997796 4.91067 0.172119 4.85087 0.265599C4.77737 0.38015 3.04388 3.10818 2.20957 6.22489C2.05234 6.81462 2.10328 7.44053 2.35381 7.99707C2.60434 8.55361 3.03912 9.00674 3.58485 9.28003L2.89489 11.8518L1.72621 11.5386C1.59046 11.5022 1.44583 11.5213 1.32414 11.5916C1.20245 11.6619 1.11366 11.7776 1.07731 11.9134C1.04096 12.0491 1.06002 12.1937 1.1303 12.3154C1.20059 12.4371 1.31633 12.5259 1.45208 12.5623L4.63037 13.4138C4.67512 13.4255 4.72117 13.4316 4.76744 13.4317C4.89606 13.4318 5.02034 13.3852 5.11709 13.3004C5.21384 13.2156 5.27645 13.0986 5.29323 12.9711C5.31001 12.8435 5.27982 12.7143 5.20829 12.6074C5.13676 12.5005 5.02878 12.4232 4.9045 12.3901L3.9179 12.1253L4.60786 9.55018C4.66149 9.55349 4.71446 9.55548 4.76744 9.55548C5.29295 9.554 5.80623 9.39669 6.24233 9.10344C6.67842 8.8102 7.01775 8.39419 7.21737 7.90806C7.2955 8.32985 7.38952 8.75693 7.50275 9.1807C7.65433 9.74429 7.98747 10.2422 8.45058 10.5973C8.9137 10.9525 9.48097 11.1451 10.0646 11.1453C10.1176 11.1453 10.1705 11.1453 10.2242 11.14L10.9141 13.7151L9.92752 13.9799C9.80381 14.0135 9.69649 14.0909 9.62546 14.1976C9.55443 14.3043 9.52451 14.4332 9.54125 14.5603C9.55798 14.6874 9.62024 14.8041 9.71648 14.8888C9.81271 14.9734 9.93639 15.0204 10.0646 15.0208C10.1108 15.0207 10.1569 15.0147 10.2017 15.0029L13.3799 14.1514C13.5157 14.1151 13.6314 14.0263 13.7017 13.9046C13.772 13.7829 13.7911 13.6383 13.7547 13.5025C13.7184 13.3668 13.6296 13.251 13.5079 13.1807C13.3862 13.1105 13.2416 13.0914 13.1058 13.1277ZM9.28458 2.74864C9.46866 3.05985 9.76331 3.57897 10.0924 4.23581L7.94573 4.77347C7.91792 4.11133 7.92056 3.56506 7.92917 3.19823C7.92917 3.16115 7.93248 3.12407 7.93447 3.08699L9.28458 2.74864ZM5.54744 1.15949L6.89623 1.49652C6.9002 1.77992 6.89623 2.20303 6.88232 2.7195C6.87835 2.79962 6.87173 2.93073 6.86709 3.1062C6.86709 3.17241 6.86047 3.23863 6.8565 3.30484L4.6807 2.76453C5.03229 2.05206 5.35277 1.48858 5.54744 1.15949ZM6.30162 7.32339C6.18775 7.72564 5.91996 8.06681 5.55628 8.27298C5.1926 8.47915 4.76232 8.5337 4.3587 8.42483C3.95507 8.31595 3.6106 8.05241 3.39994 7.69131C3.18928 7.33022 3.12939 6.90066 3.23325 6.49571C3.49407 5.55392 3.8261 4.63332 4.22646 3.74185L6.78102 4.38016C6.69187 5.37145 6.53166 6.35505 6.30162 7.32339ZM8.52907 8.90724C8.26967 7.90417 8.09665 6.88073 8.01194 5.84813L10.5552 5.21248C10.9779 6.14125 11.3266 7.10191 11.5981 8.08552C11.6556 8.28817 11.6722 8.50023 11.647 8.70936C11.6218 8.9185 11.5553 9.12053 11.4513 9.30372C11.3473 9.48691 11.2079 9.64759 11.0412 9.77643C10.8746 9.90527 10.684 9.99969 10.4805 10.0542C10.277 10.1087 10.0648 10.1222 9.85602 10.094C9.64728 10.0657 9.44624 9.9962 9.2646 9.88954C9.08295 9.78287 8.92432 9.64116 8.79794 9.47264C8.67156 9.30412 8.57994 9.11215 8.52841 8.9079L8.52907 8.90724ZM11.1776 1.84746C11.1465 1.78521 11.1279 1.71743 11.1229 1.64798C11.118 1.57854 11.1267 1.5088 11.1488 1.44275C11.1708 1.3767 11.2056 1.31564 11.2512 1.26306C11.2969 1.21048 11.3524 1.16741 11.4147 1.13632L12.4741 0.606604C12.5364 0.575474 12.6042 0.556912 12.6736 0.551978C12.743 0.547043 12.8128 0.555833 12.8788 0.577845C12.9448 0.599857 13.0059 0.63466 13.0585 0.680267C13.1111 0.725874 13.1541 0.781392 13.1853 0.843651C13.2164 0.90591 13.235 0.973691 13.2399 1.04312C13.2448 1.11256 13.236 1.18228 13.214 1.24832C13.192 1.31435 13.1572 1.37541 13.1116 1.42799C13.066 1.48058 13.0105 1.52366 12.9482 1.55479L11.8888 2.08451C11.8265 2.11568 11.7588 2.13428 11.6893 2.13924C11.6199 2.1442 11.5501 2.13542 11.4841 2.1134C11.418 2.09138 11.357 2.05657 11.3044 2.01093C11.2518 1.9653 11.2087 1.90975 11.1776 1.84746ZM14.3023 3.72927C14.3023 3.86976 14.2465 4.0045 14.1472 4.10384C14.0478 4.20318 13.9131 4.25899 13.7726 4.25899H12.7132C12.5727 4.25899 12.4379 4.20318 12.3386 4.10384C12.2393 4.0045 12.1834 3.86976 12.1834 3.72927C12.1834 3.58878 12.2393 3.45405 12.3386 3.35471C12.4379 3.25537 12.5727 3.19956 12.7132 3.19956H13.7726C13.9131 3.19956 14.0478 3.25537 14.1472 3.35471C14.2465 3.45405 14.3023 3.58878 14.3023 3.72927ZM1.11505 0.313936C1.14615 0.251646 1.18921 0.196096 1.24179 0.150464C1.29438 0.104832 1.35544 0.0700122 1.42148 0.0479963C1.48753 0.0259805 1.55727 0.0172002 1.62671 0.0221577C1.69616 0.0271153 1.76394 0.0457134 1.82619 0.0768885L2.88562 0.606604C2.94788 0.637733 3.0034 0.680821 3.04901 0.733406C3.09461 0.785991 3.12942 0.847045 3.15143 0.913081C3.17344 0.979116 3.18223 1.04884 3.1773 1.11827C3.17236 1.18771 3.1538 1.25549 3.12267 1.31775C3.09154 1.38001 3.04845 1.43552 2.99587 1.48113C2.94328 1.52674 2.88223 1.56154 2.81619 1.58355C2.68283 1.62801 2.53727 1.61766 2.41153 1.55479L1.3521 1.02508C1.28981 0.993983 1.23426 0.950914 1.18863 0.898334C1.14299 0.845753 1.10817 0.784693 1.08616 0.718646C1.06414 0.652598 1.05536 0.582858 1.06032 0.513415C1.06528 0.443971 1.08388 0.376186 1.11505 0.313936ZM1.58915 3.72927H0.529715C0.389226 3.72927 0.254491 3.67346 0.15515 3.57412C0.0558091 3.47478 0 3.34005 0 3.19956C0 3.05907 0.0558091 2.92433 0.15515 2.82499C0.254491 2.72565 0.389226 2.66984 0.529715 2.66984H1.58915C1.72963 2.66984 1.86437 2.72565 1.96371 2.82499C2.06305 2.92433 2.11886 3.05907 2.11886 3.19956C2.11886 3.34005 2.06305 3.47478 1.96371 3.57412C1.86437 3.67346 1.72963 3.72927 1.58915 3.72927Z" fill="#565656"/>
</svg>
