<svg width="14" height="13" viewBox="0 0 14 13" fill="none" xmlns="http://www.w3.org/2000/svg">
<path d="M13.5333 11.7127H12.6V7.51267L12.7365 7.64917C12.8242 7.73674 12.9431 7.78587 13.0671 7.78576C13.191 7.78565 13.3099 7.73631 13.3974 7.64859C13.485 7.56087 13.5341 7.44196 13.534 7.31801C13.5339 7.19406 13.4846 7.07524 13.3968 6.98767L7.65975 1.25234C7.48473 1.07744 7.24743 0.979187 7 0.979187C6.75257 0.979187 6.51527 1.07744 6.34025 1.25234L0.603167 6.98767C0.515678 7.07524 0.466559 7.19397 0.466613 7.31775C0.466668 7.44153 0.515893 7.56023 0.603458 7.64771C0.691024 7.7352 0.809758 7.78432 0.93354 7.78427C1.05732 7.78421 1.17601 7.73499 1.2635 7.64742L1.4 7.51267V11.7127H0.466667C0.342899 11.7127 0.2242 11.7618 0.136683 11.8494C0.0491665 11.9369 0 12.0556 0 12.1793C0 12.3031 0.0491665 12.4218 0.136683 12.5093C0.2242 12.5968 0.342899 12.646 0.466667 12.646H13.5333C13.6571 12.646 13.7758 12.5968 13.8633 12.5093C13.9508 12.4218 14 12.3031 14 12.1793C14 12.0556 13.9508 11.9369 13.8633 11.8494C13.7758 11.7618 13.6571 11.7127 13.5333 11.7127ZM2.33333 6.57934L7 1.91267L11.6667 6.57934V11.7127H8.86667V8.446C8.86667 8.32224 8.8175 8.20354 8.72998 8.11602C8.64247 8.0285 8.52377 7.97934 8.4 7.97934H5.6C5.47623 7.97934 5.35753 8.0285 5.27002 8.11602C5.1825 8.20354 5.13333 8.32224 5.13333 8.446V11.7127H2.33333V6.57934ZM7.93333 11.7127H6.06667V8.91267H7.93333V11.7127Z" fill="#565656"/>
</svg>
