<svg width="10" height="15" viewBox="0 0 10 15" fill="none" xmlns="http://www.w3.org/2000/svg">
<path d="M9.73913 5.15674C9.73913 7.32598 7.87728 9.12163 5.47826 9.38413V10.0263C5.47826 10.1877 5.41413 10.3426 5.29998 10.4567C5.18583 10.5709 5.031 10.635 4.86956 10.635C4.70813 10.635 4.5533 10.5709 4.43915 10.4567C4.325 10.3426 4.26087 10.1877 4.26087 10.0263V8.80892C4.26087 8.64748 4.325 8.49266 4.43915 8.3785C4.5533 8.26435 4.70813 8.20022 4.86956 8.20022C6.88359 8.20022 8.52174 6.83522 8.52174 5.15674C8.52174 3.47827 6.88359 2.11327 4.86956 2.11327C2.85554 2.11327 1.21739 3.47827 1.21739 5.15674C1.21739 5.31818 1.15326 5.473 1.03911 5.58716C0.924956 5.70131 0.770132 5.76544 0.608696 5.76544C0.447259 5.76544 0.292435 5.70131 0.178283 5.58716C0.0641304 5.473 0 5.31818 0 5.15674C0 2.80718 2.18446 0.895874 4.86956 0.895874C7.55467 0.895874 9.73913 2.80718 9.73913 5.15674ZM4.86956 12.4611C4.62879 12.4611 4.39342 12.5325 4.19322 12.6663C3.99302 12.8 3.83698 12.9902 3.74484 13.2126C3.6527 13.4351 3.62859 13.6798 3.67557 13.916C3.72254 14.1521 3.83848 14.3691 4.00874 14.5393C4.17899 14.7096 4.39591 14.8255 4.63206 14.8725C4.86821 14.9195 5.11299 14.8953 5.33544 14.8032C5.55789 14.7111 5.74802 14.555 5.88179 14.3548C6.01556 14.1546 6.08696 13.9193 6.08696 13.6785C6.08696 13.3556 5.95869 13.046 5.73039 12.8177C5.50208 12.5894 5.19244 12.4611 4.86956 12.4611Z" fill="#565656"/>
</svg>
