<svg width="14" height="15" viewBox="0 0 14 15" fill="none" xmlns="http://www.w3.org/2000/svg">
<path d="M13.8779 2.88249C13.8292 2.82425 13.7684 2.77741 13.6996 2.74527C13.6309 2.71313 13.5559 2.69648 13.48 2.69649H3.02522L2.63119 0.529973C2.60949 0.410512 2.54654 0.302456 2.45334 0.224646C2.36013 0.146835 2.24257 0.104205 2.12115 0.104187H0.518461C0.380957 0.104187 0.249084 0.15881 0.151854 0.256041C0.0546234 0.353271 0 0.485144 0 0.622648C0 0.760152 0.0546234 0.892025 0.151854 0.989255C0.249084 1.08649 0.380957 1.14111 0.518461 1.14111H1.685L3.34148 10.233C3.39028 10.5026 3.50944 10.7546 3.68691 10.9634C3.44196 11.1921 3.26517 11.4843 3.17613 11.8074C3.08709 12.1305 3.08928 12.472 3.18246 12.794C3.27564 13.1159 3.45617 13.4058 3.70403 13.6314C3.95189 13.857 4.25739 14.0096 4.58667 14.0722C4.91594 14.1348 5.25611 14.1049 5.56947 13.986C5.88282 13.8671 6.15712 13.6637 6.36193 13.3983C6.56675 13.133 6.69408 12.8162 6.72981 12.4829C6.76554 12.1497 6.70828 11.813 6.56436 11.5103H9.50793C9.39194 11.7532 9.33192 12.0189 9.3323 12.288C9.3323 12.6469 9.43872 12.9978 9.63811 13.2962C9.83751 13.5946 10.1209 13.8272 10.4525 13.9645C10.7841 14.1018 11.1489 14.1378 11.5009 14.0678C11.8529 13.9977 12.1763 13.8249 12.43 13.5711C12.6838 13.3174 12.8566 12.994 12.9267 12.642C12.9967 12.29 12.9607 11.9252 12.8234 11.5936C12.686 11.262 12.4535 10.9786 12.1551 10.7792C11.8566 10.5798 11.5058 10.4734 11.1469 10.4734H4.87159C4.75017 10.4734 4.63261 10.4308 4.5394 10.3529C4.4462 10.2751 4.38326 10.1671 4.36155 10.0476L4.15611 8.91802H11.6738C12.038 8.91797 12.3907 8.79008 12.6703 8.55665C12.95 8.32322 13.1388 7.99905 13.2039 7.64066L13.992 3.30763C14.0053 3.23274 14.002 3.15583 13.9823 3.08235C13.9626 3.00888 13.9269 2.94065 13.8779 2.88249ZM5.70307 12.288C5.70307 12.4418 5.65746 12.5922 5.57201 12.7201C5.48655 12.848 5.36509 12.9476 5.22299 13.0065C5.08088 13.0654 4.92452 13.0808 4.77366 13.0508C4.6228 13.0208 4.48423 12.9467 4.37547 12.8379C4.26671 12.7292 4.19264 12.5906 4.16263 12.4397C4.13262 12.2889 4.14802 12.1325 4.20689 11.9904C4.26575 11.8483 4.36543 11.7268 4.49332 11.6414C4.62121 11.5559 4.77157 11.5103 4.92538 11.5103C5.13164 11.5103 5.32944 11.5923 5.47529 11.7381C5.62114 11.884 5.70307 12.0818 5.70307 12.288ZM11.9246 12.288C11.9246 12.4418 11.879 12.5922 11.7935 12.7201C11.7081 12.848 11.5866 12.9476 11.4445 13.0065C11.3024 13.0654 11.146 13.0808 10.9952 13.0508C10.8443 13.0208 10.7058 12.9467 10.597 12.8379C10.4882 12.7292 10.4142 12.5906 10.3842 12.4397C10.3542 12.2889 10.3696 12.1325 10.4284 11.9904C10.4873 11.8483 10.587 11.7268 10.7148 11.6414C10.8427 11.5559 10.9931 11.5103 11.1469 11.5103C11.3532 11.5103 11.551 11.5923 11.6968 11.7381C11.8427 11.884 11.9246 12.0818 11.9246 12.288ZM12.1838 7.45531C12.1621 7.57511 12.0988 7.68342 12.0052 7.76127C11.9116 7.83912 11.7936 7.88154 11.6719 7.8811H3.96752L3.21381 3.73341H12.8585L12.1838 7.45531Z" fill="#565656"/>
</svg>
