<svg width="16" height="11" viewBox="0 0 16 11" fill="none" xmlns="http://www.w3.org/2000/svg">
<path d="M15.4089 3.8305L14.5339 1.643C14.4597 1.45782 14.3315 1.29923 14.166 1.18779C14.0005 1.07634 13.8053 1.01719 13.6058 1.018H11.4446V0.518005C11.4446 0.385397 11.3919 0.25822 11.2981 0.164452C11.2044 0.0706839 11.0772 0.0180054 10.9446 0.0180054C10.812 0.0180054 10.6848 0.0706839 10.591 0.164452C10.4973 0.25822 10.4446 0.385397 10.4446 0.518005V6.78738C10.2147 6.92027 10.0134 7.09748 9.85248 7.30872C9.69155 7.51997 9.57415 7.76105 9.50707 8.018H6.38208C6.27193 7.58779 6.02173 7.20648 5.67092 6.93418C5.32012 6.66188 4.88866 6.51408 4.44458 6.51408C4.00049 6.51408 3.56904 6.66188 3.21823 6.93418C2.86743 7.20648 2.61723 7.58779 2.50708 8.018H1.44458V5.018C1.44458 4.88539 1.3919 4.75822 1.29813 4.66445C1.20436 4.57068 1.07719 4.518 0.94458 4.518C0.811972 4.518 0.684795 4.57068 0.591027 4.66445C0.497258 4.75822 0.44458 4.88539 0.44458 5.018V8.018C0.44458 8.28322 0.549937 8.53757 0.737473 8.72511C0.925009 8.91264 1.17936 9.018 1.44458 9.018H2.50708C2.61723 9.44821 2.86743 9.82952 3.21823 10.1018C3.56904 10.3741 4.00049 10.5219 4.44458 10.5219C4.88866 10.5219 5.32012 10.3741 5.67092 10.1018C6.02173 9.82952 6.27193 9.44821 6.38208 9.018H9.50707C9.61722 9.44821 9.86742 9.82952 10.2182 10.1018C10.569 10.3741 11.0005 10.5219 11.4446 10.5219C11.8887 10.5219 12.3201 10.3741 12.6709 10.1018C13.0217 9.82952 13.2719 9.44821 13.3821 9.018H14.4446C14.7098 9.018 14.9641 8.91264 15.1517 8.72511C15.3392 8.53757 15.4446 8.28322 15.4446 8.018V4.018C15.445 3.95378 15.4329 3.8901 15.4089 3.8305ZM13.6058 2.018L14.2058 3.518H11.4446V2.018H13.6058ZM4.44458 9.518C4.2468 9.518 4.05346 9.45935 3.88901 9.34947C3.72456 9.23959 3.59639 9.08341 3.5207 8.90068C3.44501 8.71796 3.42521 8.51689 3.46379 8.32291C3.50238 8.12893 3.59762 7.95075 3.73747 7.81089C3.87732 7.67104 4.05551 7.5758 4.24949 7.53722C4.44347 7.49863 4.64453 7.51843 4.82726 7.59412C5.00999 7.66981 5.16616 7.79798 5.27605 7.96243C5.38593 8.12688 5.44458 8.32022 5.44458 8.518C5.44458 8.78322 5.33922 9.03757 5.15168 9.22511C4.96415 9.41264 4.70979 9.518 4.44458 9.518ZM11.4446 9.518C11.2468 9.518 11.0535 9.45935 10.889 9.34947C10.7246 9.23959 10.5964 9.08341 10.5207 8.90068C10.445 8.71796 10.4252 8.51689 10.4638 8.32291C10.5024 8.12893 10.5976 7.95075 10.7375 7.81089C10.8773 7.67104 11.0555 7.5758 11.2495 7.53722C11.4435 7.49863 11.6445 7.51843 11.8273 7.59412C12.01 7.66981 12.1662 7.79798 12.276 7.96243C12.3859 8.12688 12.4446 8.32022 12.4446 8.518C12.4446 8.78322 12.3392 9.03757 12.1517 9.22511C11.9641 9.41264 11.7098 9.518 11.4446 9.518ZM13.3821 8.018C13.2706 7.58884 13.0199 7.20878 12.6693 6.93734C12.3187 6.6659 11.888 6.51842 11.4446 6.518V4.518H14.4446V8.018H13.3821ZM0.94458 2.518C0.811972 2.518 0.684795 2.57068 0.591027 2.66445C0.497258 2.75822 0.44458 2.8854 0.44458 3.018C0.44458 3.15061 0.497258 3.27779 0.591027 3.37156C0.684795 3.46532 0.811972 3.518 0.94458 3.518H8.94457C9.07718 3.518 9.20436 3.46532 9.29813 3.37156C9.3919 3.27779 9.44457 3.15061 9.44457 3.018C9.44457 2.8854 9.3919 2.75822 9.29813 2.66445C9.20436 2.57068 9.07718 2.518 8.94457 2.518H7.94458V1.018H8.94457C9.07718 1.018 9.20436 0.965326 9.29813 0.871558C9.3919 0.77779 9.44457 0.650613 9.44457 0.518005C9.44457 0.385397 9.3919 0.25822 9.29813 0.164452C9.20436 0.0706839 9.07718 0.0180054 8.94457 0.0180054H0.94458C0.811972 0.0180054 0.684795 0.0706839 0.591027 0.164452C0.497258 0.25822 0.44458 0.385397 0.44458 0.518005C0.44458 0.650613 0.497258 0.77779 0.591027 0.871558C0.684795 0.965326 0.811972 1.018 0.94458 1.018H1.94458V2.518H0.94458ZM6.94458 2.518H5.44458V1.018H6.94458V2.518ZM2.94458 1.018H4.44458V2.518H2.94458V1.018Z" fill="#565656"/>
</svg>
