<svg width="14" height="13" viewBox="0 0 14 13" fill="none" xmlns="http://www.w3.org/2000/svg">
<path d="M13.9644 7.12505L11.9644 2.12506C11.9203 2.01493 11.8386 1.92403 11.7337 1.86862C11.6288 1.81321 11.5077 1.79688 11.3919 1.82256L7.5 2.68756V1.31256C7.5 1.17995 7.44732 1.05278 7.35355 0.959008C7.25979 0.865239 7.13261 0.812561 7 0.812561C6.86739 0.812561 6.74022 0.865239 6.64645 0.959008C6.55268 1.05278 6.5 1.17995 6.5 1.31256V2.91131L2.39126 3.82443C2.31204 3.84193 2.23827 3.87844 2.17631 3.93082C2.11435 3.98319 2.06607 4.04986 2.03563 4.12506V4.12881L0.0356346 9.12505C0.0117091 9.18465 -0.000390776 9.24833 9.62172e-06 9.31255C9.62172e-06 10.7694 1.53376 11.3125 2.50001 11.3125C3.46625 11.3125 5 10.7694 5 9.31255C5.0004 9.24833 4.9883 9.18465 4.96438 9.12505L3.18251 4.67318L6.5 3.93756V11.8125H5.5C5.36739 11.8125 5.24022 11.8652 5.14645 11.959C5.05268 12.0528 5 12.1799 5 12.3125C5 12.4452 5.05268 12.5723 5.14645 12.6661C5.24022 12.7599 5.36739 12.8125 5.5 12.8125H8.5C8.63261 12.8125 8.75978 12.7599 8.85355 12.6661C8.94732 12.5723 9 12.4452 9 12.3125C9 12.1799 8.94732 12.0528 8.85355 11.959C8.75978 11.8652 8.63261 11.8125 8.5 11.8125H7.5V3.71381L10.6875 3.00631L9.03562 7.12505C9.0117 7.18465 8.9996 7.24833 9 7.31255C9 8.76942 10.5337 9.31255 11.5 9.31255C12.4662 9.31255 14 8.76942 14 7.31255C14.0004 7.24833 13.9883 7.18465 13.9644 7.12505ZM2.50001 10.3125C2.02938 10.3125 1.07751 10.0869 1.00438 9.39755L2.50001 5.6588L3.99563 9.39755C3.9225 10.0869 2.97063 10.3125 2.50001 10.3125ZM11.5 8.31255C11.0294 8.31255 10.0775 8.08693 10.0044 7.39755L11.5 3.65881L12.9956 7.39755C12.9225 8.08693 11.9706 8.31255 11.5 8.31255Z" fill="#565656"/>
</svg>
