<svg width="20" height="18" viewBox="0 0 20 18" fill="none" xmlns="http://www.w3.org/2000/svg">
<path d="M1 14.3818V17.027V0.972973V14.3818ZM1.76937 18C1.27875 18 0.861146 17.8325 0.516562 17.4974C0.172187 17.1621 0 16.7558 0 16.2784V1.72155C0 1.24419 0.172187 0.837873 0.516562 0.502602C0.861146 0.167535 1.27875 0 1.76937 0H16.7306C17.2213 0 17.6389 0.167535 17.9834 0.502602C18.3278 0.837873 18.5 1.24419 18.5 1.72155V5.23916H17.5V1.72155C17.5 1.50324 17.4279 1.32385 17.2838 1.18338C17.1394 1.04311 16.955 0.972973 16.7306 0.972973H1.76937C1.545 0.972973 1.36062 1.04311 1.21625 1.18338C1.07208 1.32385 1 1.50324 1 1.72155V16.2784C1 16.4968 1.07208 16.6761 1.21625 16.8166C1.36062 16.9569 1.545 17.027 1.76937 17.027H16.7306C16.955 17.027 17.1394 16.9569 17.2838 16.8166C17.4279 16.6761 17.5 16.4968 17.5 16.2784V12.7304H18.5V16.2784C18.5 16.7558 18.3278 17.1621 17.9834 17.4974C17.6389 17.8325 17.2213 18 16.7306 18H1.76937ZM10.7694 13.6216C10.2787 13.6216 9.86115 13.4541 9.51656 13.119C9.17219 12.7838 9 12.3774 9 11.9001V6.09993C9 5.62257 9.17219 5.21625 9.51656 4.88098C9.86115 4.54591 10.2787 4.37838 10.7694 4.37838H18.2306C18.7213 4.37838 19.1389 4.54591 19.4834 4.88098C19.8278 5.21625 20 5.62257 20 6.09993V11.9001C20 12.3774 19.8278 12.7838 19.4834 13.119C19.1389 13.4541 18.7213 13.6216 18.2306 13.6216H10.7694ZM18.2306 12.6486C18.455 12.6486 18.6394 12.5785 18.7838 12.4382C18.9279 12.2978 19 12.1184 19 11.9001V6.09993C19 5.88162 18.9279 5.70223 18.7838 5.56176C18.6394 5.42149 18.455 5.35135 18.2306 5.35135H10.7694C10.545 5.35135 10.3606 5.42149 10.2163 5.56176C10.0721 5.70223 10 5.88162 10 6.09993V11.9001C10 12.1184 10.0721 12.2978 10.2163 12.4382C10.3606 12.5785 10.545 12.6486 10.7694 12.6486H18.2306ZM14.5 10.8243C15.0208 10.8243 15.4635 10.647 15.8281 10.2922C16.1927 9.9375 16.375 9.50676 16.375 9C16.375 8.49324 16.1927 8.0625 15.8281 7.70777C15.4635 7.35304 15.0208 7.17568 14.5 7.17568C13.9792 7.17568 13.5365 7.35304 13.1719 7.70777C12.8073 8.0625 12.625 8.49324 12.625 9C12.625 9.50676 12.8073 9.9375 13.1719 10.2922C13.5365 10.647 13.9792 10.8243 14.5 10.8243Z" fill="black"/>
</svg>
