<svg width="20" height="12" viewBox="0 0 20 13" fill="none" xmlns="http://www.w3.org/2000/svg">
<path d="M18.7067 3.5H9.10671C8.97941 3.5 8.85732 3.44732 8.7673 3.35355C8.67728 3.25979 8.62671 3.13261 8.62671 3C8.62671 2.86739 8.67728 2.74021 8.7673 2.64645C8.85732 2.55268 8.97941 2.5 9.10671 2.5H17.2667C17.394 2.5 17.5161 2.44732 17.6061 2.35355C17.6961 2.25979 17.7467 2.13261 17.7467 2C17.7467 1.86739 17.6961 1.74021 17.6061 1.64645C17.5161 1.55268 17.394 1.5 17.2667 1.5H9.10671C8.7248 1.5 8.35853 1.65804 8.08848 1.93934C7.81842 2.22064 7.66671 2.60218 7.66671 3V11C7.66671 11.3978 7.81842 11.7794 8.08848 12.0607C8.35853 12.342 8.7248 12.5 9.10671 12.5H18.7067C18.9613 12.5 19.2055 12.3946 19.3855 12.2071C19.5656 12.0196 19.6667 11.7652 19.6667 11.5V4.5C19.6667 4.23478 19.5656 3.98043 19.3855 3.79289C19.2055 3.60536 18.9613 3.5 18.7067 3.5ZM18.7067 11.5H9.10671C8.97941 11.5 8.85732 11.4473 8.7673 11.3536C8.67728 11.2598 8.62671 11.1326 8.62671 11V4.41437C8.78084 4.47129 8.94319 4.50025 9.10671 4.5H18.7067V11.5ZM15.8267 7.75C15.8267 7.60166 15.8689 7.45666 15.9481 7.33332C16.0272 7.20999 16.1396 7.11386 16.2712 7.05709C16.4027 7.00032 16.5475 6.98547 16.6872 7.01441C16.8268 7.04335 16.9551 7.11478 17.0558 7.21967C17.1565 7.32456 17.2251 7.4582 17.2529 7.60368C17.2807 7.74917 17.2664 7.89997 17.2119 8.03701C17.1574 8.17406 17.0651 8.29119 16.9467 8.3736C16.8283 8.45601 16.6891 8.5 16.5467 8.5C16.3558 8.5 16.1726 8.42098 16.0376 8.28033C15.9026 8.13968 15.8267 7.94891 15.8267 7.75Z" fill="#616161"/>
<path d="M6.66675 3C6.66675 3.0663 6.64041 3.12989 6.59352 3.17678C6.54664 3.22366 6.48305 3.25 6.41675 3.25H3.91675V5.75C3.91675 5.8163 3.89041 5.87989 3.84352 5.92678C3.79664 5.97366 3.73305 6 3.66675 6C3.60044 6 3.53686 5.97366 3.48997 5.92678C3.44309 5.87989 3.41675 5.8163 3.41675 5.75V3.25H0.916748C0.850444 3.25 0.786855 3.22366 0.739971 3.17678C0.693087 3.12989 0.666748 3.0663 0.666748 3C0.666748 2.9337 0.693087 2.87011 0.739971 2.82322C0.786855 2.77634 0.850444 2.75 0.916748 2.75H3.41675V0.25C3.41675 0.183696 3.44309 0.120107 3.48997 0.0732234C3.53686 0.0263393 3.60044 0 3.66675 0C3.73305 0 3.79664 0.0263393 3.84352 0.0732234C3.89041 0.120107 3.91675 0.183696 3.91675 0.25V2.75H6.41675C6.48305 2.75 6.54664 2.77634 6.59352 2.82322C6.64041 2.87011 6.66675 2.9337 6.66675 3Z" fill="#616161"/>
</svg>
