<svg width="22" height="20" viewBox="0 0 22 20" fill="none" xmlns="http://www.w3.org/2000/svg">
<path d="M20.7564 16.1435L12.558 1.9057C12.3531 1.55688 12.0606 1.26765 11.7096 1.06669C11.3585 0.86573 10.961 0.76001 10.5564 0.76001C10.1519 0.76001 9.75438 0.86573 9.40329 1.06669C9.05221 1.26765 8.75973 1.55688 8.55486 1.9057L0.356426 16.1435C0.159303 16.4809 0.0554199 16.8646 0.0554199 17.2554C0.0554199 17.6461 0.159303 18.0299 0.356426 18.3673C0.558673 18.7182 0.850648 19.009 1.20239 19.2098C1.55413 19.4106 1.95297 19.5143 2.35799 19.5101H18.7549C19.1596 19.5139 19.558 19.4102 19.9094 19.2093C20.2608 19.0085 20.5525 18.7179 20.7546 18.3673C20.952 18.03 21.0562 17.6464 21.0565 17.2556C21.0568 16.8649 20.9533 16.4811 20.7564 16.1435ZM19.4561 17.6163C19.3846 17.7382 19.282 17.839 19.1588 17.9082C19.0356 17.9773 18.8962 18.0125 18.7549 18.0101H2.35799C2.21669 18.0125 2.07727 17.9773 1.95405 17.9082C1.83082 17.839 1.72821 17.7382 1.65674 17.6163C1.592 17.5067 1.55785 17.3817 1.55785 17.2544C1.55785 17.1271 1.592 17.0022 1.65674 16.8926L9.85518 2.65476C9.92809 2.53342 10.0312 2.43302 10.1544 2.36331C10.2776 2.29361 10.4167 2.25697 10.5583 2.25697C10.6999 2.25697 10.839 2.29361 10.9622 2.36331C11.0854 2.43302 11.1885 2.53342 11.2614 2.65476L19.4599 16.8926C19.524 17.0025 19.5575 17.1277 19.5569 17.255C19.5562 17.3823 19.5214 17.507 19.4561 17.6163ZM9.80643 12.0101V8.26007C9.80643 8.06116 9.88544 7.87039 10.0261 7.72974C10.1667 7.58909 10.3575 7.51007 10.5564 7.51007C10.7553 7.51007 10.9461 7.58909 11.0868 7.72974C11.2274 7.87039 11.3064 8.06116 11.3064 8.26007V12.0101C11.3064 12.209 11.2274 12.3997 11.0868 12.5404C10.9461 12.6811 10.7553 12.7601 10.5564 12.7601C10.3575 12.7601 10.1667 12.6811 10.0261 12.5404C9.88544 12.3997 9.80643 12.209 9.80643 12.0101ZM11.6814 15.3851C11.6814 15.6076 11.6154 15.8251 11.4918 16.0101C11.3682 16.1951 11.1925 16.3393 10.9869 16.4244C10.7814 16.5096 10.5552 16.5319 10.3369 16.4885C10.1187 16.445 9.91826 16.3379 9.76093 16.1806C9.6036 16.0232 9.49645 15.8228 9.45304 15.6045C9.40963 15.3863 9.43191 15.1601 9.51706 14.9546C9.60221 14.749 9.7464 14.5733 9.93141 14.4497C10.1164 14.3261 10.3339 14.2601 10.5564 14.2601C10.8548 14.2601 11.1409 14.3786 11.3519 14.5896C11.5629 14.8006 11.6814 15.0867 11.6814 15.3851Z" fill="black"/>
</svg>
