<svg width="25" height="25" viewBox="0 0 25 25" fill="none" xmlns="http://www.w3.org/2000/svg">
<path d="M2.52422 25C1.80495 25 1.20443 24.7886 0.722656 24.3658C0.240885 23.9429 0 23.4159 0 22.7846V5.2744C0 4.64314 0.240885 4.1161 0.722656 3.69328C1.20443 3.27046 1.80495 3.05905 2.52422 3.05905H5.28828V0H6.97109V3.05905H18.1492V0H19.7117V3.05905H22.4758C23.1951 3.05905 23.7956 3.27046 24.2773 3.69328C24.7591 4.1161 25 4.64314 25 5.2744V22.7846C25 23.4159 24.7591 23.9429 24.2773 24.3658C23.7956 24.7886 23.1951 25 22.4758 25H2.52422ZM2.52422 23.6287H22.4758C22.7164 23.6287 22.9368 23.5408 23.1371 23.3651C23.3374 23.1893 23.4375 22.9958 23.4375 22.7846V10.7596H1.5625V22.7846C1.5625 22.9958 1.66263 23.1893 1.86289 23.3651C2.06315 23.5408 2.28359 23.6287 2.52422 23.6287ZM1.5625 9.38798H23.4375V5.2744C23.4375 5.06322 23.3374 4.86975 23.1371 4.69399C22.9368 4.51824 22.7164 4.43036 22.4758 4.43036H2.52422C2.28359 4.43036 2.06315 4.51824 1.86289 4.69399C1.66263 4.86975 1.5625 5.06322 1.5625 5.2744V9.38798ZM12.5 15.6117C12.1776 15.6117 11.8966 15.5067 11.657 15.2966C11.4177 15.0866 11.298 14.84 11.298 14.5568C11.298 14.2738 11.4177 14.0274 11.657 13.8173C11.8966 13.6073 12.1776 13.5023 12.5 13.5023C12.8224 13.5023 13.1034 13.6073 13.343 13.8173C13.5823 14.0274 13.702 14.2738 13.702 14.5568C13.702 14.84 13.5823 15.0866 13.343 15.2966C13.1034 15.5067 12.8224 15.6117 12.5 15.6117ZM6.25 15.6117C5.9276 15.6117 5.64662 15.5067 5.40703 15.2966C5.16771 15.0866 5.04805 14.84 5.04805 14.5568C5.04805 14.2738 5.16771 14.0274 5.40703 13.8173C5.64662 13.6073 5.9276 13.5023 6.25 13.5023C6.5724 13.5023 6.85338 13.6073 7.09297 13.8173C7.33229 14.0274 7.45195 14.2738 7.45195 14.5568C7.45195 14.84 7.33229 15.0866 7.09297 15.2966C6.85338 15.5067 6.5724 15.6117 6.25 15.6117ZM18.75 15.6117C18.4276 15.6117 18.1466 15.5067 17.907 15.2966C17.6677 15.0866 17.548 14.84 17.548 14.5568C17.548 14.2738 17.6677 14.0274 17.907 13.8173C18.1466 13.6073 18.4276 13.5023 18.75 13.5023C19.0724 13.5023 19.3534 13.6073 19.593 13.8173C19.8323 14.0274 19.952 14.2738 19.952 14.5568C19.952 14.84 19.8323 15.0866 19.593 15.2966C19.3534 15.5067 19.0724 15.6117 18.75 15.6117ZM12.5 20.8861C12.1776 20.8861 11.8966 20.7811 11.657 20.571C11.4177 20.361 11.298 20.1144 11.298 19.8312C11.298 19.5482 11.4177 19.3016 11.657 19.0914C11.8966 18.8813 12.1776 18.7763 12.5 18.7763C12.8224 18.7763 13.1034 18.8813 13.343 19.0914C13.5823 19.3016 13.702 19.5482 13.702 19.8312C13.702 20.1144 13.5823 20.361 13.343 20.571C13.1034 20.7811 12.8224 20.8861 12.5 20.8861ZM6.25 20.8861C5.9276 20.8861 5.64662 20.7811 5.40703 20.571C5.16771 20.361 5.04805 20.1144 5.04805 19.8312C5.04805 19.5482 5.16771 19.3016 5.40703 19.0914C5.64662 18.8813 5.9276 18.7763 6.25 18.7763C6.5724 18.7763 6.85338 18.8813 7.09297 19.0914C7.33229 19.3016 7.45195 19.5482 7.45195 19.8312C7.45195 20.1144 7.33229 20.361 7.09297 20.571C6.85338 20.7811 6.5724 20.8861 6.25 20.8861ZM18.75 20.8861C18.4276 20.8861 18.1466 20.7811 17.907 20.571C17.6677 20.361 17.548 20.1144 17.548 19.8312C17.548 19.5482 17.6677 19.3016 17.907 19.0914C18.1466 18.8813 18.4276 18.7763 18.75 18.7763C19.0724 18.7763 19.3534 18.8813 19.593 19.0914C19.8323 19.3016 19.952 19.5482 19.952 19.8312C19.952 20.1144 19.8323 20.361 19.593 20.571C19.3534 20.7811 19.0724 20.8861 18.75 20.8861Z" fill="#616161"/>
</svg>
