<svg width="12" height="13" viewBox="0 0 12 13" fill="none" xmlns="http://www.w3.org/2000/svg">
<path d="M2.82811 5.07144L5.65639 0.5L8.48467 5.07144H2.82811ZM9.43613 12.5C8.71809 12.5 8.11127 12.2565 7.61567 11.7695C7.12006 11.2824 6.87226 10.6861 6.87226 9.98054C6.87226 9.27493 7.12006 8.67862 7.61567 8.1916C8.11127 7.70458 8.71809 7.46107 9.43613 7.46107C10.1542 7.46107 10.761 7.70458 11.2566 8.1916C11.7522 8.67862 12 9.27493 12 9.98054C12 10.6861 11.7522 11.2824 11.2566 11.7695C10.761 12.2565 10.1542 12.5 9.43613 12.5ZM0 12.1623V7.79873H4.44051V12.1623H0ZM9.43579 11.8247C9.96117 11.8247 10.4053 11.6464 10.7683 11.29C11.1313 10.9335 11.3128 10.4972 11.3128 9.98087C11.3128 9.46459 11.1314 9.0281 10.7687 8.67142C10.4059 8.31474 9.96186 8.13639 9.43647 8.13639C8.91109 8.13639 8.46691 8.31462 8.10394 8.67108C7.74097 9.02754 7.55949 9.46391 7.55949 9.9802C7.55949 10.4965 7.74086 10.933 8.1036 11.2897C8.46634 11.6463 8.9104 11.8247 9.43579 11.8247ZM0.687226 11.487H3.75329V8.47406H0.687226V11.487ZM4.0256 4.39611H7.28717L5.65639 1.82735L4.0256 4.39611Z" fill="#616161"/>
</svg>
