<svg width="20" height="20" viewBox="0 0 20 20" fill="none" xmlns="http://www.w3.org/2000/svg">
<path d="M4.71351 7.61906L9.42731 0L14.1411 7.61906H4.71351ZM15.7269 20C14.5302 20 13.5188 19.5942 12.6928 18.7824C11.8668 17.9707 11.4538 16.9769 11.4538 15.8009C11.4538 14.6249 11.8668 13.631 12.6928 12.8193C13.5188 12.0076 14.5302 11.6018 15.7269 11.6018C16.9236 11.6018 17.935 12.0076 18.761 12.8193C19.587 13.631 20 14.6249 20 15.8009C20 16.9769 19.587 17.9707 18.761 18.7824C17.935 19.5942 16.9236 20 15.7269 20ZM0 19.4372V12.1646H7.40085V19.4372H0ZM15.7263 18.8745C16.602 18.8745 17.3422 18.5774 17.9472 17.9833C18.5521 17.3892 18.8546 16.6619 18.8546 15.8015C18.8546 14.941 18.5523 14.2135 17.9478 13.619C17.3432 13.0246 16.6031 12.7273 15.7275 12.7273C14.8518 12.7273 14.1115 13.0244 13.5066 13.6185C12.9016 14.2126 12.5991 14.9399 12.5991 15.8003C12.5991 16.6608 12.9014 17.3883 13.506 17.9828C14.1106 18.5772 14.8507 18.8745 15.7263 18.8745ZM1.14538 18.3117H6.25548V13.2901H1.14538V18.3117ZM6.70933 6.49352H12.1453L9.42731 2.21225L6.70933 6.49352Z" fill="black"/>
</svg>
