<svg width="24" height="19" viewBox="0 0 24 19" fill="none" xmlns="http://www.w3.org/2000/svg">
<path d="M2.33899 7.6448H4.58899V13.6448H3.08899C2.89008 13.6448 2.69931 13.7238 2.55866 13.8645C2.41801 14.0051 2.33899 14.1959 2.33899 14.3948C2.33899 14.5937 2.41801 14.7845 2.55866 14.9251C2.69931 15.0658 2.89008 15.1448 3.08899 15.1448H21.089C21.2879 15.1448 21.4787 15.0658 21.6193 14.9251C21.76 14.7845 21.839 14.5937 21.839 14.3948C21.839 14.1959 21.76 14.0051 21.6193 13.8645C21.4787 13.7238 21.2879 13.6448 21.089 13.6448H19.589V7.6448H21.839C22.0022 7.64463 22.1609 7.59125 22.291 7.49275C22.4211 7.39424 22.5155 7.25599 22.5599 7.09897C22.6043 6.94195 22.5963 6.77472 22.5371 6.62266C22.4779 6.4706 22.3707 6.34199 22.2318 6.25636L12.4818 0.25636C12.3637 0.18372 12.2277 0.145264 12.089 0.145264C11.9503 0.145264 11.8143 0.18372 11.6962 0.25636L1.94618 6.25636C1.80727 6.34199 1.70007 6.4706 1.64086 6.62266C1.58165 6.77472 1.57365 6.94195 1.61807 7.09897C1.6625 7.25599 1.75692 7.39424 1.88702 7.49275C2.01713 7.59125 2.1758 7.64463 2.33899 7.6448ZM6.08899 7.6448H9.08899V13.6448H6.08899V7.6448ZM13.589 7.6448V13.6448H10.589V7.6448H13.589ZM18.089 13.6448H15.089V7.6448H18.089V13.6448ZM12.089 1.77511L19.1896 6.1448H4.98836L12.089 1.77511ZM23.339 17.3948C23.339 17.5937 23.26 17.7845 23.1193 17.9251C22.9787 18.0658 22.7879 18.1448 22.589 18.1448H1.58899C1.39008 18.1448 1.19931 18.0658 1.05866 17.9251C0.918007 17.7845 0.838989 17.5937 0.838989 17.3948C0.838989 17.1959 0.918007 17.0051 1.05866 16.8645C1.19931 16.7238 1.39008 16.6448 1.58899 16.6448H22.589C22.7879 16.6448 22.9787 16.7238 23.1193 16.8645C23.26 17.0051 23.339 17.1959 23.339 17.3948Z" fill="black"/>
</svg>
