<svg width="20" height="14" viewBox="0 0 20 14" fill="none" xmlns="http://www.w3.org/2000/svg">
<path d="M19.5065 1.30204L7.50651 13.302C7.43685 13.3718 7.35413 13.4271 7.26309 13.4648C7.17204 13.5026 7.07444 13.522 6.97588 13.522C6.87732 13.522 6.77972 13.5026 6.68868 13.4648C6.59763 13.4271 6.51491 13.3718 6.44526 13.302L1.19526 8.05204C1.05453 7.91131 0.975464 7.72044 0.975464 7.52141C0.975464 7.32239 1.05453 7.13152 1.19526 6.99079C1.33599 6.85006 1.52686 6.771 1.72588 6.771C1.9249 6.771 2.11578 6.85006 2.25651 6.99079L6.97588 11.7111L18.4453 0.240788C18.586 0.100057 18.7769 0.0209961 18.9759 0.0209961C19.1749 0.0209961 19.3658 0.100057 19.5065 0.240788C19.6472 0.381518 19.7263 0.57239 19.7263 0.771413C19.7263 0.970436 19.6472 1.16131 19.5065 1.30204Z" fill="black"/>
</svg>
