<svg width="16" height="16" viewBox="0 0 16 16" fill="none" xmlns="http://www.w3.org/2000/svg">
<path d="M15.2951 14.3043C15.3648 14.3739 15.42 14.4567 15.4578 14.5477C15.4955 14.6388 15.5149 14.7363 15.5149 14.8349C15.5149 14.9334 15.4955 15.031 15.4578 15.1221C15.42 15.2131 15.3648 15.2958 15.2951 15.3655C15.2254 15.4352 15.1427 15.4905 15.0516 15.5282C14.9606 15.5659 14.863 15.5853 14.7645 15.5853C14.6659 15.5853 14.5683 15.5659 14.4773 15.5282C14.3862 15.4905 14.3035 15.4352 14.2338 15.3655L8.01446 9.1452L1.79508 15.3655C1.65435 15.5062 1.46348 15.5853 1.26446 15.5853C1.06543 15.5853 0.874561 15.5062 0.73383 15.3655C0.5931 15.2248 0.514038 15.0339 0.514038 14.8349C0.514038 14.6359 0.5931 14.445 0.73383 14.3043L6.95414 8.08489L0.73383 1.86551C0.5931 1.72478 0.514038 1.53391 0.514038 1.33489C0.514038 1.13587 0.5931 0.944995 0.73383 0.804265C0.874561 0.663534 1.06543 0.584473 1.26446 0.584473C1.46348 0.584473 1.65435 0.663534 1.79508 0.804265L8.01446 7.02458L14.2338 0.804265C14.3746 0.663534 14.5654 0.584473 14.7645 0.584473C14.9635 0.584473 15.1544 0.663534 15.2951 0.804265C15.4358 0.944995 15.5149 1.13587 15.5149 1.33489C15.5149 1.53391 15.4358 1.72478 15.2951 1.86551L9.07477 8.08489L15.2951 14.3043Z" fill="black"/>
</svg>
