<svg width="22" height="16" viewBox="0 0 22 16" fill="none" xmlns="http://www.w3.org/2000/svg">
<path d="M20.089 0.394775H2.08899C1.69116 0.394775 1.30963 0.552811 1.02833 0.834115C0.747024 1.11542 0.588989 1.49695 0.588989 1.89478V13.8948C0.588989 14.2926 0.747024 14.6741 1.02833 14.9554C1.30963 15.2367 1.69116 15.3948 2.08899 15.3948H20.089C20.4868 15.3948 20.8683 15.2367 21.1496 14.9554C21.431 14.6741 21.589 14.2926 21.589 13.8948V1.89478C21.589 1.49695 21.431 1.11542 21.1496 0.834115C20.8683 0.552811 20.4868 0.394775 20.089 0.394775ZM20.089 1.89478V4.14478H2.08899V1.89478H20.089ZM20.089 13.8948H2.08899V5.64478H20.089V13.8948ZM18.589 11.6448C18.589 11.8437 18.51 12.0345 18.3693 12.1751C18.2287 12.3158 18.0379 12.3948 17.839 12.3948H14.839C14.6401 12.3948 14.4493 12.3158 14.3087 12.1751C14.168 12.0345 14.089 11.8437 14.089 11.6448C14.089 11.4459 14.168 11.2551 14.3087 11.1144C14.4493 10.9738 14.6401 10.8948 14.839 10.8948H17.839C18.0379 10.8948 18.2287 10.9738 18.3693 11.1144C18.51 11.2551 18.589 11.4459 18.589 11.6448ZM12.589 11.6448C12.589 11.8437 12.51 12.0345 12.3693 12.1751C12.2287 12.3158 12.0379 12.3948 11.839 12.3948H10.339C10.1401 12.3948 9.94931 12.3158 9.80866 12.1751C9.66801 12.0345 9.58899 11.8437 9.58899 11.6448C9.58899 11.4459 9.66801 11.2551 9.80866 11.1144C9.94931 10.9738 10.1401 10.8948 10.339 10.8948H11.839C12.0379 10.8948 12.2287 10.9738 12.3693 11.1144C12.51 11.2551 12.589 11.4459 12.589 11.6448Z" fill="black"/>
</svg>
