<svg width="12" height="13" viewBox="0 0 12 13" fill="none" xmlns="http://www.w3.org/2000/svg">
<path d="M7.06725 3.86788V1.05519C7.06725 0.892812 7.12019 0.759687 7.22606 0.655812C7.33194 0.551937 7.46319 0.5 7.61981 0.5H11.4536C11.6101 0.5 11.7403 0.551937 11.8442 0.655812C11.9481 0.759687 12 0.892812 12 1.05519V3.86788C12 4.03038 11.9471 4.1635 11.8412 4.26725C11.7353 4.37112 11.6041 4.42306 11.4476 4.42306H7.61362C7.45712 4.42306 7.32694 4.37112 7.22306 4.26725C7.11919 4.1635 7.06725 4.03038 7.06725 3.86788ZM0 5.9V1.04206C0 0.888437 0.0529375 0.759687 0.158813 0.655812C0.264688 0.551937 0.395875 0.5 0.552375 0.5H4.38638C4.54288 0.5 4.67306 0.552 4.77694 0.656C4.88081 0.759875 4.93275 0.888625 4.93275 1.04225V5.90019C4.93275 6.05394 4.87981 6.18275 4.77394 6.28662C4.66806 6.39038 4.53681 6.44225 4.38019 6.44225H0.546375C0.389875 6.44225 0.259687 6.39031 0.155812 6.28644C0.0519375 6.18244 0 6.05363 0 5.9ZM7.06725 11.9578V7.09981C7.06725 6.94606 7.12019 6.81725 7.22606 6.71338C7.33194 6.60962 7.46319 6.55775 7.61981 6.55775H11.4536C11.6101 6.55775 11.7403 6.60969 11.8442 6.71356C11.9481 6.81756 12 6.94638 12 7.1V11.9579C12 12.1116 11.9471 12.2403 11.8412 12.3442C11.7353 12.4481 11.6041 12.5 11.4476 12.5H7.61362C7.45712 12.5 7.32694 12.448 7.22306 12.344C7.11919 12.2401 7.06725 12.1114 7.06725 11.9578ZM0 11.9448V9.13213C0 8.96963 0.0529375 8.8365 0.158813 8.73275C0.264688 8.62887 0.395875 8.57694 0.552375 8.57694H4.38638C4.54288 8.57694 4.67306 8.62887 4.77694 8.73275C4.88081 8.8365 4.93275 8.96963 4.93275 9.13213V11.9448C4.93275 12.1072 4.87981 12.2403 4.77394 12.3442C4.66806 12.4481 4.53681 12.5 4.38019 12.5H0.546375C0.389875 12.5 0.259687 12.4481 0.155812 12.3442C0.0519375 12.2403 0 12.1072 0 11.9448ZM0.634688 5.80775H4.29806V1.13469H0.634688V5.80775ZM7.70194 11.8653H11.3653V7.19225H7.70194V11.8653ZM7.70194 3.78837H11.3653V1.13469H7.70194V3.78837ZM0.634688 11.8653H4.29806V9.21163H0.634688V11.8653Z" fill="#616161"/>
</svg>
