<svg width="15" height="2" viewBox="0 0 15 2" fill="none" xmlns="http://www.w3.org/2000/svg">
<path d="M7.375 0.75C7.375 0.799447 7.36034 0.847782 7.33287 0.888893C7.3054 0.930003 7.26635 0.962047 7.22067 0.98097C7.17499 0.999892 7.12472 1.00484 7.07623 0.995196C7.02773 0.98555 6.98319 0.96174 6.94822 0.926777C6.91326 0.891814 6.88945 0.847268 6.8798 0.798773C6.87016 0.750278 6.87511 0.70001 6.89403 0.654329C6.91295 0.608647 6.945 0.569603 6.98611 0.542133C7.02722 0.514662 7.07556 0.5 7.125 0.5C7.19131 0.5 7.25489 0.526339 7.30178 0.573223C7.34866 0.620107 7.375 0.683695 7.375 0.75ZM0.611108 0.542133C0.65222 0.514662 0.700555 0.5 0.75 0.5C0.816304 0.5 0.879893 0.526339 0.926777 0.573223C0.973661 0.620108 1 0.683696 1 0.75C1 0.799446 0.985338 0.847781 0.957868 0.888893C0.930398 0.930005 0.891353 0.962048 0.845671 0.98097C0.79999 0.999892 0.749723 1.00484 0.701228 0.995196C0.652732 0.98555 0.608186 0.96174 0.573224 0.926777C0.53826 0.891814 0.51445 0.847268 0.504804 0.798773C0.495158 0.750278 0.500109 0.70001 0.51903 0.654329C0.537952 0.608648 0.569995 0.569603 0.611108 0.542133ZM13.3611 0.542133C13.4022 0.514662 13.4506 0.5 13.5 0.5C13.5663 0.5 13.6299 0.526339 13.6768 0.573223C13.7237 0.620107 13.75 0.683695 13.75 0.75C13.75 0.799447 13.7353 0.847782 13.7079 0.888893C13.6804 0.930003 13.6414 0.962047 13.5957 0.98097C13.55 0.999892 13.4997 1.00484 13.4512 0.995196C13.4027 0.98555 13.3582 0.96174 13.3232 0.926777C13.2883 0.891815 13.2645 0.847269 13.2548 0.798773C13.2452 0.750278 13.2501 0.70001 13.269 0.654329C13.288 0.608647 13.32 0.569603 13.3611 0.542133Z" fill="black" stroke="black"/>
</svg>
