<svg width="25" height="25" viewBox="0 0 25 25" fill="none" xmlns="http://www.w3.org/2000/svg">
<path d="M13.4938 12.7184C13.4938 12.9409 13.4278 13.1584 13.3042 13.3434C13.1806 13.5284 13.0049 13.6726 12.7993 13.7577C12.5937 13.8429 12.3675 13.8652 12.1493 13.8218C11.9311 13.7784 11.7306 13.6712 11.5733 13.5139C11.4159 13.3565 11.3088 13.1561 11.2654 12.9379C11.222 12.7196 11.2443 12.4934 11.3294 12.2879C11.4146 12.0823 11.5588 11.9066 11.7438 11.783C11.9288 11.6594 12.1463 11.5934 12.3688 11.5934C12.6671 11.5934 12.9533 11.7119 13.1643 11.9229C13.3752 12.1339 13.4938 12.42 13.4938 12.7184ZM18.7438 11.5934C18.5213 11.5934 18.3038 11.6594 18.1188 11.783C17.9338 11.9066 17.7896 12.0823 17.7044 12.2879C17.6193 12.4934 17.597 12.7196 17.6404 12.9379C17.6838 13.1561 17.7909 13.3565 17.9483 13.5139C18.1056 13.6712 18.3061 13.7784 18.5243 13.8218C18.7425 13.8652 18.9687 13.8429 19.1743 13.7577C19.3799 13.6726 19.5556 13.5284 19.6792 13.3434C19.8028 13.1584 19.8688 12.9409 19.8688 12.7184C19.8688 12.42 19.7502 12.1339 19.5393 11.9229C19.3283 11.7119 19.0421 11.5934 18.7438 11.5934ZM5.99378 11.5934C5.77127 11.5934 5.55376 11.6594 5.36876 11.783C5.18375 11.9066 5.03956 12.0823 4.95441 12.2879C4.86926 12.4934 4.84698 12.7196 4.89039 12.9379C4.9338 13.1561 5.04095 13.3565 5.19828 13.5139C5.35561 13.6712 5.55607 13.7784 5.7743 13.8218C5.99253 13.8652 6.21873 13.8429 6.42429 13.7577C6.62986 13.6726 6.80556 13.5284 6.92918 13.3434C7.0528 13.1584 7.11877 12.9409 7.11877 12.7184C7.11877 12.42 7.00025 12.1339 6.78927 11.9229C6.57829 11.7119 6.29214 11.5934 5.99378 11.5934Z" fill="black"/>
</svg>
