<svg width="14" height="12" viewBox="0 0 14 12" fill="none" xmlns="http://www.w3.org/2000/svg">
<path d="M0.777778 6.18289C0.640258 6.18289 0.508371 6.12826 0.41113 6.03102C0.313889 5.93378 0.259259 5.80189 0.259259 5.66437C0.259259 5.52685 0.313889 5.39497 0.41113 5.29772C0.508371 5.20048 0.640258 5.14585 0.777778 5.14585H2.59259C2.73011 5.14585 2.862 5.09122 2.95924 4.99398C3.05648 4.89674 3.11111 4.76486 3.11111 4.62734C3.11111 4.48982 3.05648 4.35793 2.95924 4.26069C2.862 4.16345 2.73011 4.10882 2.59259 4.10882H1.55556C1.143 4.10882 0.747335 3.94493 0.455612 3.65321C0.163888 3.36148 0 2.96582 0 2.55326C0 2.1407 0.163888 1.74504 0.455612 1.45332C0.747335 1.16159 1.143 0.997706 1.55556 0.997706C1.55556 0.860186 1.61019 0.728299 1.70743 0.631058C1.80467 0.533817 1.93655 0.479187 2.07407 0.479187C2.21159 0.479187 2.34348 0.533817 2.44072 0.631058C2.53796 0.728299 2.59259 0.860186 2.59259 0.997706H3.11111C3.24863 0.997706 3.38052 1.05234 3.47776 1.14958C3.575 1.24682 3.62963 1.3787 3.62963 1.51622C3.62963 1.65374 3.575 1.78563 3.47776 1.88287C3.38052 1.98011 3.24863 2.03474 3.11111 2.03474H1.55556C1.41804 2.03474 1.28615 2.08937 1.18891 2.18661C1.09167 2.28385 1.03704 2.41574 1.03704 2.55326C1.03704 2.69078 1.09167 2.82267 1.18891 2.91991C1.28615 3.01715 1.41804 3.07178 1.55556 3.07178H2.59259C3.00515 3.07178 3.40081 3.23567 3.69254 3.52739C3.98426 3.81911 4.14815 4.21478 4.14815 4.62734C4.14815 5.03989 3.98426 5.43556 3.69254 5.72728C3.40081 6.019 3.00515 6.18289 2.59259 6.18289C2.59259 6.32041 2.53796 6.4523 2.44072 6.54954C2.34348 6.64678 2.21159 6.70141 2.07407 6.70141C1.93655 6.70141 1.80467 6.64678 1.70743 6.54954C1.61019 6.4523 1.55556 6.32041 1.55556 6.18289H0.777778ZM14 1.51622V10.331C14 10.6061 13.8907 10.8699 13.6963 11.0643C13.5018 11.2588 13.238 11.3681 12.963 11.3681H1.55556C1.28052 11.3681 1.01674 11.2588 0.82226 11.0643C0.627777 10.8699 0.518519 10.6061 0.518519 10.331V7.73845C0.518519 7.60093 0.573148 7.46904 0.670389 7.3718C0.76763 7.27456 0.899517 7.21993 1.03704 7.21993C1.17456 7.21993 1.30644 7.27456 1.40368 7.3718C1.50093 7.46904 1.55556 7.60093 1.55556 7.73845V10.331H9.33333V8.25697H4.14815C4.01063 8.25697 3.87874 8.20234 3.7815 8.1051C3.68426 8.00785 3.62963 7.87597 3.62963 7.73845C3.62963 7.60093 3.68426 7.46904 3.7815 7.3718C3.87874 7.27456 4.01063 7.21993 4.14815 7.21993H9.33333V5.14585H5.7037C5.56618 5.14585 5.4343 5.09122 5.33706 4.99398C5.23981 4.89674 5.18518 4.76486 5.18518 4.62734C5.18518 4.48982 5.23981 4.35793 5.33706 4.26069C5.4343 4.16345 5.56618 4.10882 5.7037 4.10882H12.963V2.03474H5.18518C5.04767 2.03474 4.91578 1.98011 4.81854 1.88287C4.7213 1.78563 4.66667 1.65374 4.66667 1.51622C4.66667 1.3787 4.7213 1.24682 4.81854 1.14958C4.91578 1.05234 5.04767 0.997706 5.18518 0.997706H13.4815C13.619 0.997706 13.7509 1.05234 13.8481 1.14958C13.9454 1.24682 14 1.3787 14 1.51622ZM10.3704 7.21993H12.963V5.14585H10.3704V7.21993ZM12.963 10.331V8.25697H10.3704V10.331H12.963Z" fill="#565656"/>
</svg>
