<svg width="15" height="12" viewBox="0 0 15 12" fill="none" xmlns="http://www.w3.org/2000/svg">
<path d="M3.66507 9.50224H13.7104C13.8462 9.50224 13.9706 9.457 14.0837 9.36653C14.1968 9.27606 14.2533 9.17653 14.2533 9.06794V1.90041H3.12221V9.06794C3.12221 9.17653 3.17875 9.27606 3.29184 9.36653C3.40493 9.457 3.52934 9.50224 3.66507 9.50224ZM3.66507 10.0996C3.30375 10.0996 2.99846 9.99994 2.74919 9.80065C2.50007 9.60124 2.37551 9.357 2.37551 9.06794V1.03165C2.37551 0.742471 2.50007 0.498235 2.74919 0.298941C2.99846 0.0996471 3.30375 0 3.66507 0H13.7104C14.0719 0 14.3772 0.0996471 14.6263 0.298941C14.8754 0.498235 15 0.742471 15 1.03165V9.06794C15 9.357 14.8754 9.60124 14.6263 9.80065C14.3772 9.99994 14.0719 10.0996 13.7104 10.0996H3.66507ZM1.28956 12C0.928088 12 0.622794 11.9004 0.373677 11.7011C0.124559 11.5018 0 11.2575 0 10.9684V2.33488H0.746691V10.9684C0.746691 11.0769 0.803235 11.1765 0.916323 11.2669C1.02941 11.3574 1.15382 11.4026 1.28956 11.4026H12.0814V12H1.28956Z" fill="#646464"/>
</svg>
