<svg width="20" height="18" viewBox="0 0 20 18" fill="none" xmlns="http://www.w3.org/2000/svg">
<path d="M4.95741 14.2222H18.2525C18.4426 14.2222 18.6168 14.151 18.775 14.0086C18.9332 13.8662 19.0123 13.7094 19.0123 13.5383V2.88889H4.19753V13.5383C4.19753 13.7094 4.27665 13.8662 4.43488 14.0086C4.59311 14.151 4.76728 14.2222 4.95741 14.2222ZM4.95741 15.1111C4.457 15.1111 4.04064 14.9616 3.70833 14.6625C3.37603 14.3634 3.20988 13.9887 3.20988 13.5383V1.57278C3.20988 1.12241 3.37603 0.747686 3.70833 0.448612C4.04064 0.149538 4.457 0 4.95741 0H18.2525C18.7529 0 19.1692 0.149538 19.5015 0.448612C19.8338 0.747686 20 1.12241 20 1.57278V13.5383C20 13.9887 19.8338 14.3634 19.5015 14.6625C19.1692 14.9616 18.7529 15.1111 18.2525 15.1111H4.95741ZM1.74753 18C1.24712 18 0.830761 17.8505 0.498457 17.5514C0.166152 17.2523 0 16.8777 0 16.4275V3.57278H0.987654V16.4275C0.987654 16.5984 1.06677 16.7551 1.225 16.8975C1.38323 17.0399 1.55741 17.1111 1.74753 17.1111H16.0302V18H1.74753Z" fill="black"/>
</svg>
