<svg width="20" height="18" viewBox="0 0 20 18" fill="none" xmlns="http://www.w3.org/2000/svg">
<path d="M19.839 16.3948C19.839 16.5937 19.76 16.7845 19.6193 16.9251C19.4787 17.0658 19.2879 17.1448 19.089 17.1448H1.08899C0.890077 17.1448 0.699311 17.0658 0.558659 16.9251C0.418007 16.7845 0.338989 16.5937 0.338989 16.3948V1.39478C0.338989 1.19586 0.418007 1.0051 0.558659 0.864445C0.699311 0.723793 0.890077 0.644775 1.08899 0.644775C1.2879 0.644775 1.47867 0.723793 1.61932 0.864445C1.75997 1.0051 1.83899 1.19586 1.83899 1.39478V11.5845L6.55836 6.86415C6.62802 6.79442 6.71074 6.7391 6.80178 6.70136C6.89283 6.66361 6.99043 6.64419 7.08899 6.64419C7.18755 6.64419 7.28515 6.66361 7.37619 6.70136C7.46724 6.7391 7.54996 6.79442 7.61961 6.86415L10.089 9.33446L15.0287 4.39478H13.089C12.8901 4.39478 12.6993 4.31576 12.5587 4.17511C12.418 4.03445 12.339 3.84369 12.339 3.64478C12.339 3.44586 12.418 3.2551 12.5587 3.11445C12.6993 2.97379 12.8901 2.89478 13.089 2.89478H16.839C17.0379 2.89478 17.2287 2.97379 17.3693 3.11445C17.51 3.2551 17.589 3.44586 17.589 3.64478V7.39478C17.589 7.59369 17.51 7.78445 17.3693 7.92511C17.2287 8.06576 17.0379 8.14478 16.839 8.14478C16.6401 8.14478 16.4493 8.06576 16.3087 7.92511C16.168 7.78445 16.089 7.59369 16.089 7.39478V5.45509L10.6196 10.9254C10.55 10.9951 10.4672 11.0505 10.3762 11.0882C10.2851 11.1259 10.1876 11.1454 10.089 11.1454C9.99043 11.1454 9.89283 11.1259 9.80178 11.0882C9.71074 11.0505 9.62802 10.9951 9.55836 10.9254L7.08899 8.45509L1.83899 13.7051V15.6448H19.089C19.2879 15.6448 19.4787 15.7238 19.6193 15.8644C19.76 16.0051 19.839 16.1959 19.839 16.3948Z" fill="black"/>
</svg>
