<svg width="20" height="20" viewBox="0 0 20 20" fill="none" xmlns="http://www.w3.org/2000/svg">
<path d="M4.8804 15.8628C5.13513 15.8628 5.35045 15.7767 5.52635 15.6044C5.70203 15.4321 5.78986 15.2186 5.78986 14.9639C5.78986 14.7091 5.70372 14.4938 5.53142 14.3179C5.35912 14.142 5.14561 14.0541 4.89088 14.0541C4.63615 14.0541 4.42083 14.1402 4.24493 14.3125C4.06926 14.4848 3.98142 14.6983 3.98142 14.953C3.98142 15.2078 4.06757 15.4231 4.23986 15.599C4.41216 15.7749 4.62568 15.8628 4.8804 15.8628ZM4.8804 10.9044C5.13513 10.9044 5.35045 10.8182 5.52635 10.6459C5.70203 10.4736 5.78986 10.2601 5.78986 10.0054C5.78986 9.75068 5.70372 9.53536 5.53142 9.35946C5.35912 9.18356 5.14561 9.09561 4.89088 9.09561C4.63615 9.09561 4.42083 9.18176 4.24493 9.35405C4.06926 9.52635 3.98142 9.73986 3.98142 9.99459C3.98142 10.2493 4.06757 10.4646 4.23986 10.6405C4.41216 10.8164 4.62568 10.9044 4.8804 10.9044ZM4.8804 5.94595C5.13513 5.94595 5.35045 5.8598 5.52635 5.6875C5.70203 5.5152 5.78986 5.30169 5.78986 5.04696C5.78986 4.79223 5.70372 4.57691 5.53142 4.40101C5.35912 4.22511 5.14561 4.13716 4.89088 4.13716C4.63615 4.13716 4.42083 4.22331 4.24493 4.39561C4.06926 4.5679 3.98142 4.78142 3.98142 5.03615C3.98142 5.29088 4.06757 5.50619 4.23986 5.68209C4.41216 5.858 4.62568 5.94595 4.8804 5.94595ZM8.63818 15.499H15.9149V14.4179H8.63818V15.499ZM8.63818 10.5405H15.9149V9.45946H8.63818V10.5405ZM8.63818 5.58209H15.9149V4.50101H8.63818V5.58209ZM1.91284 20C1.36509 20 0.909347 19.8181 0.545608 19.4544C0.181869 19.0907 0 18.6349 0 18.0872V1.91284C0 1.36509 0.181869 0.909348 0.545608 0.545609C0.909347 0.18187 1.36509 0 1.91284 0H18.0872C18.6349 0 19.0907 0.18187 19.4544 0.545609C19.8181 0.909348 20 1.36509 20 1.91284V18.0872C20 18.6349 19.8181 19.0907 19.4544 19.4544C19.0907 19.8181 18.6349 20 18.0872 20H1.91284ZM1.91284 18.9189H18.0872C18.2953 18.9189 18.4859 18.8323 18.6591 18.6591C18.8323 18.4859 18.9189 18.2953 18.9189 18.0872V1.91284C18.9189 1.70473 18.8323 1.51408 18.6591 1.34088C18.4859 1.16768 18.2953 1.08108 18.0872 1.08108H1.91284C1.70473 1.08108 1.51408 1.16768 1.34088 1.34088C1.16768 1.51408 1.08108 1.70473 1.08108 1.91284V18.0872C1.08108 18.2953 1.16768 18.4859 1.34088 18.6591C1.51408 18.8323 1.70473 18.9189 1.91284 18.9189Z" fill="black"/>
</svg>
