<svg
   width="19"
   height="20"
   viewBox="0 0 19 20"
   fill="none"
   xmlns="http://www.w3.org/2000/svg">
  <path
     d="m 16.576621,10.422577 c 0.14073,0.14073 0.2198,0.3316 0.2198,0.53062 0,0.19903 -0.07907,0.3899 -0.2198,0.53063 -0.14073,0.14073 -0.3316,0.21979 -0.53062,0.21979 -0.19902,0 -0.38989,-0.07906 -0.53063,-0.21979 l -5.46937,-5.47028 v 12.43965 c 0,0.19892 -0.07902,0.389681 -0.21967,0.530333 -0.14065,0.140652 -0.33142,0.21967 -0.53033,0.21967 -0.19891,0 -0.38968,-0.07902 -0.53033,-0.21967 -0.14065,-0.140652 -0.21965,-0.331413 -0.21965,-0.530333 V 6.013547 l -5.4694,5.47028 c -0.0697,0.06968 -0.1524,0.12496 -0.2434,0.16267 -0.0911,0.03771 -0.1887,0.05712 -0.2872,0.05712 -0.0986,0 -0.1961,-0.01941 -0.2872,-0.05712 -0.091,-0.03771 -0.1738,-0.09299 -0.2434,-0.16267 -0.0697,-0.06968 -0.125,-0.15241 -0.1627,-0.24345 -0.0377,-0.09105 -0.0571,-0.18863 -0.0571,-0.28718 0,-0.09854 0.0194,-0.19612 0.0571,-0.28717 0.0377,-0.09104 0.093,-0.17377 0.1627,-0.24345 l 6.74995,-6.75003 c 0.06966,-0.0697 0.15238,-0.125 0.24342,-0.1628 0.09105,-0.0377 0.18865,-0.0571 0.28721,-0.0571 0.09856,0 0.19616,0.0194 0.2872,0.0571 0.09105,0.0378 0.17377,0.0931 0.24342,0.1628 z m -15.5306,-8.46933 h 16.49998 c 0.198912,0 0.389677,-0.0791 0.530329,-0.2197 0.140653,-0.1407 0.21967,-0.3314 0.21967,-0.5303 0,-0.199 -0.07902,-0.3897 -0.21967,-0.5304 -0.140652,-0.1406 -0.331417,-0.2196 -0.530329,-0.2196 H 1.046021 c -0.1989,0 -0.3897,0.079 -0.5304,0.2196 -0.1406,0.1407 -0.2196,0.3314 -0.2196,0.5304 0,0.1989 0.079,0.3896 0.2196,0.5303 0.1407,0.1406 0.3315,0.2197 0.5304,0.2197 z"
     fill="#000000"
     id="path1" />
</svg>
