<svg width="19" height="20" viewBox="0 0 19 20" fill="none" xmlns="http://www.w3.org/2000/svg">
<path d="M2.0154 9.23387C1.87467 9.09314 1.7956 8.90227 1.7956 8.70325C1.7956 8.50422 1.87467 8.31335 2.0154 8.17262C2.15613 8.03189 2.347 7.95283 2.54602 7.95283C2.74504 7.95283 2.93591 8.03189 3.07665 8.17262L8.54602 13.6429V1.20325C8.54602 1.00433 8.62504 0.813569 8.76569 0.672917C8.90634 0.532265 9.09711 0.453247 9.29602 0.453247C9.49493 0.453247 9.6857 0.532265 9.82635 0.672917C9.967 0.813569 10.046 1.00433 10.046 1.20325V13.6429L15.5154 8.17262C15.5851 8.10294 15.6678 8.04766 15.7588 8.00995C15.8499 7.97224 15.9475 7.95283 16.046 7.95283C16.1446 7.95283 16.2421 7.97224 16.3332 8.00995C16.4242 8.04766 16.507 8.10294 16.5766 8.17262C16.6463 8.2423 16.7016 8.32503 16.7393 8.41607C16.777 8.50712 16.7964 8.6047 16.7964 8.70325C16.7964 8.80179 16.777 8.89937 16.7393 8.99042C16.7016 9.08146 16.6463 9.16419 16.5766 9.23387L9.82665 15.9839C9.75699 16.0536 9.67427 16.1089 9.58323 16.1467C9.49218 16.1844 9.39458 16.2038 9.29602 16.2038C9.19746 16.2038 9.09986 16.1844 9.00882 16.1467C8.91777 16.1089 8.83505 16.0536 8.7654 15.9839L2.0154 9.23387ZM17.546 17.7032H1.04602C0.847108 17.7032 0.656343 17.7823 0.515691 17.9229C0.375038 18.0636 0.296021 18.2543 0.296021 18.4532C0.296021 18.6522 0.375038 18.8429 0.515691 18.9836C0.656343 19.1242 0.847108 19.2032 1.04602 19.2032H17.546C17.7449 19.2032 17.9357 19.1242 18.0764 18.9836C18.217 18.8429 18.296 18.6522 18.296 18.4532C18.296 18.2543 18.217 18.0636 18.0764 17.9229C17.9357 17.7823 17.7449 17.7032 17.546 17.7032Z" fill="black"/>
</svg>
