<svg width="23" height="19" viewBox="0 0 23 19" fill="none" xmlns="http://www.w3.org/2000/svg">
<path d="M21.7833 3.41904L19.5333 1.21029C19.2521 0.930061 18.8714 0.772705 18.4744 0.772705C18.0774 0.772705 17.6966 0.930061 17.4155 1.21029L8.7258 9.79311L5.28611 6.45561C5.00437 6.17628 4.62344 6.01995 4.22671 6.02083C3.82997 6.0217 3.44974 6.17972 3.16924 6.46029L0.919237 8.71029C0.638431 8.99153 0.480713 9.37271 0.480713 9.77014C0.480713 10.1676 0.638431 10.5487 0.919237 10.83L7.63361 17.58C7.7729 17.7193 7.93828 17.8298 8.12029 17.9052C8.3023 17.9806 8.49738 18.0194 8.69439 18.0194C8.89141 18.0194 9.08649 17.9806 9.2685 17.9052C9.45051 17.8298 9.61588 17.7193 9.75518 17.58L21.788 5.54436C21.9276 5.40469 22.0382 5.23883 22.1135 5.05631C22.1889 4.87379 22.2274 4.67818 22.227 4.48073C22.2265 4.28327 22.1871 4.08784 22.111 3.90565C22.0349 3.72346 21.9235 3.5581 21.7833 3.41904ZM8.69018 16.5215L1.9758 9.77154L4.2258 7.52154C4.22853 7.5238 4.23104 7.52631 4.2333 7.52904L8.20361 11.3812C8.34377 11.5184 8.53206 11.5952 8.72814 11.5952C8.92423 11.5952 9.11252 11.5184 9.25268 11.3812L18.4814 2.27154L20.7258 4.48404L8.69018 16.5215Z" fill="black"/>
</svg>
