<svg width="20" height="18" viewBox="0 0 20 18" fill="none" xmlns="http://www.w3.org/2000/svg">
<path d="M19.2472 11.4473C19.0151 11.2535 18.7448 11.1205 18.4574 11.0587C18.17 10.9969 17.8733 11.0079 17.5905 11.0909L13.7566 12.0461C13.8823 11.6847 13.9252 11.2957 13.8817 10.9124C13.8382 10.5291 13.7096 10.163 13.5069 9.84542C13.3041 9.52784 13.0334 9.26828 12.7178 9.089C12.4021 8.90972 12.0511 8.81607 11.6948 8.81608H7.45245C7.11846 8.81505 6.78761 8.88587 6.47906 9.02445C6.17052 9.16302 5.89042 9.36659 5.65502 9.62335L3.68809 11.7549H1.18643C0.871767 11.7549 0.569994 11.8904 0.347496 12.1315C0.124998 12.3726 0 12.6997 0 13.0407V16.7143C0 17.0553 0.124998 17.3823 0.347496 17.6234C0.569994 17.8645 0.871767 18 1.18643 18H9.99988C10.0416 18 10.0831 17.9945 10.1236 17.9835L15.5473 16.514C15.5729 16.5067 15.5981 16.4975 15.6227 16.4865L18.9125 14.9693C18.9221 14.9654 18.9314 14.9608 18.9405 14.9555C19.2313 14.7981 19.4804 14.563 19.6643 14.2724C19.8482 13.9819 19.9608 13.6453 19.9914 13.2946C20.0221 12.9438 19.9699 12.5903 19.8397 12.2675C19.7095 11.9446 19.5056 11.663 19.2472 11.4491V11.4473ZM1.01694 16.7143V13.0407C1.01694 12.992 1.03479 12.9452 1.06658 12.9108C1.09836 12.8764 1.14148 12.857 1.18643 12.857H3.38979V16.8979H1.18643C1.14148 16.8979 1.09836 16.8786 1.06658 16.8441C1.03479 16.8097 1.01694 16.763 1.01694 16.7143ZM18.4981 13.9591L15.2608 15.4533L9.93717 16.8979H4.40673V12.5346L6.37365 10.4021C6.515 10.2482 6.68313 10.1261 6.86831 10.043C7.05349 9.95994 7.25203 9.9175 7.45245 9.91815H11.6948C12.0094 9.91815 12.3112 10.0536 12.5337 10.2947C12.7562 10.5359 12.8812 10.8629 12.8812 11.2039C12.8812 11.5449 12.7562 11.8719 12.5337 12.1131C12.3112 12.3542 12.0094 12.4896 11.6948 12.4896H9.32192C9.18707 12.4896 9.05774 12.5477 8.96238 12.651C8.86703 12.7544 8.81345 12.8945 8.81345 13.0407C8.81345 13.1868 8.86703 13.327 8.96238 13.4303C9.05774 13.5337 9.18707 13.5917 9.32192 13.5917H12.0338C12.072 13.5918 12.1101 13.5871 12.1473 13.5779L17.8252 12.1627L17.8456 12.1572C18.0593 12.0941 18.2869 12.1187 18.4849 12.2264C18.6829 12.3341 18.8371 12.5173 18.918 12.7408C18.9989 12.9642 19.0008 13.2122 18.9233 13.4371C18.8458 13.6619 18.6944 13.8478 18.4981 13.9591ZM13.0304 3.8788C12.9351 3.77548 12.8816 3.63543 12.8816 3.48941C12.8816 3.34338 12.9351 3.20333 13.0304 3.10001L15.7422 0.161152C15.8375 0.0579613 15.9668 0 16.1015 0C16.2362 0 16.3655 0.0579613 16.4608 0.161152L19.1727 3.10001C19.2226 3.15045 19.2627 3.21129 19.2905 3.27888C19.3183 3.34647 19.3332 3.41944 19.3344 3.49343C19.3356 3.56742 19.3231 3.64091 19.2975 3.70952C19.2719 3.77814 19.2338 3.84047 19.1856 3.89279C19.1373 3.94512 19.0798 3.98637 19.0164 4.01408C18.9531 4.0418 18.8853 4.0554 18.817 4.0541C18.7488 4.05279 18.6814 4.0366 18.6191 4.00648C18.5567 3.97637 18.5006 3.93294 18.454 3.8788L16.61 1.8813V7.89769C16.61 8.04383 16.5564 8.18399 16.461 8.28733C16.3657 8.39067 16.2364 8.44872 16.1015 8.44872C15.9666 8.44872 15.8373 8.39067 15.742 8.28733C15.6466 8.18399 15.593 8.04383 15.593 7.89769V1.8813L13.749 3.8788C13.6537 3.98199 13.5244 4.03996 13.3897 4.03996C13.2549 4.03996 13.1257 3.98199 13.0304 3.8788Z" fill="black"/>
</svg>
