<svg width="12" height="13" viewBox="0 0 12 13" fill="none" xmlns="http://www.w3.org/2000/svg">
<path d="M11.5144 8.0036C11.3656 7.86605 11.1924 7.77159 11.0082 7.72757C10.8241 7.68354 10.6339 7.69115 10.4526 7.7498L8.36097 8.327C8.40963 8.08028 8.41113 7.82353 8.36536 7.57601C8.3196 7.32849 8.22774 7.09661 8.09669 6.89776C7.96563 6.69891 7.79878 6.53823 7.60863 6.42778C7.41848 6.31734 7.20996 6.25997 6.99872 6.26H4.49618C4.28601 6.25937 4.07783 6.30873 3.88365 6.40522C3.68948 6.50172 3.51316 6.64344 3.36488 6.8222L2.23409 8.18H0.799853C0.587719 8.18 0.384273 8.28115 0.234272 8.46118C0.0842701 8.64122 0 8.8854 0 9.14V11.54C0 11.7946 0.0842701 12.0388 0.234272 12.2188C0.384273 12.3989 0.587719 12.5 0.799853 12.5H5.9989C6.0316 12.5 6.06417 12.4952 6.09588 12.4856L9.2953 11.5256C9.31569 11.5198 9.3356 11.5117 9.35479 11.5016L11.2979 10.5092L11.3199 10.4972C11.5067 10.3852 11.6666 10.218 11.7846 10.0113C11.9026 9.80461 11.9749 9.56527 11.9945 9.31582C12.0142 9.06636 11.9806 8.81501 11.897 8.58544C11.8133 8.35587 11.6823 8.15563 11.5164 8.0036H11.5144ZM0.799853 9.14H1.99963V11.54H0.799853V9.14ZM10.9695 9.6326L9.06984 10.6034L5.94891 11.54H2.79949V8.8586L3.93078 7.5014C4.00478 7.41187 4.09288 7.34089 4.18994 7.29258C4.287 7.24427 4.3911 7.2196 4.49618 7.22H6.99872C7.15782 7.22 7.3104 7.29586 7.4229 7.43089C7.5354 7.56591 7.59861 7.74905 7.59861 7.94C7.59861 8.13096 7.5354 8.31409 7.4229 8.44912C7.3104 8.58415 7.15782 8.66 6.99872 8.66H5.59897C5.49291 8.66 5.39118 8.71057 5.31618 8.80059C5.24118 8.89061 5.19905 9.0127 5.19905 9.14C5.19905 9.26731 5.24118 9.38939 5.31618 9.47941C5.39118 9.56943 5.49291 9.62 5.59897 9.62H7.19868C7.22878 9.6199 7.25879 9.61588 7.28816 9.608L10.6376 8.6834L10.653 8.6786C10.7553 8.64454 10.8644 8.65705 10.9594 8.71375C11.0545 8.77045 11.1287 8.86732 11.1677 8.98572C11.2068 9.10413 11.2081 9.2357 11.1712 9.35512C11.1343 9.47454 11.0619 9.57337 10.968 9.6326H10.9695ZM7.71559 4.1996C7.64054 4.10953 7.59838 3.98738 7.59838 3.86C7.59838 3.73263 7.64054 3.61047 7.71559 3.5204C7.79063 3.43033 7.89241 3.37973 7.99853 3.37973C8.10466 3.37973 8.20644 3.43033 8.28148 3.5204L9.19831 4.6214V0.98C9.19831 0.852696 9.24045 0.730606 9.31545 0.640589C9.39045 0.550571 9.49217 0.5 9.59824 0.5C9.70431 0.5 9.80603 0.550571 9.88103 0.640589C9.95603 0.730606 9.99817 0.852696 9.99817 0.98V4.6214L10.915 3.5204C10.99 3.43033 11.0918 3.37973 11.1979 3.37973C11.3041 3.37973 11.4059 3.43033 11.4809 3.5204C11.5559 3.61047 11.5981 3.73263 11.5981 3.86C11.5981 3.98738 11.5559 4.10953 11.4809 4.1996L9.88119 6.1196C9.84405 6.16423 9.79994 6.19964 9.75139 6.22379C9.70284 6.24795 9.6508 6.26038 9.59824 6.26038C9.54568 6.26038 9.49364 6.24795 9.44509 6.22379C9.39654 6.19964 9.35244 6.16423 9.31529 6.1196L7.71559 4.1996Z" fill="#616161"/>
<path fill-rule="evenodd" clip-rule="evenodd" d="M7.60863 3.86C7.60863 3.98738 7.65079 4.10953 7.72583 4.1996L9.32554 6.1196C9.36268 6.16423 9.40679 6.19964 9.45534 6.22379C9.50389 6.24795 9.55593 6.26038 9.60848 6.26038C9.66104 6.26038 9.71308 6.24795 9.76163 6.22379C9.81018 6.19964 9.85429 6.16423 9.89143 6.1196L11.4911 4.1996C11.5662 4.10953 11.6083 3.98738 11.6083 3.86C11.6083 3.73263 11.5662 3.61047 11.4911 3.5204C11.4161 3.43033 11.3143 3.37973 11.2082 3.37973C11.1021 3.37973 11.0003 3.43033 10.9252 3.5204L10.0084 4.6214V0.98C10.0084 0.852696 9.96628 0.730606 9.89128 0.640588C9.81627 0.550571 9.71455 0.5 9.60848 0.5C9.50242 0.5 9.40069 0.550571 9.32569 0.640588C9.25069 0.730606 9.20856 0.852696 9.20856 0.98V4.6214L8.29172 3.5204C8.21668 3.43033 8.1149 3.37973 8.00878 3.37973C7.90265 3.37973 7.80087 3.43033 7.72583 3.5204C7.65079 3.61047 7.60863 3.73263 7.60863 3.86Z" fill="#AFB42B"/>
</svg>
