<svg width="20" height="18" viewBox="0 0 20 18" fill="none" xmlns="http://www.w3.org/2000/svg">
<path d="M19.2472 11.4474C19.0151 11.2537 18.7448 11.1207 18.4574 11.0589C18.17 10.9971 17.8733 11.0081 17.5905 11.0911L13.7566 12.0462C13.8823 11.6849 13.9252 11.2959 13.8817 10.9126C13.8382 10.5293 13.7096 10.1632 13.5069 9.84564C13.3041 9.52807 13.0334 9.26851 12.7178 9.08924C12.4021 8.90996 12.0511 8.81632 11.6948 8.81633H7.45245C7.11846 8.8153 6.78761 8.88612 6.47906 9.02469C6.17052 9.16326 5.89042 9.36682 5.65502 9.62357L3.68809 11.7551H1.18643C0.871767 11.7551 0.569994 11.8906 0.347496 12.1317C0.124998 12.3728 0 12.6998 0 13.0408V16.7143C0 17.0553 0.124998 17.3823 0.347496 17.6234C0.569994 17.8645 0.871767 18 1.18643 18H9.99988C10.0416 18 10.0831 17.9945 10.1236 17.9835L15.5473 16.5141C15.5729 16.5067 15.5981 16.4975 15.6227 16.4865L18.9125 14.9694L18.9405 14.9556C19.2313 14.7982 19.4804 14.5631 19.6643 14.2725C19.8482 13.982 19.9608 13.6454 19.9914 13.2947C20.0221 12.9439 19.9699 12.5905 19.8397 12.2676C19.7095 11.9448 19.5056 11.6631 19.2472 11.4493V11.4474ZM1.01694 16.7143V13.0408C1.01694 12.9921 1.03479 12.9454 1.06658 12.9109C1.09836 12.8765 1.14148 12.8571 1.18643 12.8571H3.38979V16.898H1.18643C1.14148 16.898 1.09836 16.8786 1.06658 16.8442C1.03479 16.8097 1.01694 16.763 1.01694 16.7143ZM18.4981 13.9592L15.2608 15.4534L9.93717 16.898H4.40673V12.5348L6.37365 10.4023C6.515 10.2484 6.68313 10.1263 6.86831 10.0432C7.05349 9.96015 7.25203 9.91771 7.45245 9.91837H11.6948C12.0094 9.91837 12.3112 10.0538 12.5337 10.2949C12.7562 10.5361 12.8812 10.8631 12.8812 11.2041C12.8812 11.5451 12.7562 11.8721 12.5337 12.1132C12.3112 12.3543 12.0094 12.4898 11.6948 12.4898H9.32192C9.18707 12.4898 9.05774 12.5478 8.96238 12.6512C8.86703 12.7545 8.81345 12.8947 8.81345 13.0408C8.81345 13.187 8.86703 13.3271 8.96238 13.4304C9.05774 13.5338 9.18707 13.5918 9.32192 13.5918H12.0338C12.072 13.5919 12.1101 13.5873 12.1473 13.5781L17.8252 12.1629L17.8455 12.1573C18.0593 12.0942 18.2869 12.1189 18.4849 12.2266C18.6829 12.3343 18.8371 12.5175 18.918 12.7409C18.9989 12.9644 19.0008 13.2123 18.9233 13.4372C18.8458 13.6621 18.6944 13.848 18.4981 13.9592ZM13.0304 5.34857C12.9405 5.24412 12.8916 5.10596 12.894 4.96321C12.8963 4.82046 12.9497 4.68426 13.0428 4.5833C13.136 4.48234 13.2617 4.42451 13.3934 4.42199C13.5251 4.41947 13.6526 4.47246 13.749 4.5698L15.593 6.56725V0.55102C15.593 0.404881 15.6466 0.264726 15.742 0.16139C15.8373 0.0580537 15.9666 0 16.1015 0C16.2364 0 16.3657 0.0580537 16.461 0.16139C16.5564 0.264726 16.61 0.404881 16.61 0.55102V6.56725L18.454 4.5698C18.5504 4.47246 18.6779 4.41947 18.8096 4.42199C18.9413 4.42451 19.067 4.48234 19.1602 4.5833C19.2534 4.68426 19.3067 4.82046 19.309 4.96321C19.3114 5.10596 19.2625 5.24412 19.1727 5.34857L16.4608 8.28735C16.3655 8.39053 16.2362 8.44849 16.1015 8.44849C15.9668 8.44849 15.8375 8.39053 15.7422 8.28735L13.0304 5.34857Z" fill="black"/>
</svg>
