<svg width="12" height="13" viewBox="0 0 12 13" fill="none" xmlns="http://www.w3.org/2000/svg">
<path d="M11.5144 8.00374C11.3656 7.86632 11.1924 7.77193 11.0082 7.72792C10.824 7.6839 10.6339 7.69144 10.4526 7.74995L8.36097 8.32713C8.40963 8.08041 8.41113 7.82368 8.36536 7.57616C8.31959 7.32865 8.22774 7.09678 8.09669 6.89793C7.96563 6.69909 7.79878 6.53842 7.60863 6.42797C7.41848 6.31753 7.20997 6.26017 6.99872 6.2602H4.49618C4.28601 6.25956 4.07783 6.30892 3.88365 6.40541C3.68948 6.50191 3.51316 6.64363 3.36488 6.82238L2.23409 8.18013H0.799854C0.587719 8.18013 0.384273 8.28127 0.234272 8.4613C0.0842701 8.64133 0 8.8855 0 9.14011V11.54C0 11.7946 0.0842701 12.0388 0.234272 12.2188C0.384273 12.3989 0.587719 12.5 0.799854 12.5H5.9989C6.0316 12.5 6.06418 12.4952 6.09588 12.4856L9.2953 11.5256C9.31583 11.5197 9.3359 11.5117 9.35529 11.5016L11.2979 10.5093L11.3199 10.4973C11.5067 10.3853 11.6666 10.2181 11.7846 10.0114C11.9026 9.8047 11.9749 9.56536 11.9945 9.31592C12.0142 9.06647 11.9806 8.81512 11.897 8.58556C11.8133 8.35599 11.6823 8.15577 11.5164 8.00374H11.5144ZM1.99963 11.54H0.799854V9.14011H1.99963V11.54ZM10.9695 9.63269L9.06984 10.6035L5.94891 11.54H2.79949V8.85871L3.93078 7.50156C4.00478 7.41203 4.09288 7.34105 4.18994 7.29274C4.287 7.24443 4.3911 7.21976 4.49618 7.22017H6.99872C7.15782 7.22017 7.3104 7.29602 7.4229 7.43104C7.53541 7.56606 7.59861 7.74919 7.59861 7.94014C7.59861 8.13109 7.53541 8.31422 7.4229 8.44924C7.3104 8.58426 7.15782 8.66012 6.99872 8.66012H5.59898C5.49291 8.66012 5.39118 8.71069 5.31618 8.8007C5.24118 8.89072 5.19905 9.0128 5.19905 9.14011C5.19905 9.2674 5.24118 9.38949 5.31618 9.47951C5.39118 9.56952 5.49291 9.62009 5.59898 9.62009H7.19868C7.22878 9.61999 7.25879 9.61596 7.28816 9.60809L10.6376 8.68352L10.653 8.67872C10.7553 8.64465 10.8644 8.65717 10.9594 8.71387C11.0545 8.77056 11.1287 8.86743 11.1677 8.98583C11.2068 9.10423 11.2081 9.2358 11.1712 9.35521C11.1343 9.47463 11.0619 9.57346 10.968 9.63269H10.9695ZM7.71559 3.23989C7.6784 3.19531 7.6489 3.14238 7.62878 3.08411C7.60865 3.02584 7.59829 2.96338 7.59829 2.9003C7.59829 2.83722 7.60865 2.77477 7.62878 2.7165C7.6489 2.65823 7.6784 2.60529 7.71559 2.56071L9.31529 0.640773C9.35244 0.596146 9.39654 0.560743 9.44509 0.536588C9.49364 0.512433 9.54568 0.5 9.59824 0.5C9.6508 0.5 9.70284 0.512433 9.75139 0.536588C9.79994 0.560743 9.84405 0.596146 9.88119 0.640773L11.4809 2.56071C11.5181 2.60531 11.5475 2.65825 11.5676 2.71652C11.5877 2.77478 11.5981 2.83723 11.5981 2.9003C11.5981 2.96337 11.5877 3.02582 11.5676 3.08409C11.5475 3.14235 11.5181 3.1953 11.4809 3.23989C11.4437 3.28449 11.3996 3.31986 11.3511 3.344C11.3025 3.36813 11.2505 3.38055 11.1979 3.38055C11.1454 3.38055 11.0934 3.36813 11.0448 3.344C10.9963 3.31986 10.9522 3.28449 10.915 3.23989L9.99817 2.13893V5.78021C9.99817 5.90751 9.95603 6.0296 9.88103 6.11961C9.80603 6.20963 9.70431 6.2602 9.59824 6.2602C9.49217 6.2602 9.39045 6.20963 9.31545 6.11961C9.24045 6.0296 9.19831 5.90751 9.19831 5.78021V2.13893L8.28148 3.23989C8.24434 3.28452 8.20023 3.31992 8.15168 3.34408C8.10313 3.36823 8.05109 3.38066 7.99854 3.38066C7.94598 3.38066 7.89394 3.36823 7.84539 3.34408C7.79684 3.31992 7.75273 3.28452 7.71559 3.23989Z" fill="#616161"/>
<path d="M7.72592 3.26711C7.68874 3.22253 7.65924 3.1696 7.63911 3.11133C7.61899 3.05306 7.60863 2.9906 7.60863 2.92752C7.60863 2.86444 7.61899 2.80199 7.63911 2.74372C7.65924 2.68545 7.68874 2.63251 7.72592 2.58793L9.32563 0.667993C9.36277 0.623366 9.40688 0.587963 9.45543 0.563808C9.50398 0.539653 9.55602 0.52722 9.60858 0.52722C9.66113 0.52722 9.71317 0.539653 9.76172 0.563808C9.81027 0.587963 9.85438 0.623366 9.89152 0.667993L11.4912 2.58793C11.5284 2.63253 11.5579 2.68547 11.578 2.74374C11.5981 2.802 11.6084 2.86445 11.6084 2.92752C11.6084 2.99059 11.5981 3.05304 11.578 3.11131C11.5579 3.16957 11.5284 3.22252 11.4912 3.26711C11.4541 3.31171 11.41 3.34708 11.3614 3.37122C11.3129 3.39535 11.2608 3.40777 11.2083 3.40777C11.1557 3.40777 11.1037 3.39535 11.0552 3.37122C11.0066 3.34708 10.9625 3.31171 10.9253 3.26711L10.0085 2.16615V5.80743C10.0085 5.93473 9.96637 6.05682 9.89137 6.14683C9.81637 6.23685 9.71464 6.28742 9.60858 6.28742C9.50251 6.28742 9.40079 6.23685 9.32578 6.14683C9.25078 6.05682 9.20865 5.93473 9.20865 5.80743V2.16615L8.29182 3.26711C8.25467 3.31174 8.21057 3.34714 8.16202 3.3713C8.11347 3.39545 8.06143 3.40788 8.00887 3.40788C7.95631 3.40788 7.90427 3.39545 7.85572 3.3713C7.80717 3.34714 7.76306 3.31174 7.72592 3.26711Z" fill="#EF5350"/>
</svg>
