<svg width="14" height="13" viewBox="0 0 14 13" fill="none" xmlns="http://www.w3.org/2000/svg">
<path d="M13.9759 12.0497C13.9759 12.1923 13.9193 12.329 13.8185 12.4298C13.7177 12.5306 13.581 12.5873 13.4384 12.5873H0.537536C0.394973 12.5873 0.258248 12.5306 0.157441 12.4298C0.0566331 12.329 0 12.1923 0 12.0497V1.29901C0 1.15645 0.0566331 1.01972 0.157441 0.918915C0.258248 0.818108 0.394973 0.761475 0.537536 0.761475C0.6801 0.761475 0.816824 0.818108 0.917632 0.918915C1.01844 1.01972 1.07507 1.15645 1.07507 1.29901V7.63992L4.48372 4.65861C4.57648 4.57742 4.69432 4.53057 4.81751 4.52592C4.9407 4.52127 5.06174 4.5591 5.16035 4.63308L9.11191 7.59692L13.0843 4.12108C13.1364 4.06952 13.1985 4.02916 13.2667 4.00247C13.335 3.97578 13.408 3.96333 13.4812 3.96589C13.5545 3.96844 13.6264 3.98595 13.6926 4.01733C13.7589 4.04871 13.818 4.0933 13.8663 4.14837C13.9147 4.20343 13.9513 4.2678 13.9739 4.33752C13.9964 4.40725 14.0045 4.48085 13.9976 4.55381C13.9907 4.62677 13.9689 4.69755 13.9337 4.76179C13.8984 4.82603 13.8504 4.88238 13.7925 4.92738L9.49222 8.69013C9.39946 8.77133 9.28162 8.81818 9.15843 8.82283C9.03524 8.82747 8.9142 8.78964 8.81559 8.71567L4.86403 5.75317L1.07507 9.06843V11.5122H13.4384C13.581 11.5122 13.7177 11.5688 13.8185 11.6696C13.9193 11.7704 13.9759 11.9072 13.9759 12.0497Z" fill="#565656"/>
</svg>
