<svg width="25" height="25" viewBox="0 0 25 25" fill="none" xmlns="http://www.w3.org/2000/svg">
<path d="M2.94576 25C2.12195 25 1.42498 24.7395 0.854831 24.2184C0.284943 23.697 0 23.0597 0 22.3065V20.453C0 20.1531 0.107746 19.9047 0.323239 19.7076C0.538732 19.5106 0.810434 19.4121 1.13835 19.4121H4.75512V0.392421C4.75512 0.278469 4.80172 0.202857 4.89493 0.165585C4.98814 0.128313 5.08757 0.139709 5.19324 0.199772L6.43479 0.978919C6.52696 1.04444 6.62458 1.0772 6.72765 1.0772C6.83047 1.0772 6.9312 1.04444 7.02986 0.978919L8.47159 0.0986382C8.56402 0.0328784 8.66164 0 8.76445 0C8.86752 0 8.96839 0.0328784 9.06705 0.0986382L10.5029 0.978919C10.5951 1.04444 10.6927 1.0772 10.7958 1.0772C10.8989 1.0772 10.9996 1.04444 11.098 0.978919L12.5401 0.0986382C12.6323 0.0328784 12.7299 0 12.833 0C12.9358 0 13.0365 0.0328784 13.1352 0.0986382L14.5769 0.978919C14.6693 1.04444 14.767 1.0772 14.8698 1.0772C14.9728 1.0772 15.0737 1.04444 15.1724 0.978919L16.6141 0.0986382C16.7063 0.0328784 16.8039 0 16.907 0C17.01 0 17.1108 0.0328784 17.2092 0.0986382L18.6513 0.978919C18.7434 1.04444 18.8411 1.0772 18.9441 1.0772C19.0472 1.0772 19.1479 1.04444 19.2463 0.978919L20.6885 0.0986382C20.7806 0.0328784 20.8783 0 20.9813 0C21.0841 0 21.1849 0.0328784 21.2835 0.0986382L22.7253 0.978919C22.8177 1.04444 22.9153 1.0772 23.0181 1.0772C23.1212 1.0772 23.2221 1.04444 23.3207 0.978919L24.5619 0.199772C24.6678 0.139709 24.7672 0.128313 24.8602 0.165585C24.9534 0.202857 25 0.278469 25 0.392421V22.3065C25 23.0597 24.7151 23.697 24.1452 24.2184C23.575 24.7395 22.878 25 22.0542 25H2.94576ZM22.0542 23.7946C22.5211 23.7946 22.9091 23.6532 23.2183 23.3705C23.5275 23.0877 23.6821 22.7331 23.6821 22.3065V1.9906H6.073V19.4121H19.3083C19.6362 19.4121 19.9079 19.5106 20.1234 19.7076C20.3389 19.9047 20.4466 20.1531 20.4466 20.453V22.3029C20.4466 22.7319 20.6012 23.0877 20.9104 23.3705C21.2197 23.6532 21.6009 23.7946 22.0542 23.7946ZM9.0468 5.7414H16.0568C16.245 5.7414 16.402 5.79921 16.5276 5.91482C16.6533 6.03067 16.7161 6.17513 16.7161 6.34819C16.7161 6.52126 16.6533 6.66429 16.5276 6.7773C16.402 6.8903 16.245 6.9468 16.0568 6.9468H9.0468C8.85882 6.9468 8.70201 6.88887 8.57635 6.77302C8.45069 6.65741 8.38786 6.51307 8.38786 6.34C8.38786 6.1667 8.45069 6.02367 8.57635 5.9109C8.70201 5.7979 8.85882 5.7414 9.0468 5.7414ZM9.0468 10.1827H16.0568C16.245 10.1827 16.402 10.2405 16.5276 10.3561C16.6533 10.4717 16.7161 10.6162 16.7161 10.7895C16.7161 10.9625 16.6533 11.1056 16.5276 11.2186C16.402 11.3313 16.245 11.3877 16.0568 11.3877H9.0468C8.85882 11.3877 8.70201 11.3299 8.57635 11.2143C8.45069 11.0987 8.38786 10.9542 8.38786 10.7809C8.38786 10.6079 8.45069 10.4648 8.57635 10.3518C8.70201 10.2391 8.85882 10.1827 9.0468 10.1827ZM20.2289 7.32996C19.9407 7.32996 19.6889 7.23156 19.4734 7.03476C19.2582 6.83771 19.1505 6.60743 19.1505 6.34392C19.1505 6.08041 19.2582 5.85025 19.4734 5.65344C19.6889 5.4564 19.9407 5.35788 20.2289 5.35788C20.5171 5.35788 20.7689 5.4564 20.9844 5.65344C21.1997 5.85025 21.3073 6.08041 21.3073 6.34392C21.3073 6.60743 21.1997 6.83771 20.9844 7.03476C20.7689 7.23156 20.5171 7.32996 20.2289 7.32996ZM20.2289 11.7075C19.9407 11.7075 19.6889 11.609 19.4734 11.4119C19.2582 11.2151 19.1505 10.985 19.1505 10.7215C19.1505 10.4577 19.2582 10.2274 19.4734 10.0306C19.6889 9.83358 19.9407 9.73506 20.2289 9.73506C20.5171 9.73506 20.7689 9.83358 20.9844 10.0306C21.1997 10.2274 21.3073 10.4577 21.3073 10.7215C21.3073 10.985 21.1997 11.2151 20.9844 11.4119C20.7689 11.609 20.5171 11.7075 20.2289 11.7075ZM2.91967 23.7946H19.1287V20.6171H1.31788V22.3065C1.31788 22.7331 1.47379 23.0877 1.7856 23.3705C2.09742 23.6532 2.47544 23.7946 2.91967 23.7946Z" fill="#616161"/>
</svg>
