<svg width="24" height="19" viewBox="0 0 24 19" fill="none" xmlns="http://www.w3.org/2000/svg">
<path d="M18.089 8.76978C18.089 8.99228 18.023 9.20979 17.8994 9.39479C17.7758 9.5798 17.6001 9.72399 17.3945 9.80914C17.1889 9.89429 16.9627 9.91657 16.7445 9.87316C16.5263 9.82975 16.3258 9.7226 16.1685 9.56527C16.0112 9.40794 15.904 9.20748 15.8606 8.98925C15.8172 8.77102 15.8395 8.54482 15.9246 8.33926C16.0098 8.13369 16.154 7.95799 16.339 7.83437C16.524 7.71076 16.7415 7.64478 16.964 7.64478C17.2624 7.64478 17.5485 7.7633 17.7595 7.97428C17.9705 8.18526 18.089 8.47141 18.089 8.76978ZM14.339 3.89478H10.589C10.3901 3.89478 10.1993 3.97379 10.0587 4.11445C9.91801 4.2551 9.83899 4.44586 9.83899 4.64478C9.83899 4.84369 9.91801 5.03445 10.0587 5.17511C10.1993 5.31576 10.3901 5.39478 10.589 5.39478H14.339C14.5379 5.39478 14.7287 5.31576 14.8693 5.17511C15.01 5.03445 15.089 4.84369 15.089 4.64478C15.089 4.44586 15.01 4.2551 14.8693 4.11445C14.7287 3.97379 14.5379 3.89478 14.339 3.89478ZM23.339 8.39478V11.3948C23.339 11.9915 23.1019 12.5638 22.68 12.9858C22.258 13.4077 21.6857 13.6448 21.089 13.6448H20.8677L19.3481 17.8992C19.244 18.1906 19.0524 18.4427 18.7995 18.6209C18.5465 18.7991 18.2447 18.8948 17.9352 18.8948H16.7427C16.4333 18.8948 16.1315 18.7991 15.8785 18.6209C15.6256 18.4427 15.434 18.1906 15.3299 17.8992L15.1499 17.3948H9.77805L9.59805 17.8992C9.49401 18.1906 9.30239 18.4427 9.04946 18.6209C8.79653 18.7991 8.49467 18.8948 8.18524 18.8948H6.99274C6.68331 18.8948 6.38145 18.7991 6.12852 18.6209C5.87559 18.4427 5.68397 18.1906 5.57993 17.8992L4.40149 14.6029C3.28041 13.3341 2.57844 11.7501 2.39149 10.0673C2.14945 10.1944 1.94676 10.3853 1.80532 10.6192C1.66388 10.8532 1.58907 11.1214 1.58899 11.3948C1.58899 11.5937 1.50997 11.7845 1.36932 11.9251C1.22867 12.0658 1.0379 12.1448 0.838989 12.1448C0.640077 12.1448 0.449311 12.0658 0.308659 11.9251C0.168007 11.7845 0.0889893 11.5937 0.0889893 11.3948C0.0901352 10.7259 0.31476 10.0766 0.727177 9.55009C1.13959 9.02353 1.71615 8.64988 2.36524 8.48853C2.53279 6.42164 3.47151 4.49336 4.995 3.08658C6.5185 1.6798 8.51533 0.897408 10.589 0.894775H20.339C20.5379 0.894775 20.7287 0.973793 20.8693 1.11445C21.01 1.2551 21.089 1.44586 21.089 1.64478C21.089 1.84369 21.01 2.03445 20.8693 2.17511C20.7287 2.31576 20.5379 2.39478 20.339 2.39478H18.3337C19.5783 3.26805 20.5572 4.46856 21.1621 5.86353C21.2024 5.95728 21.2418 6.05103 21.2793 6.14478C21.8425 6.19258 22.367 6.45057 22.7486 6.86746C23.1303 7.28435 23.341 7.82959 23.339 8.39478ZM21.839 8.39478C21.839 8.19586 21.76 8.0051 21.6193 7.86445C21.4787 7.72379 21.2879 7.64478 21.089 7.64478H20.7459C20.5861 7.64494 20.4305 7.59411 20.3017 7.49968C20.1729 7.40525 20.0775 7.27215 20.0296 7.11978C19.5999 5.74853 18.7432 4.55048 17.5846 3.70048C16.426 2.85047 15.026 2.39298 13.589 2.39478H10.589C9.27904 2.39471 7.99737 2.7758 6.90027 3.4916C5.80317 4.20739 4.93806 5.22694 4.41042 6.42593C3.88278 7.62492 3.71542 8.95153 3.92874 10.244C4.14207 11.5365 4.72686 12.7389 5.6118 13.7048C5.67947 13.7784 5.73175 13.8647 5.76555 13.9588L6.99274 17.3948H8.18524L8.54336 16.3926C8.59536 16.247 8.6911 16.121 8.81747 16.0318C8.94384 15.9427 9.09467 15.8949 9.2493 15.8948H15.6787C15.8333 15.8949 15.9841 15.9427 16.1105 16.0318C16.2369 16.121 16.3326 16.247 16.3846 16.3926L16.7427 17.3948H17.9352L19.6331 12.6426C19.685 12.497 19.7808 12.371 19.9072 12.2818C20.0335 12.1927 20.1844 12.1449 20.339 12.1448H21.089C21.2879 12.1448 21.4787 12.0658 21.6193 11.9251C21.76 11.7845 21.839 11.5937 21.839 11.3948V8.39478Z" fill="black"/>
</svg>
