<svg width="18" height="20" viewBox="0 0 18 20" fill="none" xmlns="http://www.w3.org/2000/svg">
<path d="M16.3125 1.5H13.875V0.5625C13.875 0.413316 13.8157 0.270242 13.7102 0.164752C13.6048 0.0592632 13.4617 0 13.3125 0C13.1633 0 13.0202 0.0592632 12.9148 0.164752C12.8093 0.270242 12.75 0.413316 12.75 0.5625V1.5H4.875V0.5625C4.875 0.413316 4.81574 0.270242 4.71025 0.164752C4.60476 0.0592632 4.46168 0 4.3125 0C4.16332 0 4.02024 0.0592632 3.91475 0.164752C3.80926 0.270242 3.75 0.413316 3.75 0.5625V1.5H1.3125C0.964403 1.5 0.630564 1.63828 0.384422 1.88442C0.138281 2.13056 0 2.4644 0 2.8125V17.8125C0 18.1606 0.138281 18.4944 0.384422 18.7406C0.630564 18.9867 0.964403 19.125 1.3125 19.125H16.3125C16.6606 19.125 16.9944 18.9867 17.2406 18.7406C17.4867 18.4944 17.625 18.1606 17.625 17.8125V2.8125C17.625 2.4644 17.4867 2.13056 17.2406 1.88442C16.9944 1.63828 16.6606 1.5 16.3125 1.5ZM1.3125 2.625H3.75V3.5625C3.75 3.71168 3.80926 3.85476 3.91475 3.96025C4.02024 4.06574 4.16332 4.125 4.3125 4.125C4.46168 4.125 4.60476 4.06574 4.71025 3.96025C4.81574 3.85476 4.875 3.71168 4.875 3.5625V2.625H12.75V3.5625C12.75 3.71168 12.8093 3.85476 12.9148 3.96025C13.0202 4.06574 13.1633 4.125 13.3125 4.125C13.4617 4.125 13.6048 4.06574 13.7102 3.96025C13.8157 3.85476 13.875 3.71168 13.875 3.5625V2.625H16.3125C16.3622 2.625 16.4099 2.64475 16.4451 2.67992C16.4802 2.71508 16.5 2.76277 16.5 2.8125V6H1.125V2.8125C1.125 2.76277 1.14475 2.71508 1.17992 2.67992C1.21508 2.64475 1.26277 2.625 1.3125 2.625ZM16.3125 18H1.3125C1.26277 18 1.21508 17.9802 1.17992 17.9451C1.14475 17.9099 1.125 17.8622 1.125 17.8125V7.125H16.5V17.8125C16.5 17.8622 16.4802 17.9099 16.4451 17.9451C16.4099 17.9802 16.3622 18 16.3125 18ZM9.75 10.6875C9.75 10.8729 9.69502 11.0542 9.592 11.2083C9.48899 11.3625 9.34257 11.4827 9.17127 11.5536C8.99996 11.6246 8.81146 11.6432 8.6296 11.607C8.44775 11.5708 8.2807 11.4815 8.14959 11.3504C8.01848 11.2193 7.92919 11.0523 7.89301 10.8704C7.85684 10.6885 7.87541 10.5 7.94636 10.3287C8.01732 10.1574 8.13748 10.011 8.29165 9.908C8.44582 9.80498 8.62708 9.75 8.8125 9.75C9.06114 9.75 9.2996 9.84877 9.47541 10.0246C9.65123 10.2004 9.75 10.4389 9.75 10.6875ZM13.875 10.6875C13.875 10.8729 13.82 11.0542 13.717 11.2083C13.614 11.3625 13.4676 11.4827 13.2963 11.5536C13.125 11.6246 12.9365 11.6432 12.7546 11.607C12.5727 11.5708 12.4057 11.4815 12.2746 11.3504C12.1435 11.2193 12.0542 11.0523 12.018 10.8704C11.9818 10.6885 12.0004 10.5 12.0714 10.3287C12.1423 10.1574 12.2625 10.011 12.4167 9.908C12.5708 9.80498 12.7521 9.75 12.9375 9.75C13.1861 9.75 13.4246 9.84877 13.6004 10.0246C13.7762 10.2004 13.875 10.4389 13.875 10.6875ZM5.625 14.4375C5.625 14.6229 5.57002 14.8042 5.467 14.9583C5.36399 15.1125 5.21757 15.2327 5.04627 15.3036C4.87496 15.3746 4.68646 15.3932 4.5046 15.357C4.32275 15.3208 4.1557 15.2315 4.02459 15.1004C3.89348 14.9693 3.80419 14.8023 3.76801 14.6204C3.73184 14.4385 3.75041 14.25 3.82136 14.0787C3.89232 13.9074 4.01248 13.761 4.16665 13.658C4.32082 13.555 4.50208 13.5 4.6875 13.5C4.93614 13.5 5.1746 13.5988 5.35041 13.7746C5.52623 13.9504 5.625 14.1889 5.625 14.4375ZM9.75 14.4375C9.75 14.6229 9.69502 14.8042 9.592 14.9583C9.48899 15.1125 9.34257 15.2327 9.17127 15.3036C8.99996 15.3746 8.81146 15.3932 8.6296 15.357C8.44775 15.3208 8.2807 15.2315 8.14959 15.1004C8.01848 14.9693 7.92919 14.8023 7.89301 14.6204C7.85684 14.4385 7.87541 14.25 7.94636 14.0787C8.01732 13.9074 8.13748 13.761 8.29165 13.658C8.44582 13.555 8.62708 13.5 8.8125 13.5C9.06114 13.5 9.2996 13.5988 9.47541 13.7746C9.65123 13.9504 9.75 14.1889 9.75 14.4375ZM13.875 14.4375C13.875 14.6229 13.82 14.8042 13.717 14.9583C13.614 15.1125 13.4676 15.2327 13.2963 15.3036C13.125 15.3746 12.9365 15.3932 12.7546 15.357C12.5727 15.3208 12.4057 15.2315 12.2746 15.1004C12.1435 14.9693 12.0542 14.8023 12.018 14.6204C11.9818 14.4385 12.0004 14.25 12.0714 14.0787C12.1423 13.9074 12.2625 13.761 12.4167 13.658C12.5708 13.555 12.7521 13.5 12.9375 13.5C13.1861 13.5 13.4246 13.5988 13.6004 13.7746C13.7762 13.9504 13.875 14.1889 13.875 14.4375Z" fill="black"/>
</svg>
