<svg width="20" height="20" viewBox="0 0 20 20" fill="none" xmlns="http://www.w3.org/2000/svg">
<path d="M9.99903 5.51802C9.11274 5.51802 8.24635 5.78079 7.50943 6.27308C6.77251 6.76538 6.19815 7.4651 5.85899 8.28377C5.51982 9.10243 5.43108 10.0033 5.60398 10.8723C5.77689 11.7414 6.20368 12.5397 6.83038 13.1663C7.45708 13.7929 8.25554 14.2196 9.1248 14.3925C9.99405 14.5653 10.8951 14.4766 11.7139 14.1375C12.5327 13.7984 13.2326 13.2242 13.725 12.4874C14.2174 11.7506 14.4802 10.8844 14.4802 9.99829C14.4786 8.81052 14.006 7.67185 13.166 6.83197C12.3259 5.99209 11.187 5.51957 9.99903 5.51802ZM9.99903 13.3098C9.34394 13.3098 8.70357 13.1156 8.15889 12.7517C7.61421 12.3878 7.18969 11.8706 6.939 11.2655C6.68831 10.6604 6.62272 9.99462 6.75052 9.35225C6.87832 8.70988 7.19377 8.11983 7.65698 7.6567C8.12019 7.19358 8.71036 6.87819 9.35286 6.75042C9.99535 6.62264 10.6613 6.68822 11.2665 6.93886C11.8717 7.1895 12.389 7.61394 12.753 8.15852C13.1169 8.70309 13.3112 9.34334 13.3112 9.99829C13.3112 10.8766 12.9622 11.7188 12.3411 12.3399C11.7199 12.9609 10.8775 13.3098 9.99903 13.3098ZM18.3768 10.2749C18.3827 10.0908 18.3827 9.90576 18.3768 9.72168L19.8702 7.85555C19.9273 7.78412 19.9668 7.70029 19.9856 7.6108C20.0044 7.52132 20.0019 7.42867 19.9783 7.34032C19.7447 6.45992 19.3948 5.61455 18.9379 4.8265C18.8926 4.74652 18.8289 4.67838 18.7523 4.6276C18.6756 4.57683 18.588 4.54487 18.4966 4.53431L16.1148 4.27037C15.9895 4.13596 15.8596 4.0061 15.7252 3.88078L15.4602 1.49844C15.4496 1.4071 15.4176 1.31954 15.3669 1.24287C15.3161 1.16621 15.2479 1.1026 15.1679 1.05724C14.3807 0.601765 13.5365 0.25264 12.6575 0.0189824C12.5689 -0.00416166 12.4761 -0.00617168 12.3866 0.0131145C12.2971 0.0324006 12.2134 0.0724434 12.1422 0.130015L10.2718 1.62701C10.0877 1.62116 9.90258 1.62116 9.71847 1.62701L7.85587 0.129041C7.78442 0.0719699 7.70057 0.0324574 7.61107 0.0136807C7.52157 -0.00509598 7.42891 -0.00261294 7.34054 0.0209302C6.45996 0.254538 5.61443 0.604347 4.82622 1.06113C4.74623 1.1065 4.67807 1.1701 4.62729 1.24677C4.57651 1.32343 4.54454 1.411 4.53398 1.50234L4.27387 3.8837C4.13944 4.00967 4.00955 4.13953 3.88421 4.27329L1.50043 4.54405C1.40907 4.55461 1.32149 4.58657 1.24481 4.63734C1.16813 4.68812 1.10452 4.75626 1.05914 4.83624C0.603579 5.62333 0.254386 6.46732 0.0206825 7.34617C-0.00190719 7.43365 -0.00389916 7.52518 0.0148631 7.61357C0.0336253 7.70195 0.0726307 7.78478 0.128815 7.85555L1.6261 9.72558C1.62026 9.90966 1.62026 10.0947 1.6261 10.2788L0.12784 12.1459C0.070758 12.2173 0.0312378 12.3012 0.0124574 12.3906C-0.00632294 12.4801 -0.00383942 12.5728 0.0197083 12.6611C0.253769 13.5398 0.603636 14.3836 1.06011 15.1701C1.10549 15.2501 1.16911 15.3182 1.24579 15.369C1.32247 15.4197 1.41005 15.4517 1.50141 15.4623L3.88324 15.7262C4.00923 15.8606 4.13912 15.9905 4.2729 16.1158L4.54372 18.4952C4.55428 18.5866 4.58625 18.6741 4.63703 18.7508C4.68781 18.8275 4.75597 18.8911 4.83597 18.9364C5.62321 19.3919 6.46737 19.741 7.34638 19.9747C7.43475 19.9982 7.52741 20.0007 7.61691 19.9819C7.70642 19.9631 7.79026 19.9236 7.86171 19.8666L9.72236 18.3744C9.90648 18.3803 10.0916 18.3803 10.2757 18.3744L12.1471 19.8724C12.2508 19.9552 12.3796 20.0002 12.5124 20C12.563 19.9998 12.6134 19.9933 12.6624 19.9805C13.5413 19.7465 14.3851 19.3967 15.1718 18.9403C15.2518 18.8949 15.32 18.8313 15.3708 18.7547C15.4215 18.678 15.4535 18.5905 15.4641 18.4991L15.7281 16.1177C15.8625 15.9924 15.9924 15.8626 16.1177 15.7282L18.5005 15.4632C18.5919 15.4527 18.6795 15.4207 18.7562 15.3699C18.8328 15.3192 18.8965 15.251 18.9418 15.171C19.3976 14.384 19.7468 13.54 19.9803 12.6611C20.0038 12.5728 20.0063 12.4801 19.9875 12.3906C19.9688 12.3012 19.9292 12.2173 19.8722 12.1459L18.3768 10.2749ZM18.0748 14.3295L15.7719 14.5857C15.628 14.6023 15.4954 14.6717 15.3998 14.7805C15.2072 14.9973 15.002 15.2026 14.7851 15.3951C14.6763 15.4907 14.6068 15.6232 14.5903 15.7671L14.334 18.0686C13.7949 18.3561 13.2284 18.589 12.6429 18.764L10.8339 17.3167C10.7301 17.2339 10.6013 17.1889 10.4686 17.1891H10.4335C10.1441 17.2057 9.85396 17.2057 9.56455 17.1891C9.42001 17.1803 9.27733 17.2254 9.16417 17.3157L7.35612 18.764C6.7712 18.5881 6.20532 18.3541 5.66693 18.0657L5.41072 15.7652C5.39413 15.6213 5.3247 15.4887 5.21589 15.3931C4.99899 15.2006 4.79373 14.9954 4.60119 14.7785C4.50558 14.6697 4.37296 14.6003 4.22906 14.5837L1.92712 14.3276C1.63989 13.7901 1.40689 13.2253 1.23157 12.6416L2.67917 10.833C2.76952 10.7198 2.81465 10.5772 2.80581 10.4327C2.78925 10.1433 2.78925 9.85326 2.80581 9.5639C2.81465 9.41939 2.76952 9.27674 2.67917 9.1636L1.23157 7.35591C1.40755 6.7711 1.64154 6.20533 1.93004 5.66704L4.23101 5.41089C4.37491 5.3943 4.50753 5.32488 4.60314 5.21609C4.79568 4.99924 5.00094 4.79402 5.21784 4.60152C5.32665 4.50592 5.39608 4.37333 5.41267 4.22946L5.66887 1.92797C6.20649 1.64079 6.77137 1.40784 7.35515 1.23255L9.16417 2.67987C9.27733 2.77021 9.42001 2.81533 9.56455 2.80649C9.85396 2.78993 10.1441 2.78993 10.4335 2.80649C10.578 2.81533 10.7207 2.77021 10.8339 2.67987L12.6419 1.23255C13.2269 1.4085 13.7927 1.64244 14.3311 1.93089L14.5873 4.23335C14.6039 4.37723 14.6734 4.50981 14.7822 4.60541C14.9991 4.79791 15.2043 5.00313 15.3969 5.21999C15.4925 5.32878 15.6251 5.3982 15.769 5.41478L18.0709 5.67094C18.358 6.20783 18.591 6.77194 18.7665 7.35493L17.3189 9.1636C17.2285 9.27674 17.1834 9.41939 17.1922 9.5639C17.2088 9.85326 17.2088 10.1433 17.1922 10.4327C17.1834 10.5772 17.2285 10.7198 17.3189 10.833L18.7665 12.6407C18.5911 13.2254 18.3578 13.7912 18.07 14.3295H18.0748Z" fill="black"/>
</svg>
