<svg width="12" height="13" viewBox="0 0 12 13" fill="none" xmlns="http://www.w3.org/2000/svg">
<path d="M11.7396 6.27783L6.2223 0.760563C6.14006 0.677662 6.04214 0.611935 5.93427 0.567204C5.8264 0.522473 5.71072 0.499631 5.59394 0.500004H0.444453C0.326578 0.500004 0.21353 0.54683 0.13018 0.63018C0.0468299 0.71353 4.49722e-06 0.826579 4.49722e-06 0.944454V6.09394C-0.000368581 6.21072 0.0224741 6.3264 0.0672047 6.43427C0.111935 6.54214 0.177661 6.64004 0.260562 6.72228L5.77784 12.2395C5.86038 12.3221 5.95838 12.3876 6.06624 12.4323C6.1741 12.477 6.28972 12.5 6.40647 12.5C6.52322 12.5 6.63882 12.477 6.74668 12.4323C6.85454 12.3876 6.95254 12.3221 7.03509 12.2395L11.7396 7.53506C11.8221 7.45252 11.8876 7.35452 11.9323 7.24666C11.977 7.1388 12 7.0232 12 6.90645C12 6.7897 11.977 6.6741 11.9323 6.56624C11.8876 6.45838 11.8221 6.36037 11.7396 6.27783ZM6.40619 11.6112L0.888899 6.09394V1.3889H5.59394L11.1112 6.90617L6.40619 11.6112ZM3.55559 3.38892C3.55559 3.52077 3.51649 3.64967 3.44323 3.7593C3.36998 3.86893 3.26585 3.95438 3.14404 4.00484C3.02222 4.0553 2.88817 4.0685 2.75885 4.04278C2.62952 4.01705 2.51073 3.95356 2.4175 3.86033C2.32426 3.76709 2.26077 3.6483 2.23504 3.51898C2.20932 3.38966 2.22252 3.25561 2.27298 3.13379C2.32344 3.01198 2.40889 2.90786 2.51852 2.8346C2.62816 2.76135 2.75705 2.72225 2.88891 2.72225C3.06572 2.72225 3.2353 2.79248 3.36032 2.91751C3.48535 3.04253 3.55559 3.2121 3.55559 3.38892Z" fill="#616161"/>
<path d="M3.55559 3.38892C3.55559 3.52077 3.51649 3.64967 3.44323 3.7593C3.36998 3.86893 3.26585 3.95438 3.14404 4.00484C3.02222 4.0553 2.88817 4.0685 2.75885 4.04278C2.62952 4.01705 2.51073 3.95356 2.4175 3.86033C2.32426 3.76709 2.26077 3.6483 2.23504 3.51898C2.20932 3.38966 2.22252 3.25561 2.27298 3.13379C2.32344 3.01198 2.40889 2.90786 2.51852 2.8346C2.62816 2.76135 2.75705 2.72225 2.88891 2.72225C3.06572 2.72225 3.2353 2.79248 3.36032 2.91751C3.48535 3.04253 3.55559 3.2121 3.55559 3.38892Z" fill="#EF5350"/>
</svg>
