<svg width="18" height="18" viewBox="0 0 18 18" fill="none" xmlns="http://www.w3.org/2000/svg">
<path d="M17.5211 11.1538L11.1573 17.5155C10.9939 17.677 10.8101 17.7981 10.6059 17.8788C10.4017 17.9596 10.1985 18 9.99644 18C9.79454 18 9.59256 17.9596 9.3905 17.8788C9.18843 17.7981 9.00663 17.677 8.84508 17.5155L0.478903 9.17125C0.321186 9.02625 0.201981 8.85358 0.121289 8.65325C0.0404295 8.45292 0 8.24225 0 8.02125V1.6345C0 1.185 0.157384 0.800251 0.472151 0.480251C0.787085 0.160084 1.17471 0 1.63502 0H8.02381C8.24005 0 8.44962 0.04375 8.65251 0.13125C8.85541 0.21875 9.03122 0.3365 9.17993 0.4845L17.5211 8.82875C17.6876 8.99225 17.8091 9.17608 17.8855 9.38025C17.9618 9.58442 18 9.78983 18 9.9965C18 10.2032 17.9618 10.4064 17.8855 10.6063C17.8091 10.8059 17.6876 10.9884 17.5211 11.1538ZM10.4438 16.8078L16.8074 10.4463C16.9356 10.3179 16.9997 10.1672 16.9997 9.99425C16.9997 9.82108 16.9356 9.67042 16.8074 9.54225L8.26814 1.01925H1.63502C1.45563 1.01925 1.305 1.07692 1.18313 1.19225C1.06126 1.30775 1.00032 1.45517 1.00032 1.6345V8.0155C1.00032 8.09233 1.01316 8.16925 1.03883 8.24625C1.06451 8.32308 1.10935 8.39358 1.17337 8.45775L9.53955 16.8078C9.66775 16.9359 9.81847 17 9.99169 17C10.1647 17 10.3155 16.9359 10.4438 16.8078ZM3.55088 4.55775C3.83197 4.55775 4.0703 4.4605 4.26586 4.266C4.46142 4.0715 4.55921 3.83542 4.55921 3.55775C4.55921 3.27458 4.46193 3.03392 4.26736 2.83575C4.0728 2.63758 3.83664 2.5385 3.55889 2.5385C3.27563 2.5385 3.03489 2.63683 2.83666 2.8335C2.63843 3.03017 2.53931 3.26892 2.53931 3.54975C2.53931 3.83075 2.63768 4.069 2.83441 4.2645C3.03113 4.46 3.26996 4.55775 3.55088 4.55775Z" fill="black"/>
</svg>
