<svg width="6" height="11" viewBox="0 0 6 11" fill="none" xmlns="http://www.w3.org/2000/svg">
<path d="M5.86668 5.42576L1.32146 9.97099C1.27923 10.0132 1.22909 10.0467 1.17392 10.0696C1.11874 10.0924 1.0596 10.1042 0.99988 10.1042C0.940158 10.1042 0.881021 10.0924 0.825845 10.0696C0.770669 10.0467 0.720535 10.0132 0.678305 9.97099C0.636076 9.92876 0.602577 9.87862 0.579722 9.82345C0.556868 9.76827 0.545105 9.70913 0.545105 9.64941C0.545105 9.58969 0.556868 9.53055 0.579722 9.47538C0.602577 9.4202 0.636076 9.37007 0.678305 9.32784L4.90252 5.10419L0.678305 0.880537C0.593018 0.79525 0.545105 0.679576 0.545105 0.558962C0.545105 0.438348 0.593018 0.322674 0.678305 0.237388C0.763592 0.152101 0.879266 0.104187 0.99988 0.104187C1.12049 0.104187 1.23617 0.152101 1.32146 0.237388L5.86668 4.78261C5.90894 4.82482 5.94246 4.87495 5.96534 4.93013C5.98821 4.98531 5.99998 5.04446 5.99998 5.10419C5.99998 5.16392 5.98821 5.22306 5.96534 5.27824C5.94246 5.33342 5.90894 5.38355 5.86668 5.42576Z" fill="#565656"/>
</svg>
