<svg width="10" height="10" viewBox="0 0 10 10" fill="none" xmlns="http://www.w3.org/2000/svg">
<path d="M9.58333 1.53846H7.5V1.15385C7.5 0.847827 7.3683 0.554342 7.13388 0.337954C6.89946 0.121566 6.58152 0 6.25 0H3.75C3.41848 0 3.10054 0.121566 2.86612 0.337954C2.6317 0.554342 2.5 0.847827 2.5 1.15385V1.53846H0.416667C0.30616 1.53846 0.200179 1.57898 0.122039 1.65111C0.0438988 1.72324 0 1.82107 0 1.92308C0 2.02508 0.0438988 2.12291 0.122039 2.19504C0.200179 2.26717 0.30616 2.30769 0.416667 2.30769H0.833333V9.23077C0.833333 9.43478 0.921131 9.63044 1.07741 9.7747C1.23369 9.91896 1.44565 10 1.66667 10H8.33333C8.55435 10 8.76631 9.91896 8.92259 9.7747C9.07887 9.63044 9.16667 9.43478 9.16667 9.23077V2.30769H9.58333C9.69384 2.30769 9.79982 2.26717 9.87796 2.19504C9.9561 2.12291 10 2.02508 10 1.92308C10 1.82107 9.9561 1.72324 9.87796 1.65111C9.79982 1.57898 9.69384 1.53846 9.58333 1.53846ZM3.33333 1.15385C3.33333 1.05184 3.37723 0.954011 3.45537 0.881882C3.53351 0.809753 3.63949 0.769231 3.75 0.769231H6.25C6.36051 0.769231 6.46649 0.809753 6.54463 0.881882C6.62277 0.954011 6.66667 1.05184 6.66667 1.15385V1.53846H3.33333V1.15385ZM8.33333 9.23077H1.66667V2.30769H8.33333V9.23077ZM4.16667 4.23077V7.30769C4.16667 7.4097 4.12277 7.50753 4.04463 7.57966C3.96649 7.65179 3.86051 7.69231 3.75 7.69231C3.63949 7.69231 3.53351 7.65179 3.45537 7.57966C3.37723 7.50753 3.33333 7.4097 3.33333 7.30769V4.23077C3.33333 4.12876 3.37723 4.03093 3.45537 3.95881C3.53351 3.88668 3.63949 3.84615 3.75 3.84615C3.86051 3.84615 3.96649 3.88668 4.04463 3.95881C4.12277 4.03093 4.16667 4.12876 4.16667 4.23077ZM6.66667 4.23077V7.30769C6.66667 7.4097 6.62277 7.50753 6.54463 7.57966C6.46649 7.65179 6.36051 7.69231 6.25 7.69231C6.13949 7.69231 6.03351 7.65179 5.95537 7.57966C5.87723 7.50753 5.83333 7.4097 5.83333 7.30769V4.23077C5.83333 4.12876 5.87723 4.03093 5.95537 3.95881C6.03351 3.88668 6.13949 3.84615 6.25 3.84615C6.36051 3.84615 6.46649 3.88668 6.54463 3.95881C6.62277 4.03093 6.66667 4.12876 6.66667 4.23077Z" fill="#565656"/>
</svg>
