<svg width="25" height="25" viewBox="0 0 25 25" fill="none" xmlns="http://www.w3.org/2000/svg">
<path d="M1.47059 20.3125V23.4375V1.5625V20.3125ZM2.37574 25C1.71765 25 1.15711 24.7542 0.694118 24.2625C0.231373 23.7706 0 23.175 0 22.4758V2.52422C0 1.825 0.231373 1.22943 0.694118 0.7375C1.15711 0.245834 1.71765 0 2.37574 0H21.1537C21.8118 0 22.3723 0.245834 22.8353 0.7375C23.298 1.22943 23.5294 1.825 23.5294 2.52422V7.12148H22.0588V2.52422C22.0588 2.24375 21.974 2.01328 21.8044 1.83281C21.6346 1.6526 21.4176 1.5625 21.1537 1.5625H2.37574C2.11176 1.5625 1.89485 1.6526 1.725 1.83281C1.55539 2.01328 1.47059 2.24375 1.47059 2.52422V22.4758C1.47059 22.7563 1.55539 22.9867 1.725 23.1672C1.89485 23.3474 2.11176 23.4375 2.37574 23.4375H21.1537C21.4176 23.4375 21.6346 23.3474 21.8044 23.1672C21.974 22.9867 22.0588 22.7563 22.0588 22.4758V17.8785H23.5294V22.4758C23.5294 23.175 23.298 23.7706 22.8353 24.2625C22.3723 24.7542 21.8118 25 21.1537 25H2.37574ZM14.1404 18.75C13.4824 18.75 12.9218 18.5042 12.4588 18.0125C11.9961 17.5206 11.7647 16.925 11.7647 16.2258V8.77422C11.7647 8.075 11.9961 7.47943 12.4588 6.9875C12.9218 6.49583 13.4824 6.25 14.1404 6.25H22.6243C23.2824 6.25 23.8429 6.49583 24.3059 6.9875C24.7686 7.47943 25 8.075 25 8.77422V16.2258C25 16.925 24.7686 17.5206 24.3059 18.0125C23.8429 18.5042 23.2824 18.75 22.6243 18.75H14.1404ZM22.6243 17.1875C22.8882 17.1875 23.1051 17.0974 23.275 16.9172C23.4446 16.7367 23.5294 16.5063 23.5294 16.2258V8.77422C23.5294 8.49375 23.4446 8.26328 23.275 8.08281C23.1051 7.9026 22.8882 7.8125 22.6243 7.8125H14.1404C13.8765 7.8125 13.6596 7.9026 13.4897 8.08281C13.3201 8.26328 13.2353 8.49375 13.2353 8.77422V16.2258C13.2353 16.5063 13.3201 16.7367 13.4897 16.9172C13.6596 17.0974 13.8765 17.1875 14.1404 17.1875H22.6243ZM17.6471 14.8438C18.2598 14.8438 18.7806 14.6159 19.2096 14.1602C19.6385 13.7044 19.8529 13.151 19.8529 12.5C19.8529 11.849 19.6385 11.2956 19.2096 10.8398C18.7806 10.3841 18.2598 10.1562 17.6471 10.1562C17.0343 10.1562 16.5135 10.3841 16.0846 10.8398C15.6556 11.2956 15.4412 11.849 15.4412 12.5C15.4412 13.151 15.6556 13.7044 16.0846 14.1602C16.5135 14.6159 17.0343 14.8438 17.6471 14.8438Z" fill="#1A237E"/>
</svg>
